<svg version="1.2" baseProfile="tiny" xmlns="http://www.w3.org/2000/svg" width="300" height="136.051" viewBox="0 0 300 136.051"><path fill="#63A70A" d="M90.286 22.014c-.07.078-.11.147-.17.183-1.19.708-2.483 1.237-3.586 2.095-.11.086-.266.123-.405.158-1.143.287-2.15.897-3.207 1.384-.567.26-1.116.516-1.732.64-.385.077-.746.278-1.11.438-.468.205-.91.5-1.395.622-.79.196-1.505.546-2.234.876-.93.42-1.858.845-2.785 1.273-.163.076-.326.167-.468.28-1.18.934-2.547 1.564-3.822 2.34-1.12.686-2.197 1.433-3.288 2.16-.15.098-.276.236-.408.364-.44.434-.882.87-1.32 1.31-.308.31-.636.606-.91.946-.712.883-1.408 1.78-2.09 2.688-.26.35-.49.73-.692 1.117-.44.844-.782 1.745-1.286 2.547-.894 1.428-1.003 3.037-1.215 4.63-.022.178.017.366.036.548.15 1.49.315 2.616.753 4.07.366 1.216.926 2.315 1.643 3.326.48.676 1.023 1.32 1.726 1.818.89.632 1.75 1.31 2.573 2.032.775.68 1.595 1.294 2.53 1.703 1.125.494 2.26 1.012 3.534 1.01.144 0 .292.02.432.057.42.114.83.3 1.258.347.42.046.856-.042 1.286-.07.035-.003.072.014.107.014 1.734-.012 3.398-.45 5.022-.976 1.17-.38 2.367-.718 3.466-1.326.415-.23.863-.406 1.19-.748.595-.62 1.318-1.053 2.054-1.445 1.04-.553 1.998-1.2 2.84-2.022.373-.362.796-.657 1.292-.8.47-.133.858-.39 1.236-.68.198-.154.416-.282.66-.444.105.152.228.255.257.38.15.64.287 1.285.41 1.934.258 1.38.75 2.678 1.37 3.928.16.32.41.598.633.88.8 1.004 2.01 1.425 3.026 2.125.245.17.624.154.944.192.25.03.522-.044.758.02 1.314.367 2.593.215 3.835-.273 1.046-.413 2.076-.875 3.102-1.34.26-.117.506-.298.706-.5 1.304-1.333 2.642-2.626 4.02-3.876.293-.263.543-.592.748-.928.284-.466.533-.958.747-1.46.094-.22.125-.51.074-.742-.08-.354-.233-.696-.397-1.022-.216-.432-.584-.516-1.006-.274-.276.16-.467.484-.84.465-.364-.02-.622.172-.845.432-.258.3-.576.413-.972.383-.76-.056-1.523-.122-2.284-.11-1.322.016-2.505-1.1-2.65-2.322-.077-.653-.13-1.31-.183-1.967-.05-.62-.094-.888-.132-1.51-.06-1.055-.31-2.1-.1-3.172.068-.35.015-.736-.042-1.095-.182-1.13-.235-2.277-.088-3.398.173-1.32.13-2.637.153-3.955.02-1.06.015-2.124-.01-3.186-.01-.547-.167-1.104-.11-1.64.114-1.026.09-2.046.058-3.07-.02-.66-.012-1.323.03-1.982.1-1.68.23-3.358.347-5.036.034-.474.052-.242.09-.715.046-.582.103-1.164.16-1.746.054-.544.143-1.088.17-1.634.06-1.258-.324-2.46-.512-3.686-.02-.142-.1-.274-.148-.413-.223-.62-.437-1.242-.666-1.86-.14-.375-.3-.745-.462-1.112-.193-.433-.403-.86-.602-1.29-.353-.763-.616-1.57-1.182-2.22-.456-.525-.92-1.044-1.336-1.6-.89-1.192-2.067-1.928-3.464-2.36-.487-.15-.96-.345-1.436-.526-1.56-.592-3.042-1.443-4.778-1.44-.07 0-.144-.032-.21-.06-.562-.224-1.145-.184-1.728-.147-.833.05-1.675.207-2.498.133-1.247-.11-2.476.09-3.71.05-1.374-.043-3.638.23-4.397.453-.928.213-1.166.364-1.5.438-1.424.32-2.812.76-4.122 1.418-.585.294-1.132.663-1.714.964-1.755.906-3.444 1.89-4.78 3.407-.367.417-.747.818-.955 1.325-.462 1.126-1.123 2.138-1.716 3.19-.144.25-.286.522-.344.802-.2.97-.367 1.946-.537 2.922-.08.445-.025.878.177 1.286.582 1.17 1.39 2.144 2.516 2.815.37.22.785.383 1.202.5.595.165 1.216.242 1.814.4.446.117.86.08 1.284-.072 1.356-.49 2.507-1.333 3.62-2.214.814-.64 1.172-1.565 1.27-2.588.063-.656.112-1.315.15-1.973.014-.218.01-.443-.035-.655-.188-.916-.044-1.836.114-2.717.323-1.792 1.292-3.25 2.67-4.425.39-.335.82-.594 1.34-.707.815-.177 1.62-.412 2.437-.583.496-.104.996-.217 1.516-.068.197.056.428-.02.645-.027.47-.015.94-.04 1.41-.03.4.008.805.12 1.196.08.567-.06 1.077.095 1.607.237.937.252 1.65.915 2.507 1.315.093.043.167.136.242.216 1.527 1.638 2.283 3.56 2.05 5.817-.183 1.757-.133 3.51.013 5.265.024.29.05.59.003.875-.086.542-.26 1.07-.333 1.613-.077.574-.077.453-.11 1.008zm.116 5.66c0 .467.027.758-.005 1.04-.147 1.317-.13 2.635-.07 3.954.026.55.013 1.1.016 1.65.005.842-.026 1.684.164 2.518.07.317.04.658.064.986.048.657.106 1.312.15 1.97.017.292.04.59.007.88-.158 1.417-.078 2.857-.438 4.254-.064.245-.16.528-.094.75.267.907.116 1.824.145 2.736.024.732 0 1.466.015 2.2.01.443-.176.39-.52.666-.99.795-2.13 1.25-3.328 1.588-.35.1-.695.214-1.04.33-1.14.38-2.272.786-3.42 1.138-.823.25-1.668.067-2.5 0-1.71-.135-3.22-.85-4.68-1.696-.216-.126-.413-.302-.588-.484-1.2-1.246-2.203-2.283-2.982-3.832-.524-1.043-.622-2.17-.58-3.315.012-.365.073-.73.092-1.093.04-.774.226-1.512.45-2.254.408-1.352 1.188-2.484 1.896-3.677.87-1.466 2.113-2.453 3.423-3.47 1.364-1.058 2.818-1.948 4.285-2.824.997-.597 2.076-1.056 3.124-1.565.424-.207.858-.398 1.297-.58 1.31-.54 2.62-1.085 3.94-1.603.33-.13.7-.164 1.175-.268zM77.047 57.17c.616.154 1.246.294 1.86.484.13.04.253.254.286.41.018.086-.132.262-.245.314-.327.152-.667.28-1.013.385-.796.24-1.597.476-2.4.685-.274.07-.57.056-.954.087.176-.357.454-.464.675-.566.76-.353 1.343-.85 1.613-1.67.018-.055.112-.084.18-.13zm23.36.143c-.085.55-.17.976-.21 1.406-.06.652.055.82.683.79.638-.03.852.403 1.175.823-.46.382-.935.42-1.358.166-.756-.455-1.377-1.073-1.776-1.88-.1-.206-.117-.47.068-.612.394-.297.753-.69 1.418-.695zm-37.6-9.855c.04-.527.044-.814.086-1.097.074-.503.26-1.007.24-1.506-.028-.872.43-1.437 1.007-1.96.21-.194.447-.36.787-.63-.035.292-.03.457-.077.606-.314 1.007-.625 2.016-.97 3.013-.14.407-.35.793-.552 1.175-.055.108-.205.165-.522.4zm38.484-6.796c-.05-.614-.11-1.227-.148-1.842-.034-.546-.043-1.096-.06-1.643-.007-.255-.047-.52.005-.766.156-.716.182-1.44.185-2.17 0-.088.074-.174.11-.258.26.057.276.246.28.426.02.804.04 1.607.043 2.412.002.912-.017 1.823-.025 2.734-.005.55-.003.55-.39 1.108zm-.582 9.622c-.53-.737-.452-1.354-.32-1.965.036-.165.14-.36.275-.45.44-.29.438-.713.445-1.163.012-.766.044-1.532.085-2.298.01-.208.08-.41.117-.6.1 0 .14-.013.16.002.024.02.044.062.046.096.042.617.103 1.233.113 1.852.004.475-.073.95-.077 1.426-.003.448-.013.85-.426 1.173-.16.124-.197.455-.222.7-.04.348-.02.703-.197 1.224zM97.123 8.597c-.362.092-.53.192-.605.145-.927-.57-1.83-1.18-2.374-2.175-.183-.335-.04-.59.326-.582.145.004.292.015.433.04.23.045.433.18.426.424-.022.69.362 1.043.924 1.33.272.14.467.43.87.817zM70.656 53.983c-.896.105-1.478-.135-1.824-.752-.242-.433-.355-.944-.503-1.428-.02-.064.082-.184.153-.25.04-.037.132-.02.2-.02.035 0 .073.016.1.037.806.585 1.34 1.38 1.873 2.413zm23.02-34.767c.377 1.028.524 1.324.605 2.338.058.708-.328 1.163-.876 1.51-.072.046-.26.036-.292-.015-.066-.104-.13-.32-.08-.373.776-.798.69-1.074.614-2.058-.024-.327-.047-.655-.05-.982-.002-.14.052-.28.08-.422zm2.537 12.808c.246.516.176 1.066.165 1.6-.01.475-.056.95-.124 1.417-.014.098-.214.248-.302.23-.105-.02-.254-.188-.26-.298-.04-.99-.023-1.978.424-2.898.01-.02.046-.026.097-.05zm5.83-12.108c-.305-.607-.325-.608-.27-1.74.027-.548-.086-1.14.315-1.68.376 1.523.367 2.073-.044 3.42zm-5.927-5.704c.25.085.312.34.306.522-.026.76-.1 1.52-.17 2.28-.012.118-.106.23-.194.413-.27-.855-.226-2.44.058-3.215zm2.922 11.074c.23 1.26.475 2.326-.14 3.356-.076-.035-.18-.056-.185-.087-.093-1.045-.038-2.076.325-3.27zm4.53 32.952c.072-.428.202-.82.57-1.15.422.07.764.304 1.103.558-.46.61-.897.766-1.672.592zm-9.54-33.676c.37.816.102 1.535.034 2.37-.523-.362-.578-.83-.693-1.273-.072-.273-.006-.517.154-.715.12-.147.307-.237.503-.383zm7.605.196c-.218-1.245-.1-1.778.04-3.016.01-.085.118-.16.232-.307.285 1.428-.068 2.018-.272 3.323zM67.94 36.308c-.372.777-1.04 1.3-1.578 1.914-.273-.15-.18-.295-.112-.4.115-.18.252-.353.398-.51.362-.39.735-.77 1.103-1.157.064.05.127.1.19.152zm-4.997 14.78c.25.667.495 1.13.392 1.714-.777-.562-.78-.57-.392-1.714zm35.844-13.66c.166.347.176.625.04.89-.036.075-.166.147-.248.14-.085-.006-.21-.09-.24-.167-.118-.346-.022-.528.447-.863zm-33.024 9.368c-.567-.387-.57-.453-.13-1.238.28.385.27.386.13 1.238zm34.482-35.404c.442.484.617.883.64 1.447-.474-.505-.474-.505-.64-1.448zM96.4 55.958l.628.28c-.033.386-.245.483-.51.383-.295-.11-.3-.353-.117-.662zM66.824 47.61c.013.032.038.063.035.09-.004.024-.04.045-.06.068.01-.052.017-.103.025-.157zM175.744 28.1c-.25.426-.51.64-.895.707-.134-.69-.134-.69.235-1.61l.66.902zM197.12 63.966c.858-.098 1.72-.176 2.575-.297.964-.137 1.898-.453 2.893-.39.168.01.348-.09.516-.15 1.217-.43 2.562-.462 3.688-1.18.087-.055.204-.062.312-.088 1.717-.424 3.18-1.35 4.612-2.33.537-.366 1.048-.767 1.567-1.157.287-.217.624-.4.845-.674.478-.596 1.044-1.092 1.618-1.588 1.814-1.567 3.305-3.442 4.9-5.216.21-.234.353-.544.478-.84.3-.71.7-1.377 1.23-1.9.984-.966.917-2.373 1.778-3.433.295-.36.58-.543.98-.885.333-.548.956-.598.448-1.178-.047-.054-.146-.186-.2-.227-.696-.783-.9-1.16-1.01-1.735-.264-.275-.583-.254-.876.013-.425.392-1.388 1.146-1.787 1.562-1.332 1.378-2.595 2.716-4 4.03-.737.688-1.44 1.43-2.067 2.22-1.05 1.32-2.292 2.392-3.718 3.283-.653.41-1.328.74-2.082.888-1.133.22-2.27.415-3.408.61-.178.03-.36.022-.542 0-.576-.064-1.147-.14-1.722-.22-1.074-.145-2.146-.382-3.226-.422-1.167-.043-2.3-.232-3.428-.48-.81-.18-1.613-.4-2.187-1.102-.147-.183-.426-.26-.645-.386-.47-.268-.943-.53-1.406-.805-.558-.335-1.092-.71-1.664-1.02-.64-.348-1.238-.746-1.763-1.254-.184-.176-.357-.37-.574-.493-.472-.266-.77-.655-.94-1.15-.158-.458-.423-.848-.802-1.137-.48-.365-.76-.852-1.03-1.373-.298-.576-.73-1.09-.97-1.687-.24-.598-.272-1.273-.466-1.893-.165-.53-.257-1.052-.222-1.6.04-.62-.025-1.224-.2-1.824-.128-.45-.21-.918-.28-1.382-.267-1.713-.52-3.43-.78-5.143-.146-.94-.118-1.872.102-2.8.084-.357.27-.563.647-.623.65-.1 1.308-.16 1.937.05.78.26 1.57.23 2.362.138.544-.065 1.072-.088 1.615.02.28.056.575.05.864.05 1.99.01 3.98.015 5.967.025.18 0 .36.03.54.043.682.046 1.37.172 2.047.118 1.478-.115 2.957-.14 4.438-.183.432-.013.9-.062 1.287.083.822.31 1.64.25 2.463.125 1.366-.21 2.745-.103 4.115-.197.212-.014.445.016.642.092.597.23 1.206.197 1.82.18.58-.016 1.16-.002 1.737.016.54.017 1.08.077 1.624.087 1.15.02 2.293-.23 3.46-.023.616.11.993-.306 1.064-.96.08-.715.157-1.427.032-2.157-.122-.71-.122-1.44-.207-2.16-.11-.932-.195-1.872-.39-2.788-.206-.985-.415-1.968-.718-2.94-.29-.933-.607-1.85-.937-2.768-.108-.305-.222-.633-.42-.877-.73-.897-1.12-2.038-2.007-2.82-.478-.908-1.235-1.6-1.843-2.407-.627-.834-1.722-1.067-2.332-1.91-.12-.162-.363-.23-.55-.34-.032-.02-.063-.037-.097-.05-1.066-.446-2.137-.883-3.195-1.34-.8-.34-1.63-.636-2.363-1.084-.625-.383-1.258-.515-1.953-.532-.254-.007-.518.033-.756-.025-1.063-.26-2.16-.116-3.23-.263-1.05-.145-2.086.138-3.134.148-.79.006-1.588.06-2.366.188-.707.115-1.412.306-2.078.565-.47.185-.932.368-1.42.508-.935.27-1.886.536-2.76.953-1.04.497-2.01 1.144-3 1.74-.96.577-1.937 1.13-2.85 1.774-.702.497-1.4 1.008-2.098 1.516-.312.227-.537.58-.787.884-.253.307-.448.67-.74.932-.52.473-.848 1.073-1.23 1.64-.447.66-.888 1.327-1.396 1.936-.573.688-.835 1.51-1.15 2.312-.24.603-.4 1.24-.675 1.825-1.203 2.563-2.166 5.198-2.534 8.025-.025.215-.057.43-.1.643-.36 1.734-.742 3.466-.664 5.255.067 1.588.117 3.178.186 4.766.044 1.082.152 2.163.146 3.244-.008.95-.016 1.867.52 2.71.15.233.19.543.255.825.3 1.296.524 2.614 1.21 3.792.198.34.346.72.456 1.1.333 1.142 1.016 2.062 1.766 2.955.324.384.598.812.865 1.238.233.368.48.71.78 1.032.61.658 1.318 1.245 1.695 2.1.07.154.215.313.363.39.67.343 1.1.944 1.58 1.474.527.58 1.145.98 1.85 1.29 1.02.448 2.043.885 2.97 1.516.237.162.516.264.77.4.7.376 1.408.742 2.095 1.14.727.418 1.47.824 2.293.962 1.644.273 3.295.438 4.973.478zm-3.104-42.727c-1.947-.114-3.895-.243-5.843-.333-.646-.03-1.295.04-1.944.052-.395.007-.792.026-1.183-.02-.43-.052-.63-.29-.665-.727-.016-.213 0-.434.044-.644.248-1.203.463-2.417.78-3.6.272-1.01.664-1.977 1.29-2.845.552-.763 1.077-1.54 1.788-2.166 1.077-.954 2.085-2.02 3.44-2.588.725-.304 1.51-.474 2.274-.667 1.396-.354 2.797-.225 4.196.006 1.102.184 2.2.376 3.334.297.482-.034 1.005.124 1.465.307 1.22.484 2.23 1.298 3.127 2.236.523.548.865 1.23 1.102 1.965.172.546.408 1.073.61 1.61.31.82.498 1.657.437 2.544-.026.355-.018.724.046 1.073.064.363.11.706-.028 1.062-.123.315-.088.636.03.954.062.166.117.342.137.518.07.625-.107.897-.725.973-.424.053-.862.028-1.29.005-.433-.024-.872-.05-1.292-.14-1.05-.228-2.08-.03-3.113.082-.793.084-1.582.075-2.38.038-1.37-.065-2.745-.042-4.12-.053-.506-.004-1.012 0-1.518 0v.057zm-2.526 36.43c.12-.636.478-.85.748-1.11.387-.373.812-.71 1.22-1.062.028-.024.054-.05.085-.067l3.038-1.638c.033-.018.068-.026.104-.037.223-.068.428-.07.582.14.117.164.045.376-.19.54-.116.084-.238.163-.367.23-1.506.782-2.947 1.67-4.37 2.592-.207.13-.444.218-.85.414zm22.753-49.98c.208.19.327.272.414.38.545.682.51.878-.23 1.335-.98.605-1.997 1.132-3.112 1.454-.102.028-.21.04-.316.036-.063 0-.126-.052-.25-.11.922-1.29 2.52-1.773 3.493-3.095zM177.54 36.274c.913-1.59 1.9-3.068 3.085-4.46.486.872.44 1.563-.227 1.95-.916.536-1.678 1.21-2.328 2.032-.145.184-.35.32-.53.478zM217.457 16.8c.224.303.228.56.058.77-.18.222-.39.45-.636.573-.55.274-1.126.488-1.696.712-.082.033-.197-.015-.404-.037.213-.276.336-.578.555-.693.728-.38 1.206-1.153 2.123-1.326zM191.31 59.46l2.505-1.637c0 .257.045.404-.006.495-.274.466-.57.918-.864 1.373-.17.267-.41.386-.73.367-.435-.026-.517-.067-.905-.597zm-2.833-6.705c.14-.182.227-.387.38-.484.825-.517 1.663-1.01 2.5-1.502.12-.07.275-.124.41-.118.13.006.31.072.358.167.047.09-.02.267-.08.38-.047.087-.154.156-.25.2-1.013.475-2.027.945-3.045 1.408-.05.024-.13-.02-.273-.05zm-6.31-14.265c-.81.79-1.72 1.37-2.67 1.896-.03-.067-.1-.158-.08-.186.646-.912 1.385-1.74 2.2-2.458.41.09.498.353.55.748zm34.29-17.7c.09-.15.137-.282.227-.372.45-.453.914-.894 1.37-1.34.212-.206.507-.136.587.14.15.525.08.865-.37 1.104-.465.248-.98.405-1.48.583-.07.024-.18-.06-.332-.115zM199.29 6.495c.918-.638 1.55-1.362 2.54-1.638-.357 1.4-1.096 1.906-2.54 1.638zm-11.47.43c-.613 1.024-1.412 1.61-2.727 1.487.812-.603 1.52-1.198 2.383-1.565.076-.03.19.04.344.078zm-9.532 25.235c-.302.84-.638 1.458-1.394 1.874-.228-.385-.18-.732-.115-1.07.017-.096.09-.206.17-.258.357-.23.71-.475 1.338-.546zm11.04-6.965c.506-.72 1.05-1.086 1.915-.987-.093.52-.353.9-.728 1.134-.338.21-.742.123-1.187-.147zm-6.654-8.144c.268-1.134.434-1.457 1.17-2.21.018.185.06.31.033.418-.113.49-.225.983-.38 1.462-.13.404-.304.454-.823.33zm30.59-4.884c.728-.714 2.424-1.74 2.944-1.857-.024.108-.02.225-.073.282-.79.815-1.865 1.12-2.87 1.574zm-15.3 49.385c.48-.597.937-.896 1.454-1.13.486 1.098.342 1.322-.74 1.217-.173-.017-.345-.04-.713-.086zm4.126-3.245c-.227.583-.543 1.092-.984 1.514-.22.21-.318.174-.696-.265.436-.554.912-1.06 1.68-1.25zm-16.3-9.38c.57-.693 1.38-.874 2.222-1.248-.013.234.014.376-.035.484-.037.086-.164.133-.252.193-.586.393-1.272.45-1.936.573zm-6.496-19.613c.593-.892.937-1.215 1.597-1.51.01.155.062.304.02.42-.058.16-.164.316-.287.438-.33.332-.704.598-1.33.652zm3.532-17.894c-.31.602-.785 1.177-1.203 1.404-.105.057-.26.028-.436.042.612-1.006.866-1.225 1.64-1.446zM201.06 25.28c.634-.52 1.105-.917 1.69-1.27-.107.48-.365.87-.73 1.152-.19.15-.24.16-.96.118zm12.978-1.905l1.263-.482c.278.167.19.358.06.46-.383.3-.822.37-1.322.022zm-18.203 1.208c-.11.44-.137.803-.578.867-.267.04-.573.074-.68-.353.323-.302.685-.51 1.258-.514zm5.43-21.392c-.706.703-.782.698-1.18-.014.442-.31.442-.31 1.18.015zm-18.11 51.41c.376-.22.667-.393 1.06-.625-.013.422-.18.65-.333.875-.175.26-.316.222-.728-.25zm12.732-32.04c-.28.46-.656.552-1 .722-.214-.738.023-.91 1-.722zm-11.604 20.118c-.493.532-1 .703-1.55.786.415-.356.794-.78 1.55-.786zm6.826-19.863c.562-.558.566-.55.985-.282-.29.12-.54.228-.79.32-.053.02-.13-.024-.196-.038zm7.28 2.523c-.013.024-.023.05-.034.074l-.05-.102c.027.01.055.02.083.028zM131.442 56.983c.284-.435.535-.787.753-1.158.24-.41.448-.84.68-1.254.18-.317.353-.646.575-.934.536-.694 1.104-1.363 1.653-2.05.458-.57.87-1.172 1.18-1.845.505-1.095 1.102-2.127 1.858-3.09 1.085-1.38 2.178-3.12 3.025-4.67.07-.13.17-.24.258-.356.874-1.178 1.74-2.358 2.62-3.528.53-.703 1.075-1.392 1.618-2.083.998-1.27 1.94-2.572 2.72-3.994.512-.926 1.105-1.823 1.78-2.635.865-1.042 1.845-1.987 2.78-2.97.505-.534.948-1.46 1.347-2.082.972-1.508 2-2.98 3.01-4.463.578-.85 1.163-1.692 1.74-2.54.227-.334.436-.68.66-1.016.832-1.25 1.68-2.492 2.5-3.752.382-.587.79-1.133 1.332-1.594.85-.723 1.51-1.602 1.862-2.676.226-.684.61-1.278 1.168-1.7.496-.38.684-.833.684-1.414 0-.33 0-.66-.02-.988-.047-.888-.576-1.397-1.37-1.652-.31-.1-.647-.115-.972-.142-.4-.033-.802-.034-1.2-.054-1.024-.053-2.05-.146-3.073-.15-.878-.006-1.755.09-2.634.144-.256.016-.51.04-.768.056-.654.044-1.31.11-1.966.123-1.28.025-2.565.02-3.85.026-1.17.007-2.35.093-3.514 0-1.69-.135-3.362.237-5.046.098-1.548.344-3.065-.063-4.583-.232-.775-.085-1.525-.144-2.297-.048-1.125.14-2.255.25-3.384.36-.218.02-.45.015-.657-.04-.656-.173-1.307-.133-1.964-.02-.253.044-.52.08-.768.042-.63-.103-1.235.025-1.852.108-.507.068-1.022.062-1.533.113-.47.047-.95.085-1.406.198-.675.167-1.34.38-2 .605-.376.13-.734.314-1.1.48-.2.09-.39.216-.598.274-.846.236-1.498.743-2.068 1.39-.678.768-1.37 1.522-2.054 2.287-.097.108-.18.23-.26.354-.487.756-.505 1.05.058 1.785.268.35.364.703.374 1.115.02.86.203 1.672.7 2.395.06.09.1.195.142.296.417.99 1.133 1.717 2.072 2.19.48.242 1.03.38 1.562.477.423.077.874.045 1.307.01.84-.064 1.708-.046 2.505-.272 2.01-.57 3.285-1.98 4.06-3.883.442-1.085.884-2.17 1.33-3.253.22-.528.585-.916 1.092-1.19 1.132-.62 2.382-.692 3.616-.737.984-.036 1.98.208 2.96.15 1.802-.105 3.595.018 5.393.022 1.502.003 3.005-.012 4.508-.026.733-.008 1.467-.038 2.2-.04.164 0 .33.067.466.1.016.148.05.23.025.29-.633 1.57-1.402 3.055-2.66 4.232-.13.122-.254.26-.34.414-.367.643-.818 1.214-1.382 1.693-.343.292-.57.66-.75 1.07-.264.603-.536 1.204-.836 1.79-.25.487-.498.99-.833 1.416-.795 1.01-1.3 2.215-2.182 3.162-.05.053-.08.124-.115.188-.627 1.16-1.277 2.66-2.132 3.675-.14.167-.22.38-.338.565-.533.832-.99 1.73-1.624 2.48-1.375 1.624-2.66 3.317-3.923 5.03-.956 1.294-1.967 2.56-2.606 4.062-.143.335-.337.65-.523.964-.982 1.678-1.99 3.34-2.945 5.03-.42.746-.93 1.77-1.545 2.34-.82.757-1.438 1.665-2.062 2.567-.938 1.356-1.802 2.763-2.695 4.15-.437.677-.822 1.392-1.31 2.028-.805 1.048-1.725 1.997-2.73 2.862-.5.43-.986.873-1.47 1.32-.103.096-.204.223-.238.354-.254.96-.46 1.93-.237 2.93.065.29.23.462.527.46.29 0 .58-.058.873-.08.327-.023.684-.124.98-.035.728.217 1.46.155 2.186.122 1.037-.048 2.05.033 3.054.293.313.083.65.1.975.092 1.677-.042 3.354-.11 5.032-.15 1.465-.035 2.93-.05 4.396-.06 1.32-.01 2.64-.09 3.958.07.288.034.585-.003.878.002 1.573.03 3.144-.064 4.722.008 2.526.118 5.056.105 7.583.31 1.855.15 3.728.112 5.593-.035.84-.065 1.692-.032 2.52-.17 1.26-.208 2.507-.506 3.75-.804 1.436-.345 2.648-1.042 3.442-2.344.096-.158.207-.304.313-.453.842-1.177 1.532-2.413 1.52-3.92 0-.073.015-.148.033-.218.167-.543.107-1.09.027-1.637-.04-.253-.09-.508-.088-.76.003-.824-.284-1.585-.515-2.352-.09-.303-.303-.587-.514-.832-.333-.388-.706-.743-1.076-1.1-.48-.466-1.026-.824-1.683-1-1.175-.315-2.333-.48-3.573-.234-.84.167-1.516.468-2.105 1.06-.283.283-.632.5-.943.757-.654.544-1.27 1.14-1.605 1.93-.625 1.484-1.472 2.857-2.11 4.335-.425.978-1.255 1.61-2.216 2.047-.196.088-.43.13-.644.132-1.173.006-2.345-.004-3.518-.015-.548-.006-1.098-.057-1.645-.034-.836.035-1.665.14-2.51.146-2.09.016-4.177.108-6.26-.137-.22-.026-.442-.072-.656-.05-1.375.135-2.7-.222-4.038-.415-.096-.012-.187-.087-.428-.207zM154.305 9.34c-.14-.544.043-1 .293-1.435.106-.19.27-.348.4-.52l1.21-1.573c.47-.24 1.194-.43 2.063-.368-.06.16-.077.295-.15.388-.574.72-1.214 1.36-2.07 1.75-.725.33-1.313.803-1.502 1.637-.01.04-.118.06-.243.12zm-31.41-3.418c-.574.52-1.073 1.006-1.608 1.45-.363.3-.763.564-1.17.808-.347.21-.732.32-1.204.116.05-.63.43-1.085.912-1.385.868-.54 1.81-.948 2.827-1.148.045-.01.108.07.242.16zm32.09 11.59c-.872 1.752-2.93 4.464-3.897 5.204-.037-.1-.125-.213-.096-.27.65-1.31 1.39-2.568 2.364-3.666.406-.45.86-.857 1.628-1.27zM141.274 6.03c.272-.157.462-.33.683-.385.886-.23 1.776-.434 2.67-.628.313-.07.644-.176.975.083-.08.338-.166.688-.26 1.08-1.252.21-2.49.06-3.724.058-.087 0-.172-.1-.344-.208zm-8.688 34.194c.33-1.217.95-2.082 1.463-3.117.187.298.29.567.478.736.207.185.498.278.78.426-.39 1.26-1.466 1.573-2.72 1.954zm29.56 10.413c0 .348.06.554-.01.693-.33.648-.685 1.284-1.054 1.91-.11.188-.314.312-.56.257-.243-.056-.497-.41-.445-.68.048-.245.104-.527.26-.705.474-.543.97-1.076 1.808-1.475zm-31.09.3c.112-.63.29-.987.48-1.328.43-.766.89-1.514 1.338-2.27.3-.504.585-1.017.894-1.514.117-.19.28-.354.55-.112-.03.374-.293.638-.513.917-.525.67-.93 1.382-1.163 2.22-.218.783-.76 1.403-1.588 2.087zm25.196 2.154c.073-.415.202-.698.597-.846.315.515.728.847 1.405.838.384-.004.438.42.46.832-.14.006-.28.054-.393.012-.676-.26-1.347-.54-2.07-.835zm-27.235-2.094c.022.115.07.198.046.246-.414.843-.833 1.685-1.263 2.52-.06.12-.186.214-.298.298-.046.035-.156.043-.2.01-.08-.054-.18-.147-.184-.23-.008-.134.013-.298.085-.408.554-.836 1.097-1.682 1.815-2.436zm26.56 4.483c.145.1.252.14.31.22.13.17.23.357.36.56-.24.42-.275.988-.915 1.042-.058-.115-.122-.183-.11-.235.107-.514.227-1.024.355-1.588zm-23.226-12.963c-.038.55-.408 1.195-1.17 2.06.033-.492.235-1.123.537-1.557.155-.224.29-.497.632-.503zM157.642 3.9c-.655.305-1.245.45-1.85.543-.058.01-.157-.12-.202-.204-.02-.043.02-.172.06-.188.583-.196 1.16-.415 1.794-.342.025.005.047.045.2.19zm-28.246 54.697c.49.027.982.052 1.473.083.018 0 .033.058.05.088-.717.282-.945.278-1.524-.17zm.616-2.675c.016-.21 0-.432.056-.63.033-.117.168-.23.284-.282.063-.028.243.056.27.127.043.122.055.3-.006.405-.102.175-.27.312-.413.464l-.19-.084zm29.56 2.48c-.23.4-.582.47-1.014.533.314-.677.315-.678 1.014-.533zM52.25 15.914c1.208.305 1.93.17 2.746-.46.313-.24.485-.552.506-.935.015-.292.002-.588-.033-.88-.06-.478-.01-.938.08-1.414.09-.496.06-1.02.038-1.528-.02-.512-.112-1.02-.144-1.532-.047-.768-.045-1.54-.104-2.306-.072-.913-.176-1.822-.285-2.73-.055-.475-.14-.946-.232-1.413-.075-.368-.338-.56-.697-.604-.18-.022-.365-.013-.548-.002-1.095.062-2.19.132-3.287.19-.84.046-1.684.116-2.527.11-2.09-.017-4.18-.07-6.268-.108-.147-.003-.294 0-.44.003-1.685.04-3.37.142-5.052.095-.98-.027-1.97-.077-2.956-.196-1.524-.182-3.066-.25-4.604-.29-1.537-.037-3.077.027-4.616.037-.987.007-1.975-.023-2.96 0-.99.02-1.98.065-2.967.137-.638.048-1.242-.038-1.834-.262-.56-.21-1.125-.264-1.726-.19-.468.06-.954.026-1.426-.018-.697-.066-1.383-.064-2.082.013-1.018.113-2.044.197-3.067.19-2.156-.013-4.32.277-6.474-.114-.483-.088-.71.116-.913.602C.13 2.905.13 3.53.165 4.152.217 5.1.138 6.054.33 7c.054.274-.03.578-.04.87C.257 8.82.12 9.78.225 10.717c.11.99.19 1.956.007 2.944-.08.427-.058.878-.04 1.316.014.348.196.532.557.568.546.054 1.098.095 1.647.09.604-.004.94-.3 1.038-.916.11-.724.16-1.456.258-2.18.107-.798.138-1.625.386-2.377.294-.9.776-1.737 1.193-2.594.15-.316.42-.51.777-.543.91-.086 1.822-.213 2.735-.23.728-.016 1.46.16 2.186.15.73-.01 1.456-.182 2.187-.222 1.208-.064 2.417-.1 3.626-.11.952-.008 1.904.033 2.855.068.467.017.933.07 1.42.108.11.455.237.84.292 1.235.152 1.087.267 2.18.412 3.268.042.326.094.664.218.963.224.537.218 1.07.112 1.62-.197 1.02-.207 2.034.003 3.06.08.385.05.805.002 1.2-.05.435-.178.86-.275 1.288-.21.93-.476 1.848-.357 2.822.164 1.35.122 3.414.08 4.77-.047 1.426-.134 2.85-.16 4.277-.02 1.168.02 2.335-.124 3.498-.058.472-.182.942-.183 1.41 0 1.287-.018 2.575.088 3.854.245 2.967.124 6.286.04 9.253-.006.254-.012.51-.004.762.015.472.084.95.05 1.417-.08 1.134-.198 2.265-.318 3.395-.193 1.824-.95 3.276-2.66 4.15-1.203.616-2.448.922-3.795.84-.623-.036-1.25-.087-1.87-.044-.808.058-1.415.54-1.218 1.57.055.288.11.576.18.86.117.48.393.72.883.587 1.052-.285 2.116-.08 3.172-.16 1.31-.1 2.637 0 3.957 0 .513 0 1.03-.08 1.537-.038 1.748.142 3.496.314 5.254.332.84.008 1.68-.005 2.52-.038 1.125-.042 2.247-.253 3.374.05.345.09.73.042 1.094.05.22.003.438-.017.656-.015 1.17.01 2.344.07 3.512.028 1.61-.058 3.216-.047 4.823-.068 1.554-.02 1.734-.146 1.69-1.71-.02-.71-.305-1-.995-1.07-.145-.015-.294-.022-.44-.006-1.14.126-2.273-.02-3.403-.122-1.53-.137-2.725-1.186-3.13-2.662-.124-.457-.298-.9-.454-1.35-.07-.206-.187-.404-.218-.616-.187-1.266-.36-2.535-.524-3.805-.028-.216.016-.44.02-.66.024-1.134.17-2.264.047-3.405-.108-1.02-.13-2.4-.19-3.426-.037-.62-.068-1.242-.11-1.862-.095-1.425-.233-2.842-.182-4.28.053-1.5.257-2.99.22-4.497-.02-.806.093-1.612.097-2.418.007-2.236-.003-4.472-.022-6.708-.01-1.247-.047-3.198-.08-4.443-.02-.77-.094-1.538-.074-2.306.042-1.644.305-3.282.157-4.934-.018-.215.04-.437.058-.655.04-.473.1-.945.113-1.418.024-1.028.016-2.055.036-3.083.01-.532.21-.738.735-.744.66-.008 1.32-.014 1.98.033 1.424.1 2.847.24 4.27.35.656.05 1.314.052 1.97.096 1.135.076 2.272.14 3.402.26 1.01.106 1.92.467 2.578 1.305.113.143.256.263.396.382.65.555.978 1.263 1.04 2.11.032.4.053.806.137 1.198.24 1.107.507 2.21.777 3.374zM27.11 24.7c-.328-.35-.392-1.46-.476-1.825-.34-1.46-.598-2.93-.542-4.446.052-1.425.02-2.852.032-4.278 0-.173.03-.343.046-.524.27.053.303.26.34.42.674 2.834.966 8.3.6 10.652zM49.527 4.924c.055-.04.087-.08.12-.082.68-.006 1.358-.026 2.035-.007.463.012.516.104.637.583.112.442.124.874-.04 1.357-.402-.234-.773-.493-1.108-.797-.076-.07-.095-.205-.13-.312-.146-.452-.27-.55-.75-.58-.208-.012-.42-.01-.63-.03-.047-.007-.086-.082-.134-.132zM32.43 49.39c-.666.345-1.186-.04-1.794-.11-.038-.357-.07-.674-.096-.93.095-.122.13-.213.184-.23.643-.173.932-.55.996-1.248.07-.754.333-1.847.516-2.59.025-.1.087-.19.187-.4.233 1.208.22 3.98.007 5.51zm.753-20.905c.256.12.196.372.198.565.008 1.21-.004 2.42-.012 3.627-.006 1.173-.028 2.344-.166 3.51-.028.228-.073.44-.43.402-.034-.16-.097-.334-.1-.51-.03-2.494.165-4.978.374-7.46.005-.048.088-.088.137-.135zm-9.735 24.12c-.162.418-.323.857-.508 1.287-.037.084-.166.175-.255.178-.163.005-.26-.127-.25-.287.038-.505.115-1.01.135-1.514.047-1.272.072-2.543.107-3.818.257 0 .275.2.3.36.09.576.168 1.153.237 1.73.085.684.156 1.37.234 2.064zm.422-49.158c.212-.108.295-.19.38-.188 1.34.023 2.687-.147 4.01.066.14.286.022.45-.213.532-.135.045-.292.068-.43.046-1.05-.163-2.11-.193-3.167-.244-.157-.007-.31-.11-.58-.213zm1.304 5.794l-.376 4.083-.12.01c-.032-.146-.078-.292-.093-.438-.072-.726-.146-1.45-.202-2.178-.027-.363-.046-.73-.02-1.09.022-.322.18-.387.81-.386zm1.244 32.897c.122.25-.01.49-.067.724-.16.66-.35 1.664-.577 2.5-.145-.277-.248-.737-.25-.848-.014-.47-.004-.94.01-1.408.018-.48.28-.81.69-1.027.04-.022.126.037.195.06zM11.178 3.13c.988-.412 1.77-.197 2.71 0-.227.182-.32.32-.436.34-.726.12-1.443.107-2.273-.34zm8.433.444c1.062-.52 2.006-.317 3.005-.358-.07.146-.102.288-.144.29-.887.065-1.773.236-2.86.068zM3.604 6.184c.277-.07.557-.15.77.213-.202.42-.494.79-.74 1.34-.295-.848-.295-.848-.03-1.554zM24.156 22.74c.47.738.507 1.747.306 2.674-.407-.67-.307-2.038-.306-2.674zM22.98 33.703c.21.483.278.902.233 1.33-.01.095-.173.202-.29.245-.048.02-.214-.107-.223-.18-.055-.458-.022-.908.28-1.395zM53.333 13.94c.132-.105.244-.258.386-.296.224-.06.295.134.315.32.012.102.013.22-.028.31-.038.088-.127.196-.21.212-.083.017-.22-.042-.276-.113-.082-.104-.114-.25-.187-.432zM19.445 59.92c-.465.805-.465.805-1.04.796.008-.06-.006-.155.03-.177.33-.213.672-.414 1.01-.62zM5.69 3.362c-.633.402-1.107.113-1.75.114.794-.29.794-.29 1.75-.114zm27.653 23.276c-.023.01-.047.018-.072.027-.008-.034-.02-.067-.027-.1l.1.073zM227.092 38.336c.157.153.098.085.16.18.905 1.392 1.715 1.836 1.838 1.927.146.112.22.265.598-.07 1.09-.964 1.894-1.56 1.924-1.586.16-.137.906-.687 1.164-.85.047-.027.074-.082.11-.125.026-.03.054-.09.075-.09.175.01.265-.144.4-.2.16-.062.385-.158.485-.307.028-.043.084-.075.133-.102.198-.11.402-.093.606-.194.167-.085.347-.144.46-.307.018-.025.05-.042.08-.057.216-.126.434-.25.65-.374.05-.027.103-.062.156-.067.225-.02.394-.167.55-.292.27-.215.583-.3.884-.43.162-.07.324-.148.482-.23.084-.045.152-.12.24-.158.217-.092.436-.177.66-.25.266-.09.508-.33.827-.16.02.01.048.007.07 0 .238-.057.51.005.708-.204.013-.013.044-.014.067-.013.44.025.844-.137 1.254-.265.077-.024.158-.057.236-.055.26.007.518.026.776.045.3.023.6.048.898.076.104.01.208.028.312.048.158.032.317.068.478.103.108.024.22.053.328.08.26.06.526.185.784.17.49-.03.95.11 1.426.16.17.017.338.047.5.096.365.11.73.23 1.09.352.076.025.148.063.225.094.228.093.45.186.68.275.21.084.437.143.63.253.39.22.815.316 1.235.437.295.083.6.03.896-.028.027-.006.06-.005.086-.01 1.667.092 3.334.03 5 .065 1.113.022 2.23.072 3.336.294 1.553.313 3.123.42 4.698.134.272-.05.558-.102.813-.21 1.45-.62 2.918-1.212 4.12-2.283.55-.49 1.17-.86 1.84-1.188.714-.35 1.32-.915 1.97-1.393.336-.25.672-.5.988-.777.502-.435.982-.89 1.48-1.335.86-.776 1.626-1.637 2.24-2.626.073-.12.177-.228.22-.357.418-1.24 1.228-2.278 1.758-3.458.473-1.057 1.115-2.033 1.575-3.084.646-1.474 1.517-2.852 1.913-4.434.377-.563.468-1.243.735-1.844.38-.84.566-1.732.74-2.62.145-.76.41-1.484.572-2.234.133-.61.205-1.238.27-1.86.056-.557.02-1.123.096-1.674.1-.766.152-1.523.115-2.298-.028-.588.064-1.182.11-1.773.01-.104.06-.204.063-.31.036-.71-.535-1.157-1.155-.846-.48.243-.95.41-1.486.462-.307.028-.626.143-.895.297-1.075.613-2.306.814-3.425 1.31-.56.246-1.217.264-1.834.37-.375.067-.758.116-1.14.162-.17.02-.35.037-.52.015-.624-.08-1.235-.186-1.876-.05-.29.063-.623-.048-.934-.097-1.445-.222-2.89-.43-4.36-.483-.867-.03-1.743-.198-2.59-.41-.774-.197-1.53-.146-2.288-.05-.5.063-.976.08-1.46-.035-.62-.144-1.245-.15-1.876-.065-.346.046-.695.058-1.043.08-.105.006-.216-.03-.314-.01-.51.12-1.008.33-1.52.358-.522.028-1.036-.01-1.557.147-.693.21-1.408.323-2.14.38-.443.037-.895.174-1.31.346-.617.254-1.244.45-1.89.617-.99.256-1.897.672-2.674 1.382-.317.292-.763.502-1.187.61-.65.17-1.055.663-1.54 1.04-.358.28-.718.514-1.133.717-.51.25-1.086.527-1.324 1.134-.084.215-.263.292-.444.406-.324.198-.63.44-.893.712-1.177 1.21-2.166 2.56-2.963 4.05-.146.275-.397.5-.517.784-.51 1.226-1.028 2.45-1.466 3.703-.24.688-.316 1.433-.49 2.146-.118.478-.173.96-.21 1.446-.028.046-.053.093-.083.137-.082.117-.12.24-.097.367.104.542 0 1.067-.104 1.594-.08.415-.22.818-.2 1.25.005.078-.014.167-.05.236-.152.29-.138.608-.137.91 0 .386-.02.756-.167 1.12-.2.488-.378.986-.57 1.48-.092.233-.177.47-.283.7-.134.285-.28.568-.435.845-.093.17-.198.333-.315.486-.193.25-.414.48-.6.732-.193.255-.417.47-.66.674-.147.12-.28.288-.337.463-.042.13-.132.192-.198.284-.045.057-.11.094-.158.15-.244.28-.48.566-.724.85-.116.13-.224.276-.36.383-.23.182-.484.33-.7.547-.353.363-1.98 1.894-2.02 1.93-.398.404-.764.823-1.216 1.164-.108.082-.127.146-.062.27.052.063.077.148.117.188zm17.865-16.97c.148-.08.268-.222.398-.334 1.773-1.496 3.648-2.827 5.76-3.82.79-.37 1.543-.822 2.316-1.235.214-.114.427-.254.656-.314 1.16-.3 2.235-.81 3.33-1.282 1.907-.82 3.838-1.543 5.964-1.524.344.004.693-.11 1.03-.196 1.257-.327 2.498-.277 3.72.16.11.04.2.14.342.243-.615.654-1.363.812-2.104.995-1.015.253-2.033.495-3.04.786-.905.263-1.81.557-2.694.89-1.007.378-2.052.676-2.97 1.282-.285.188-.645.262-.957.414-.344.167-.732.304-.995.562-.37.368-.825.523-1.278.688-.593.215-1.185.396-1.642.87-.14.146-.356.216-.544.31-.312.153-.643.28-.943.453-.816.466-1.628.942-2.433 1.432-.358.22-.77.416-1.024.728-.556.675-1.345.998-2.023 1.48-.34.24-.71.445-1.092.608-.408.176-.666.49-.924.817-.65.144-1.064.67-1.568 1.03-1.005.713-1.85 1.634-2.396 2.745-.306.62-.763.827-1.475 1.004.51-1.84 1.427-3.29 2.444-4.673.492-.67 1.145-1.228 1.658-1.887.702-.897 1.48-1.682 2.485-2.23zm18.667-17.995c-.25.014-.498.04-.752.038-.613 0-1.24-.05-1.854.063-.173.034-.365.01-.55.008-.226 0-.413.066-.467.264-.06.217-.243.273-.448.312-.16.032-.33.038-.495.052-.31.028-.627.026-.933.087-1.142.23-2.34.256-3.46.62-.06.02-.124.027-.186.034-.263.03-.523.055-.918.098.21-.135.3-.214.407-.256.464-.184.925-.37 1.367-.595.146-.074.312-.114.468-.168.098-.034.207-.05.297-.094.645-.335 1.353-.466 2.072-.544.308-.034.603-.112.904-.147.26-.03.467-.095.563-.32.062-.148.227-.174.4-.147.12.02.24.042.358.07.34.08.666.115 1.013.064.388-.057.794.074 1.19.15.36.067.707.168 1.024.41zm-10.222 6.5c-2.487 1.938-5.428 3.096-8.348 4.078-.158-.274-.006-.35.14-.427.594-.308 1.227-.56 1.778-.93 1.444-.97 3.107-1.465 4.693-2.134.35-.146.673-.344 1.025-.473.222-.08.476-.078.712-.112zm1.793 13.29c-.47.695-.812 1.303-1.258 1.822-.254.293-.653.522-1.037.645-.797.253-1.62.417-2.428.604-.065.016-.152-.045-.318-.102.174-.188.303-.38.484-.51.86-.618 1.72-1.266 2.647-1.835.514-.315 1.044-.714 1.91-.622zm26.903-14.946c.045.997-.052 1.148-1.13 1.728-.15-.214-.28-.45-.462-.637-.154-.16-.365-.262-.598-.418.294-.57.857-.815 1.25-1.23.418.053.682.317.94.557zM265.396 18.45l.912.392c-.138.256-.203.5-.36.652-.814.778-1.642 1.568-2.84 1.875.22-.74.265-.786.975-1.494.442-.443.85-.917 1.313-1.425zm15.936-14.46c-.264.37-.4.62-.59.825-.358.383-.512.35-1.152-.145.35-.442.656-.57 1.742-.68zm-23.575 21.107c-.498.728-1.013 1.146-1.71 1.34-.113.03-.35-.083-.404-.186-.054-.096 0-.337.094-.4.548-.368 1.163-.61 2.02-.753zm-8.142 3.174c.02.522-.202.82-.555.994-.33.166-.623-.05-.912-.306.32-.478.866-.54 1.467-.687zm2.69-23.303c-.62.423-1.275.653-2.066.59.178-.1.35-.213.538-.295.252-.11.518-.2.78-.288.215-.074.443-.17.747-.007zm13.438 10.05c-.583.587-1.04.92-1.767.5.55-.36.84-.446 1.767-.5zm6.01-7.56c-.165.514-.666.4-.978.52-.242-.123-.287-.24-.145-.365.297-.26.65-.314 1.123-.154zm-30.43 10.213c-.166.21-.31.44-.51.614-.062.056-.288-.007-.386-.085-.14-.108-.13-.306.027-.396.223-.13.48-.208.72-.308l.15.174z"/><path fill="#007934" d="M260.373 132.16h-1.86c.074-.336.122-.617.197-.892.09-.322.446-.47.67-.255.327.313.724.574.993 1.147zM261.84 133.578c-.213.21-.434.38-.734.215-.02-.01-.035-.068-.024-.088.212-.343.51-.05.758-.127zM255.74 127.895c-.05.015-.077.028-.104.026-.01 0-.015-.04-.02-.06.034.01.07.018.124.035zM232.336 99.643c.082-.123.14-.263.24-.36.822-.78 1.71-1.498 2.463-2.337.61-.683 1.33-1.237 1.974-1.88.594-.594 1.2-1.18 1.786-1.783.61-.63 1.127-1.354 1.875-1.85.177-.12.312-.31.44-.486.44-.588.953-1.09 1.51-1.572 1.81-1.556 3.566-3.17 5.348-4.76 1.203-1.072 2.41-2.144 3.47-3.37.234-.274.536-.495.833-.706.357-.255.764-.446 1.11-.712.358-.274.77-.4 1.17-.58 1.106-.492 2.296-.392 3.445-.572 1.23-.19 2.463-.34 3.69-.538.235-.04.472-.195.67-.35.132-.105.273-.296.28-.452.028-.73.045-1.465 0-2.192-.023-.405-.357-.634-.78-.625-.544.01-1.103-.022-1.632.084-.95.19-1.898.12-2.85.086-1.393-.05-2.783-.17-4.176-.177-2.973-.015-5.947.04-8.92.032-.95-.002-1.9-.116-2.85-.176-.258-.018-.516-.04-.77-.026-.695.033-1.39.068-2.083.14-.202.02-.434.106-.576.24-.43.407-.418.937-.222 1.433.18.453.47.785 1.062.79.95.01 1.893.076 2.825.36.544.167.952.42 1.184.883.674 1.36.76 1.165.025 2.516-.342.63-.73 1.164-1.368 1.525-.518.296-.918.716-1.158 1.286-.1.23-.28.436-.457.615-.438.444-.893.872-1.346 1.296-.458.43-.88.875-1.215 1.414-.33.525-.683 1.055-1.12 1.488-1.037 1.034-2.123 2.02-3.2 3.016-1.532 1.418-3.03 2.875-4.428 4.43-.1.11-.196.227-.317.303-.95.596-1.633 1.46-2.355 2.29-.482.552-.984 1.09-1.505 1.607-.22.22-.438.513-.804.426-.22-1.31-.418-2.603-.656-3.887-.12-.66-.14-1.304.044-1.96.33-1.162.367-2.367.4-3.562.03-1.024-.118-2.054-.065-3.075.07-1.418.013-2.86.508-4.235.06-.16.032-.358.033-.536.003-.22-.036-.44-.005-.65.104-.728.202-1.457.36-2.17.146-.652.373-1.28 1.143-1.474.104-.024.202-.093.287-.16 1.105-.85 2.42-1.044 3.742-1.075.89-.02 1.74-.234 2.617-.305.408-.033.63-.254.65-.626.03-.623.045-1.25 0-1.87-.042-.534-.43-.84-.975-.86-.144-.003-.29.022-.435.052-1.414.295-2.84.267-4.27.176-.618-.04-1.244-.04-1.862-.01-1.9.1-3.803.274-5.705.322-2.35.06-4.698.024-7.047.014-1.023-.004-2.06.01-3.076-.1-.734-.082-1.457-.074-2.188-.043-1.684.067-3.364.307-5.04-.05-.07-.015-.147-.013-.222-.01-.31.015-.556.227-.595.536-.05.4-.105.803-.12 1.202-.032 1.04.36 1.46 1.408 1.535.146.012.293-.016.44-.013.402.008.81-.015 1.21.038 1.483.188 2.868.602 3.868 1.83.16.197.38.344.563.522 1.096 1.082 1.945 2.29 2.053 3.895.01.144.032.31.11.42.46.644.433 1.386.448 2.116.017.662-.02 1.324.014 1.982.09 1.868.194 3.734-.09 5.596-.02.146-.02.295-.013.44.08 1.61.077 3.22.105 4.827.018.997-.02 1.98-.16 2.962-.047.318-.018.652-.005.98.013.292.065.583.067.874.005.88-.008 1.763-.004 2.644.002.903-.207 1.808-.012 2.718.046.206-.02.438-.047.654-.09.762-.184 1.52-.282 2.332.43.604.458 1.324.42 2.072-.034.658.005 1.318.007 1.98.002 1.32.035 2.644-.014 3.962-.03.88-.015 1.747.074 2.63.1.976.135 1.966-.07 2.954-.13.62-.478 1.157-.613 1.756-.217.938-.805 1.532-1.555 2.04-.608.41-1.202.845-1.8 1.27-1.335.958-2.844 1.312-4.458 1.192-.563-.043-1.004.13-1.403.48-.27.234-.376.54-.326.89.02.147.067.286.106.427.2.728.24.77.954.813 1.503.1 3.003.056 4.505-.095 1.345-.135 2.695-.285 4.048-.33 1.76-.057 3.52-.014 5.28-.014 2.163 0 4.328-.003 6.493.005.364.002.73.05 1.093.086.695.07 1.38.106 2.084.02.572-.075 1.206-.118 1.744.044.972.293 1.976.108 2.942.354.357.092.738-.236.798-.602.04-.25.04-.514.026-.77-.03-.657-.135-.758-.83-.908-.178-.04-.354-.096-.526-.15-.56-.188-1.123-.29-1.716-.345-1.026-.093-2.023-.345-2.83-1.065-.643-.57-1.246-1.146-1.066-2.137.037-.204-.014-.444-.086-.645-.376-1.043-.492-2.13-.55-3.227-.013-.22-.026-.45-.112-.646-.297-.673-.248-1.377-.154-2.056.086-.596.07-1.182-.027-1.75-.136-.77-.12-1.53-.07-2.3.02-.33.052-.665.01-.987-.19-1.49.046-3.01-.344-4.483-.046-.172-.012-.365-.012-.55.004-1.466.015-2.933.008-4.396-.002-.554.093-1.073.362-1.616.178.074.328.1.428.187.438.39.86.796 1.285 1.2.66.637 1.314 1.276 1.97 1.92.42.41.862.802 1.233 1.254.65.79 1.255 1.62 1.882 2.43.158.202.32.4.504.582.83.824 1.636 1.673 2.247 2.683.31.51.713.913 1.188 1.276 1.81 1.372 3.226 3.074 4.325 5.064.603 1.085 1.268 2.148 2.35 2.86.18.118.33.29.475.454 1.05 1.182 1.895 2.52 2.71 3.863.65 1.066.354 2.217-.99 2.59-.417.115-.866.133-1.304.182s-.878.07-1.314.126c-.248.03-.373.213-.383.46-.036.894.626 1.624 1.505 1.65.588.02 1.184-.038 1.762.044.594.086 1.164.057 1.744-.054.573-.108 1.146-.173 1.735-.044.35.072.742.07 1.094 0 1.362-.273 2.7-.05 4.046.133 1.82.242 3.646.413 5.486.295.73-.047 1.46-.175 2.19-.174 1.98.002 3.963-.175 5.94.05.393.046.633-.144.8-.45.083-.156.13-.342.145-.52.055-.707-.055-1.384-.43-2.05-1.25-.324-2.52-.66-3.796-.983-.516-.13-.934-.385-1.31-.76-.854-.855-1.707-1.713-2.605-2.52-.953-.862-1.92-1.704-2.688-2.75-.146-.202-.373-.348-.572-.51-.604-.49-1.112-1.075-1.472-1.76-.248-.47-.57-.833-.96-1.18-.716-.632-1.397-1.302-2.072-1.974-.204-.204-.35-.468-.52-.702-.235-.322-.472-.646-.706-.97-.707-.983-1.538-1.842-2.484-2.606-.447-.36-.77-.877-1.152-1.325-.188-.224-.364-.462-.573-.664-.93-.897-1.756-1.9-2.376-3.017-.683-1.23-1.73-2.053-2.7-2.984-.527-.506-1.022-1.048-1.523-1.58-.2-.21-.383-.443-.586-.654-.833-.867-1.56-1.842-2.505-2.604-.056-.046-.11-.103-.145-.164-.432-.75-1.11-1.25-1.768-1.77-.388-.325-.8-.637-.966-1.187zm18.51 22.646c.313.077.475.39.607.774-.758.72-1.686 1.027-2.665 1.188-.574.095-1.163.115-1.745.142-.16.006-.322-.09-.664-.192.433-.186.683-.31.94-.397.723-.243 1.463-.435 2.164-.72.457-.19.866-.5 1.362-.796zm-29.338-35.955c.223.724.073 1.172-.28 1.565-.122.132-.288.23-.448.315-.758.406-1.344 1.005-1.883 1.656-.494.6-1.104 1.064-1.72 1.527-.04.03-.124.004-.266.004.283-.367.502-.742.805-1.03 1.294-1.23 2.32-2.715 3.793-4.035zm22.8 34.786c.07-.122.08-.17.105-.183 1.15-.527 2.306-1.06 3.58-1.236.495-.067.837.147 1.055.71-.286.01-.52-.002-.75.025-.84.105-1.647.342-2.417.68-.42.186-.835.268-1.278.2-.094-.015-.175-.114-.293-.194zm9.288 9.932c.13-.188.156-.277.21-.303.99-.462 1.978-.927 2.98-1.354.213-.09.49-.052.734-.034.078.01.187.14.205.23.018.082-.047.203-.11.27-.07.077-.18.125-.282.16-1.037.347-2.072.692-3.114 1.02-.163.054-.357.01-.624.01zm-35.075-10.135c-.034.463-.04.752-.085 1.033-.02.137-.084.297-.18.39-.48.46-1 .853-1.71.866-.19.002-.346-.195-.276-.37.052-.132.098-.286.195-.382.573-.548 1.14-1.115 2.056-1.537zm-.926-9.11c1.11-1.59 1.7-2.197 2.64-2.747.294.45.34.686.05.908-.83.644-1.55 1.44-2.516 1.908-.02.008-.06-.022-.174-.068zm-4.864-20.74c-.19-.474.062-.79.093-1.122.03-.322.07-.645.104-.984.438-.273.858-.538 1.27-.798.064.07.098.092.11.123.01.03.007.075-.007.104-.092.195-.166.406-.293.578-.47.63-.7 1.41-1.277 2.098zm.29 38.64c-.513.48-.99.926-1.473 1.367-.326.303-.713.328-1.234.217.33-.33.586-.622.877-.87.358-.305.74-.59 1.13-.854.213-.147.47-.252.7.14zm5.68-36.83c.53-.69 1.034-1.374 1.937-1.825-.023.287.038.55-.066.664-.436.48-.906.924-1.395 1.35-.155.137-.33.017-.476-.19zm-3.116 3.343c.785-1.277 1.102-1.63 1.646-1.826-.195 1.008-.7 1.568-1.646 1.826zm3.146 17.865c.442-.732 1.018-1.33 1.826-1.8.02.197.072.33.027.39-.474.636-1.004 1.21-1.853 1.41zm15.13-8.24c.497-.366 1.042-.49 1.6-.537.127-.012.272.178.456.31-.682.602-1.39.24-2.057.227zm-31.42 27.515c.805-.217 1.544-.386 2.317.07-.685.48-1.398.327-2.102.223-.067-.008-.115-.152-.214-.293zm18.763-13.232c-.18-.683-.014-1.135.255-1.56.045-.07.217-.15.254-.124.1.075.21.2.218.312.032.565-.407.856-.727 1.372zm-8.454-1.866c-.38-.554-.333-1.085-.2-1.623.45.102.625.238.56.497-.096.38-.238.75-.36 1.125zm26.073-2.024c.6-.652 1.395-.586 2.32-.87-.415.497-.814.55-1.148.675-.347.13-.686.442-1.172.195zm-24.725-35.582c.27-.664.832-.976 1.527-1.29-.035.2-.02.33-.074.38-.417.386-.855.755-1.452.91zm40.71 46.385c-.413-.257-.827-.515-1.243-.77.59-.415.848-.29 1.242.77zm-12.056-8.145c.56-.58 1.232-.288 1.946-.42-.6.57-.6.57-1.946.42zm-29.27-5.394c-.186.51-.406.77-.81.94-.252-.277-.19-.578-.084-.94h.894zm.082-19.647c.043-.32.05-.562.112-.785.06-.2.202-.285.716-.54-.083.618-.13.7-.828 1.325zm4.13 12.975c-.53.758-1.136.99-1.86 1.452.64-.814 1-1.098 1.86-1.452zm16.072-3.394c-.37.377-.766.325-1.18.33.273-.53.475-.71.82-.652.13.022.235.203.36.322zM244.69 133.9c.497-.377.862-.5 1.233-.603.074-.02.262.082.258.106-.02.127-.05.304-.14.354-.35.214-.743.196-1.35.144zm-29.66-35.378c-.233.386-.398.655-.563.93-.423-.27-.486-.428-.275-.645.174-.182.37-.337.837-.285zm30.986-19.317c-.244.46-.543.596-.852.697-.066.02-.215-.062-.25-.134-.038-.08-.03-.26.025-.298.292-.2.61-.37 1.076-.265zm-34.964.427c.323-.137.605-.254.95-.398.113.5-.23.698-.354 1.025-.156-.09-.268-.123-.33-.194-.09-.108-.15-.24-.266-.434zm38.153 42.076c.17-.334.26-.514.384-.76l.628.832c-.368-.025-.6-.042-1.013-.072zm-29.3-6.267c-.28.358-.49.792-1.03.897.202-.54.202-.54 1.03-.896zm32.7 9.048c-.366.452-.812.596-1.35.567.044-.1.054-.138.074-.164.018-.025.047-.06.078-.066.397-.114.796-.224 1.196-.336zm-14.397-10.49c-.092.004-.18.008-.272.01l.275-.02-.002.01zM176.667 126.518c-.808-.035-1.614-.043-2.417-.112-1.02-.09-2.043-.21-3.057-.36-.95-.14-1.844-.47-2.64-1.026-.48-.338-.98-.643-1.454-.99-.44-.324-.928-.63-1.265-1.048-.926-1.146-1.945-2.187-3.057-3.15-.844-.728-1.49-1.583-1.812-2.69-.224-.766-.51-1.55-1.08-2.14-.895-.925-1.332-2.095-1.803-3.24-.443-1.082-.814-2.196-1.188-3.308-.152-.445-.283-.914-.323-1.38-.095-1.096-.116-2.196-.188-3.293-.03-.436-.1-.87-.17-1.302-.07-.433-.19-.86-.242-1.293-.07-.554.2-.84.742-.826.588.014 1.176.02 1.76.075 1.467.14 2.924.073 4.373-.18.397-.068.79-.077 1.195-.087.877-.017 1.76-.076 2.624-.223.438-.072.87-.084 1.306-.11 1.6-.095 3.22.167 4.805-.24.104-.026.22-.01.33-.013 1.242-.062 2.488-.117 3.73-.182 1.17-.057 2.342-.14 3.514-.17.622-.018 1.245.07 1.868.076 1.725.01 3.45-.018 5.174.01 1.72.03 3.436-.11 5.15-.06.73.026 1.46.026 2.19.042.77.016 1.536.062 2.305.05.73-.01 1.04-.373.834-1.056-.174-.584-.184-1.164-.137-1.742.088-1.09-.194-2.102-.54-3.11-.177-.515-.405-1.03-.472-1.563-.114-.914-.385-1.79-.567-2.683-.284-1.382-1.008-2.59-1.514-3.882-1.077-1.525-2.022-3.146-3.323-4.51-.198-.205-.355-.46-.494-.715-.184-.338-.43-.582-.79-.73-.54-.217-1.07-.474-1.62-.68-.352-.13-.64-.33-.94-.544-.808-.564-1.61-1.176-2.5-1.586-.99-.457-2.056-.786-3.12-1.035-1.854-.434-3.7-.903-5.604-1.105-.978-.105-1.946-.346-2.905-.574-.76-.184-1.523-.192-2.293-.17-.182.006-.363.053-.544.053-1.034-.002-2.042.117-3.015.5-.338.134-.717.154-1.064.255-.24.07-.513.14-.69.294-.398.35-.865.557-1.346.735-1.07.402-2.056.956-3.01 1.58-.826.54-1.642 1.103-2.56 1.5-.296.126-.56.343-.818.542-.317.244-.63.504-.922.78-.96.9-2.028 1.69-2.858 2.726-.39.483-.75.994-1.11 1.5-.76 1.076-1.638 2.062-2.327 3.193-1.252 2.058-2.23 4.208-2.653 6.59-.077.436-.167.866-.286 1.29-.432 1.553-.873 3.104-1.323 4.65-.106.36-.143.7-.037 1.074.1.348.154.725.13 1.082-.088 1.316-.195 2.63-.336 3.94-.13 1.222-.103 2.42.367 3.57.24.588.3 1.205.372 1.82.034.292.028.59.086.878.36 1.793.73 3.59 1.11 5.382.06.28.16.57.31.817.408.692.698 1.44 1.074 2.148.376.71.757 1.425 1.21 2.087.62.904 1.156 1.87 1.98 2.63.284.26.488.645.62 1.015.244.672.61 1.246 1.106 1.75.816.832 1.64 1.662 2.47 2.486.13.125.3.204.456.3.59.357 1.188.704 1.77 1.075.77.49 1.45 1.12 2.3 1.49.134.06.296.13.36.242.318.555.884.602 1.413.73.32.077.635.175.942.284.962.343 1.894.8 2.95.79.145-.002.29.05.432.085 1.684.448 3.373.587 5.087.16.28-.067.57-.13.86-.142.987-.047 1.975-.107 2.962-.092 1.393.023 2.678-.43 3.94-.903.925-.352 1.853-.672 2.81-.926.28-.073.562-.17.816-.305.45-.237.865-.545 1.325-.763 1.065-.503 2.037-1.145 2.963-1.868.372-.29.79-.526 1.17-.812.578-.437 1.183-.853 1.71-1.35.955-.898 1.777-1.934 2.698-2.87.076-.08.155-.157.214-.25.788-1.228 1.616-2.434 2.346-3.694.897-1.55 1.58-3.213 2.28-4.86.356-.836.55-1.746.8-2.627.084-.307-.062-.612-.337-.734-.366-.166-.733-.338-1.118-.445-.427-.116-.934-.226-1.257.126-.513.55-1.183 1.006-1.306 1.852-.065.447-.335.81-.654 1.123-.47.462-.978.888-1.41 1.38-.968 1.105-1.925 2.214-2.83 3.367-.907 1.146-1.975 2.044-3.348 2.583-.505.196-.974.498-1.446.772-.823.475-1.602 1.03-2.552 1.254-.316.074-.61.248-.93.334-.74.2-1.49.53-2.232.523-1.172 0-2.336.195-3.51.165zm-19.79-32.52c-.31-.306-.27-.64-.244-.97.028-.364.083-.726.1-1.09.092-1.892.754-3.588 1.843-5.103.834-1.155 1.778-2.233 2.68-3.34.115-.143.26-.26.4-.38 1.024-.88 2.12-1.677 3.274-2.364 1.754-1.046 3.678-1.425 5.71-1.107.405.062.79.058 1.195.013 1.03-.11 2.042-.066 3.02.37.6.27 1.237.454 1.87.647.578.177 1.04.53 1.48.922.353.312.704.634 1.055.95.188.173.39.333.563.52.71.767 1.62 1.386 1.88 2.493.964.992 1.213 2.314 1.637 3.557.06.172.1.358.102.538.015 1.062.03 2.124.016 3.185-.005.375-.16.53-.54.563-.437.04-.878.063-1.313.038-.52-.028-1.02-.026-1.516.16-.63.237-1.282.262-1.952.215-.834-.058-1.674-.13-2.506-.146-1.056-.02-2.113.168-3.17.27-.982.1-1.964.21-2.945.298-.215.02-.436-.06-.652-.064-.438-.01-.885-.064-1.31.003-1.245.195-2.485.225-3.722-.018-1.023-.2-2.053-.113-3.07-.035-.916.066-1.816.133-2.73-.04-.392-.073-.8-.06-1.157-.082zm26.77-13.232c-.19.128-.32.267-.477.313-.586.185-1.18.345-1.776.503-.133.035-.29.058-.42.025-.434-.107-.976-.64-1.27-1.208.053-.04.114-.12.157-.112.723.13 1.438.072 2.157-.026.587-.084 1.148-.014 1.63.504zm-29.626 40.064c.36-1.146.763-2.308 1.577-3.295.38.467.555 1.146.305 1.508-.455.656-.976 1.27-1.485 1.893-.1.116-.265.095-.396-.106zm-3.427-9.28c-.007-.11-.053-.232-.013-.31.613-1.157 1.232-2.31 1.87-3.452.08-.146.27-.23.4-.334.437.2.427.53.288.842-.145.328-.35.642-.568.93-.572.75-1.168 1.486-1.76 2.227-.04.047-.12.056-.217.097zm40.88-24.27c-1.297.873-3.02 1.583-4.216 1.773.643-.76 2.695-1.655 4.216-1.773zm-1.657 2.893c.166-.137.312-.307.5-.402.736-.39 1.486-.757 2.232-1.127.062-.03.148-.062.21-.043.1.028.224.075.27.155.05.078.03.207.006.307-.017.062-.085.118-.144.158-.91.63-1.94.94-3.074.953zm-36.054 27.478c-.37.938-.51 1.953-1.1 2.79-.682-.48-.742-.737-.352-1.313.39-.572.892-1.038 1.452-1.476zm25.066 13.46c.092.603-.123 1.105-.428 1.544-.24.344-.67.374-1.096.387-.035-.14-.104-.255-.072-.33.185-.44 1.006-1.257 1.596-1.6zm13.676-37.338c.373-.528.876-.815 1.48-.964.286.342.25.648.1.957-.046.09-.136.176-.228.225-.342.18-.83.1-1.352-.218zm-4.93-7.594c.082-.323.365-.453.628-.534.622-.19 1.24-.45 2.016-.322-.11.146-.163.278-.26.332-.678.39-1.437.52-2.192.645-.05.006-.114-.07-.192-.122zm-21.39 42.97c.344-.98.95-1.445 1.49-1.96.053-.052.225-.038.295.013.063.044.12.224.082.27-.49.593-.913 1.264-1.868 1.677zm25.57-7.367c-.04.79-.322 1.324-.77 1.792-.63-.37-.703-.658-.268-1.023.3-.254.625-.467 1.038-.77zm-5.304-37.415c.058-.134.067-.238.116-.26.863-.396 1.814-.3 2.76-.42-.135.1-.26.256-.41.29-.798.187-1.604.375-2.466.39zm5.554 7.112c.09-.1.16-.24.273-.297.384-.2.785-.374 1.18-.554.186-.084.36-.06.48.11.107.156-.027.42-.27.507-.507.178-1.028.31-1.663.234zM172.96 75.394c-.4.738-.897.955-1.483 1.064-.078-.793.004-.967.56-1.06.236-.04.492-.004.922-.004zm-19.093 35.717c0 .272.076.52-.014.663-.346.543-.774 1.02-1.334 1.486-.163-.45.118-.69.273-.912.296-.418.425-.994 1.074-1.237zm25.627-15.435c-.61.623-1.326.95-2.22.87.003-.142-.01-.255.013-.265.697-.27 1.31-.812 2.132-.688.023.027.05.054.074.083zm-2.894-.597c-.777.334-1.29.838-2.07.74.627-.885.975-1.03 2.07-.74zm2.67 32.59c.038.397-.126.62-.362.802-.19.148-.52.095-.672-.104-.14-.177-.055-.523.168-.654.26-.152.535-.175.867-.043zm-16.106-3.606c-.268.007-.47-.146-.454-.35.02-.274.226-.52.447-.537.306-.02.63.257.59.505-.036.21-.287.375-.583.382zm-8.505-10.11c-.42.878-.518.993-1.305 1.648.25-.75.5-1.085 1.304-1.65zm19.244 19.25c.04.562-.084.913-.39 1.187-.085.075-.282.108-.387.063-.164-.072-.12-.25-.022-.365.226-.27.47-.525.8-.885zm-5.68 1.108c.155-.627.436-.922.83-1.19-.057.65-.057.65-.83 1.19zm2.366-4.818c-.076-.07-.168-.125-.158-.148.062-.198.12-.404.226-.584.163-.274.505-.39.603-.225.148.25-.073.383-.207.526-.144.154-.31.288-.463.432zm-5.464 2.784c-.046.446-.207.702-.612.843.16-.45.155-.453.612-.844zm14.293-36.683c.066-.067.13-.148.208-.196.04-.022.115.007.177.013-.037.076-.062.168-.117.223-.04.04-.127.03-.192.043l-.077-.083zM195.988 94.565l-.12.112c-.022-.062-.056-.124-.063-.186-.003-.022.047-.052.072-.077.038.05.074.1.11.152zM266.81 80.893c.393.022.677.047.962.05 1.47.014 2.942-.035 4.408.167.63.09.883.283.987.925.024.14.03.285.04.43.034.643.06 1.283.098 1.928.057.967.14 1.934.17 2.9.05 1.58.05 3.16.098 4.738.023.718.043 1.45.188 2.147.408 1.938.174 3.86-.023 5.79-.12 1.176-.236 2.364-.198 3.54.068 2.123.14 4.236-.1 6.353-.067.604-.105 1.222-.072 1.827.053.967.18 1.928.267 2.893.02.213 0 .43-.007.646-.06 1.506-.137 3.012-.175 4.52-.03 1.222-.032 2.444-.015 3.667.008.608.063 1.22.138 1.825.177 1.466.55 2.892.946 4.308.23.826.562 1.627.908 2.416.15.35.387.77.697.916.486.226.784.61 1.164.928.835.697 1.717 1.326 2.88 1.29.59-.015 1.123.174 1.664.374.503.188 1.016.375 1.54.47 1.105.204 2.224.067 3.336.075.14 0 .293-.02.42-.075 1.028-.442 2.11-.692 3.198-.916.174-.035.354-.097.5-.19.777-.515 1.568-1.017 2.313-1.578.655-.494 1.197-1.133 2.005-1.43.287-.105.514-.387.764-.593.223-.18.428-.386.666-.543.47-.308.802-.72 1-1.235.16-.41.394-.76.706-1.072.75-.743 1.16-1.705 1.604-2.64.136-.284.07-.583-.16-.796-.4-.37-.867-.652-1.424-.695-.186-.016-.397.112-.57.22-.11.07-.178.222-.254.343-.553.87-1.37 1.395-2.35 1.576-.87.16-1.614.544-2.375.954-.465.254-1.006.36-1.514.533-.95-.178-1.935-.21-2.827-.644-.686-.333-1.167-.873-1.36-1.59-.126-.472-.32-.86-.644-1.212-.376-.408-.59-.9-.644-1.455-.113-1.144-.255-2.287-.318-3.433-.092-1.58-.155-3.16-.172-4.742-.014-1.437.012-2.875.1-4.31.072-1.184.145-2.362.113-3.552-.03-1.04-.11-2.1.032-3.12.127-.903.04-1.765.002-2.65-.068-1.65-.086-3.307.11-4.956.036-.315.015-.646-.004-.97-.04-.747-.103-1.5-.146-2.25-.088-1.583.166-3.155.107-4.74-.047-1.325.026-2.657.063-3.986.027-.933.076-1.864.13-2.794.01-.174.087-.34.14-.53.598-.045 1.148-.075 1.727.067.514.128 1.066-.257 1.604-.238.394.015.8-.062 1.18.01.822.152 1.64.146 2.468.128.79-.015 1.57.045 2.363-.058.447-.056.567-.052 1.03-.085.662-.045.963-.43 1.085-1.008.155-.738.22-1.49.135-2.25-.068-.617-.35-.853-1.005-.86l-3.307-.023c-.216-.002-.433-.002-.646-.025-1.894-.203-3.785-.08-5.69-.094-.072 0-.147-.002-.218-.01-.23-.024-.42-.125-.495-.354-.166-.51-.38-.998-.38-1.562.007-1.474-.038-2.95-.032-4.424.002-.758-.066-1.502-.157-2.254-.104-.88-.237-1.754.058-2.664.213-.664.246-1.43.172-2.13-.088-.83-.047-1.65-.072-2.475-.012-.395-.01-.795-.092-1.177-.037-.175-.23-.362-.402-.45-.182-.09-.418-.09-.63-.086-.575.017-1.147.083-1.724.082-1.15-.003-1.115.008-1.523 1.1-.114.3-.163.625-.232.94-.1.455-.204.91-.288 1.37-.113.6-.23 1.2-.305 1.803-.043.367-.12.695-.34 1-.67.935-1.227 1.95-2.077 2.75-.233.22-.405.503-.612.75-.393.468-.775.946-1.19 1.394-.827.897-1.724 1.728-2.408 2.75-.176.263-.442.466-.674.69-.208.2-.468.363-.62.596-.29.434-.69.738-1.1 1.02-1.664 1.148-3.084 2.583-4.627 3.874-.31.258-.397.604-.353.97.033.273.155.538.262.883zm10.896 20.474c.328-.49.84-.755 1.32-1.047.513-.31 1.06-.566 1.604-.824.106-.052.304-.05.386.018.084.068.107.25.102.378-.016.28-.21.44-.454.538-.76.305-1.52.61-2.284.896-.193.07-.416.064-.624.096l-.05-.055zm6.915-27.203c-.077-1.033-.845-2.027-.145-3.09.414.875.498 2.157.146 3.09zm-.92 26.7c.065.953.127 1.694.16 2.435.007.104-.12.216-.243.417-.102-.217-.22-.348-.203-.455.088-.506.038-.963-.227-1.418-.088-.15-.016-.42.04-.62.033-.098.194-.155.472-.36zm.54 24.24c.342.396.605.67.834.974.11.15.1.36-.08.46-.14.074-.385.15-.473.085-.182-.144-.312-.367-.425-.58-.124-.243-.106-.26.146-.938zm-4.45 1.856c.556-.742 1.388-.832 2.177-1.203 0 .195.05.365-.008.42-.55.52-1.248.772-2.17.783zm.192-15.234c.145.207.12.44-.07.56-.564.343-1.167.597-1.926.597.397-.368 1.502-1 1.996-1.157zm-.252-15.53c-.357.953-1.12.984-1.77 1.334.215-.564.63-.877 1.77-1.333zm-1.36 34.544c.218-.57.712-.748 1.176-.945.132-.06.308-.01.478-.01-.028.13-.022.23-.062.254-.49.32-1.054.467-1.592.7zm12.228-.093c.297-.468.68-.526 1.188-.4-.505.562-.505.562-1.188.4zm-6.74-39.903c-.327.34-.28-1.643.08-2.52.417.697.642 1.352-.08 2.52zm-8.504 17.898c.107.046.242.064.32.143.24.242.31.524.06.805-.07.08-.236.172-.307.14-.35-.153-.31-.472-.245-.77.024-.115.112-.212.172-.318zm.14 6.108c-.055-.416-.174-.888-.153-1.277.026-.56.154-1.057.24-1.58.367-.492.337.803.352 1.26.014.463-.166 1.006-.27 1.484-.02.096-.094.066-.167.113zm9.186-51.253c.018.088.047.162.05.265.026.592.003 1.21-.19 1.565-.068.122-.227-.01-.252-.206-.072-.568.013-1.134.206-1.5.05-.107.12-.086.186-.123zm-9.638 20.358c.015.316.093.328.062 1.48-.024.968.056 1.61-.28 1.393.048-.973-.18-1.962 0-2.878.117-.37.345-.153.218.005zm7.82-22.475c.067-.312.016-.506.185-.654.09-.077.568-.07.87-.102.005.126.112.277-.01.373-.15.117-.49.188-1.046.383zm-5.108 40.04c-.064.058-.125.133-.2.167-.038.015-.108-.05-.163-.075.044-.04.078-.1.128-.12.058-.023.127-.02.188-.025l.048.054zM124.668 84.12c-.367-.36-.417-.735-.36-1.092.096-.627.05-1.235-.058-1.856-.067-.394-.104-.813-.04-1.205.105-.623.037-1.24.034-1.858-.003-.984-.208-1.975.082-2.953.08-.273-.08-.525-.33-.632-.263-.11-.558-.174-.844-.196-.583-.05-1.172-.055-1.757-.087-.477-.03-.94-.053-1.398.172-.214.105-.5.11-.75.098-1.57-.09-3.136-.27-4.712-.09-.287.03-.585-.02-.878-.02-.326 0-.654.004-.978.032-.656.062-1.31.177-1.964.195-.657.02-1.315-.062-1.974-.076-1.065-.02-2.133.033-3.19-.043-.89-.062-1.753-.015-2.62.17-.49.104-.667.22-.698.694-.056.842-.07 1.686-.058 2.526.007.493.276.714.772.737 1.07.057 2.103-.14 3.126-.44 1.066-.307 2.083-.284 3.023.437.276.213.65.332.998.408.71.154 1.18.582 1.463 1.213.24.537.398 1.095.36 1.707-.037.62-.077 1.258.02 1.865.178 1.143.108 2.266-.048 3.396-.06.44-.028.866.106 1.3.228.738.354 1.5.355 2.275.002 1.02.006 2.043.013 3.062.005.732-.062 1.475.04 2.193.19 1.322.076 2.63-.062 3.938-.033.33-.07.66-.07.99 0 1.647.02 3.298.006 4.948-.004.445.042.867.167 1.297.338 1.168.526 2.354.34 3.574-.044.286-.06.59-.02.874.154 1.104-.052 2.187-.152 3.277-.124 1.35-.208 2.703-.26 4.058-.027.73.06 1.46.08 2.193.044 1.69-.07 3.368-.438 5.024-.048.214-.136.434-.12.646.072 1.08-.34 1.99-.912 2.87-.357.548-.792.952-1.397 1.185-.824.316-1.656.6-2.544.67-.548.042-1.095.097-1.64.15-.467.047-.667.21-.73.67-.07.508-.147 1.016-.006 1.528.213.77.5.96 1.27.79.18-.038.367-.062.532-.134.67-.287 1.36-.25 2.057-.152 1.09.15 2.183.23 3.286.162.692-.044 1.392.025 2.088.008.915-.025 1.83-.092 2.743-.143.514-.03 1.025-.086 1.537-.092 2.124-.02 4.245.152 6.37.035.18-.01.366.004.55.015 1.2.067 2.4.175 3.602.198 1.356.03 2.715-.018 4.073-.03.256-.003.513-.01.77-.014.253-.004.443-.144.496-.36.102-.425.205-.86.2-1.29-.007-.436-.148-.863-.226-1.295-.065-.36-.248-.626-.625-.673-.51-.06-1.023-.137-1.53-.115-.817.033-1.602.018-2.362-.352-.358-.172-.78-.205-1.16-.336-.273-.094-.57-.197-.776-.387-.49-.45-1.025-.826-1.617-1.13-.42-.215-.658-.544-.73-1.026-.09-.614-.21-1.228-.362-1.833-.19-.754-.27-1.517-.24-2.29.094-2.27.003-4.54.01-6.81 0-.148-.007-.296-.03-.44-.246-1.665-.502-3.33-.745-4.995-.03-.213-.017-.438.015-.653.2-1.39.188-2.773.062-4.168-.064-.727-.086-1.465-.042-2.19.063-1.062.228-2.114.305-3.175.072-.984.116-1.977.114-2.963-.002-1.318-.06-2.64-.095-3.957-.018-.678.112-1.312.54-1.863.227-.287.41-.61.65-.886.806-.9 1.66-1.757 2.434-2.683 1.056-1.26 2.404-2.14 3.75-3.03.723-.48 1.476-.62 2.265-.122.248.158.543.238.78.407 1.085.772 2.27 1.327 3.55 1.688.175.05.35.11.514.19.87.428 1.757.644 2.75.474.898-.156 1.827-.164 2.587-.77.56-.098 1.003-.438 1.47-.72 1.156-.702 1.952-1.646 2.034-3.065.012-.182.08-.355.122-.535.175-.762.195-1.523 0-2.287-.188-.744-.39-1.486-.56-2.236-.228-1.02-.783-1.796-1.653-2.362-.617-.402-1.28-.7-1.948-1.006-.65-.3-1.313-.448-2.016-.48-1.735-.083-3.44.143-5.12.55-.32.077-.65.165-.934.324-1.18.662-2.387 1.298-3.416 2.187-1.72 1.48-3.395 3.01-5.11 4.498-.69.6-1.326 1.274-2.208 1.7zm-3.132-6.473c-.173.4-.196.604-.31.698-.31.248-.64.486-.994.667-1.065.55-2.142 1.075-3.224 1.593-.133.062-.323.01-.605.01.164-.242.23-.44.36-.52 1.456-.87 2.863-1.842 4.773-2.448zm-4.526 31.98c-.175-.236-.006-.382.096-.51.557-.722 2.77-2.626 3.455-2.99.35.78.296 1.057-.34 1.458-.68.432-1.378.834-2.06 1.263-.39.247-.766.517-1.15.78zm.88-4.545c.624-1.062 1.634-1.435 2.438-2.074.298.54.324.77.02.978-.713.482-1.462.906-2.46 1.096zm.98 24.376c.91-.365 1.72-.838 2.632-1.07.157-.04.348.003.506.06.07.02.136.173.134.263-.003.09-.08.2-.155.253-.084.058-.204.08-.31.082-.425.006-.75.207-1.077.465-.498.388-.977.365-1.73-.052zm2.198-42.04c-.008.048-.005.073-.016.08-.055.05-.108.103-.172.134-.614.31-1.23.613-1.86.896.206-.194.408-.41.666-.512.348-.138.646-.345.956-.537.125-.08.247-.168.426-.063zm-3.652 6.804c.5-.533 2.715-2.032 3.362-2.282.023.103.088.27.06.288-1.09.654-2.02 1.56-3.216 2.05-.026.007-.066-.02-.206-.056zm-.38 23.455c.27 1.093.335 1.94.098 2.8-.024.085-.13.196-.21.208-.17.03-.267-.107-.268-.26-.008-.857-.1-1.726.38-2.748zm20.868-37.543c.178-.604.768-.613 1.176-.862.365-.222.768-.284 1.347-.155-.766.54-1.46.88-2.205 1.12-.08.025-.195-.062-.318-.103zm-19.352 46.433c.54-.19.97.015 1.394.194.167.07.246.397.174.577-.073.18-.335.314-.543.242-.49-.168-.842-.48-1.025-1.013zm-3.673-16.862c-.21-.353-.223-.636-.06-.896.34-.546.887-.792 1.518-1.015-.41.82-.888 1.447-1.46 1.91zm22.597-25.436c.655-.228 1.188-.026 1.756.206-.055.393-.348.554-.66.576-.53.037-.836-.306-1.096-.783zm3.207 2.563h1.614c-.144.162-.208.304-.3.326-.452.11-.912.187-1.314-.327zM64.328 95.45c-.044-.503-.098-1.05-.327-1.48-.534-1.01-.66-2.146-1.074-3.19-.35-.895-.793-1.697-1.292-2.5-.576-.93-1.557-1.54-1.994-2.576-.05-.115-.226-.176-.332-.272-.507-.466-1.05-.9-1.507-1.414-.464-.522-.958-.98-1.558-1.343-.276-.168-.572-.358-.754-.613-.393-.555-.924-.92-1.474-1.277-.21-.138-.398-.31-.603-.46-.32-.235-.624-.504-.972-.687-1.032-.533-2.086-1.025-3.124-1.547-.323-.158-.626-.358-.942-.536-.284-.157-.562-.332-.86-.454-.605-.25-1.224-.46-1.833-.703-.61-.242-1.233-.396-1.893-.48-.823-.102-1.63-.33-2.474-.286-.105.005-.216-.032-.32-.06-.74-.177-1.475-.398-2.224-.525-1.5-.256-2.96-.773-4.512-.703-.07.002-.14-.037-.212-.043-.505-.052-1.01-.105-1.514-.147-.29-.02-.585.002-.87-.046-1.797-.304-3.603-.418-5.428-.345-1.63.066-3.27.15-4.896.062-1.127-.062-2.25-.067-3.377-.065-1.378.003-2.76-.052-4.136.145-.35.053-.72-.007-1.083-.03-.467-.03-.936-.083-1.404-.114-.47-.03-.94-.046-1.41-.08-.29-.023-.577-.097-.867-.103-1.38-.02-2.76-.03-4.14-.04-.183-.007-.384.028-.54-.037-.895-.373-1.795-.11-2.694-.055-.404.023-.67.312-.676.71-.005.468-.02.947.058 1.404.135.79.222 1.17 1.288 1.34.91.145 1.81.02 2.704-.02.854-.04 1.576.244 2.286.572.405.188.795.557 1.025.943.577.973.99 1.988.796 3.205-.188 1.18-.202 2.395.194 3.56.124.366.114.693-.02 1.058-.083.223-.097.523-.016.742.16.427.138.856.144 1.29.014 1.2-.026 2.405.047 3.603.117 1.89.126 3.78.127 5.673 0 .834.103 1.674.02 2.497-.093.91-.087 1.812-.104 2.722-.01.618-.056.53-.14 1.14-.168 1.192-.205 2.392-.177 3.588.02.876.08 1.745-.073 2.612-.024.14-.073.305-.03.43.25.725.04 1.436-.02 2.154-.023.28-.023.583.05.855.24.89.22 1.798.22 2.703-.002.65-.007 1.306.015 1.958.055 1.672.068 3.346-.34 4.98-.258 1.026-.306 2.08-.49 3.116-.153.854-.266 1.723-.386 2.586-.045.312-.178.563-.463.692-1.29.585-2.572 1.155-4.065.972-.71-.088-1.462-.072-2.165.06-.77.145-1.48.56-1.328 1.667.065.467.055.94.08 1.413.032.613.25.894.832.935 1.05.076 2.104.116 3.157.16.18.007.36-.05.54-.065.615-.062 1.246-.238 1.838-.152.787.12 1.61-.03 2.37.297.16.07.357.088.536.085.834-.012 1.667-.03 2.5-.06 1.6-.06 3.19-.112 4.787.14.773.125 1.59-.01 2.387-.05.433-.023.862-.12 1.295-.13 1.96-.04 3.92-.066 5.882.04.608.03 1.227-.085 1.84-.136.363-.027.73-.11 1.084-.076.663.063 1.314.008 1.954-.12.89-.18 1.825 0 2.69-.355.063-.024.144-.004.217-.007 1.085-.055 2.17-.106 3.255-.16.654-.032 1.314-.02 1.96-.102.942-.12 1.88-.2 2.827-.147.325.016.667.014.975-.07.663-.182 1.334-.37 1.957-.652 1.053-.48 2.153-.844 3.195-1.352.55-.27 1.158-.423 1.746-.61.66-.208 1.317-.415 1.89-.827.44-.314.902-.603 1.342-.92.674-.49 1.352-.98 2.002-1.5.822-.66 1.575-1.388 2.208-2.25.535-.728 1.067-1.456 1.75-2.08 1.04-.945 1.758-2.118 2.075-3.517.178-.78.336-1.57.597-2.32.484-1.406 1.032-2.793 1.56-4.183.526-1.383.785-2.793.533-4.276-.06-.35-.046-.723-.024-1.08.094-1.562.236-3.12.298-4.682.078-1.957.094-3.213.136-5.172h.043c-.046-.948-.067-1.893-.152-2.83zm-45.55-13.59c-.063.322-.352.45-.617.563-1.026.443-2.03.943-3.166 1.246.363-.656 2.224-2.163 3.553-2.886.32.356.298.72.23 1.075zm-6.23-1.61c.487-.286.995-.534 1.64-.523-.044.144-.043.27-.104.313-.366.287-.74.562-1.123.82-.076.055-.226.07-.302.03-.116-.062-.254-.177-.275-.292-.02-.104.07-.29.164-.347zm1.11 10.512c.59-.247 1.044-.77 1.768-.798l-1.78 1.863c-.39-.015-.658-.17-.92-.375.264-.33.578-.544.93-.69zm-3.082-9.098c.512.975.47 1.803.498 2.61.003.097-.157.196-.336.406-.623-1.036-.328-1.91-.162-3.016zm2.642 47.21c-.114.204-.257.354-.522.353-.373 0-.545-.21-.368-.52.343-.604.636-1.226 1.15-1.734.593-.59 1.07-1.288 1.456-2.04.087-.172.2-.33.382-.626.008.225.036.313.01.38-.384.962-.82 1.898-1.334 2.798-.266.456-.515.925-.774 1.39zm3.145 1.626c-.252.152-.64.324-.87.233-.445-.175-.254-.632-.184-.987.028-.146.14-.277.29-.553.295.088.515.114.695.213.567.312.605.767.068 1.094zm1.152-42.772c-.49-.06-.964-.115-1.524-.184.536-.442 1.117-.732 1.793-1.125-.054.533.036.95-.268 1.308zm.95-3.21c-.094.137-.258.262-.416.31-.654.202-1.317.375-1.976.557.597-.598 1.308-1.02 2.085-1.324.075-.03.254.017.28.073.052.113.085.3.025.386zm1.645 28.02c-.03.143-.166.27-.273.386-.038.043-.135.063-.198.055-.192-.034-.38-.085-.582-.133 0-.356.07-.668.348-.882.208-.16.423-.344.743-.23.05.274.01.544-.04.802zm35.33-17.742c-.18.58-.663.71-1.072.947-.36-.665-.115-.876 1.073-.947zm-3.07-11.394c.2-.037.346.034.376.268-.133.207-.38.24-.577.27-.733.102-1.384.543-2.246.545.142-.146.2-.24.288-.29.676-.38 1.396-.65 2.16-.793zm-1.685-1.842c-.463.504-1.042.665-2.714.757.616-.437 1.812-.77 2.715-.757zm-17.907-6.164c.54-.02 1.083-.037 1.623-.023.123.004.24.12.42.22-.79.522-1.477.348-2.2.006.08-.11.117-.203.158-.204zm16.653 54.5c.883-.48 1.725-.997 2.764-1.535-.55.93-1.572 1.473-2.763 1.536zm.588-8.184c.024-.125.115-.234.236-.47.24.074.42.1.566.183.462.267.493.65.055.928-.206.132-.52.277-.707.2-.363-.15-.208-.54-.15-.84zm2.63-10.16c-.18 2.173-.906 4.18-1.805 6.14-.212.46-.37.946-.53 1.43-.116.354-.283.675-.594.89-.735.51-1.117 1.255-1.298 2.082-.172.787-.557 1.414-1.125 1.95-.66.622-1.33 1.234-2 1.85-.843.78-1.926 1.16-2.892 1.733-.28.168-.585.29-.875.447-.677.358-1.376.625-2.157.707-.608.063-1.196.3-1.802.407-1.212.214-2.34.78-3.597.827-.685.024-1.38-.076-2.055.15-.126.042-.29.003-.43-.027-.546-.12-1.082-.1-1.62.056-.208.06-.43.07-.65.075-1.016.02-2.036.078-3.053.04-.758-.03-1.515-.17-2.266-.3-.356-.063-.69-.196-1.07-.116-.3.062-.49-.154-.567-.4-.073-.236-.085-.502-.08-.753.027-1.02-.133-2.027-.168-3.04-.052-1.522-.155-3.046.11-4.57.128-.745.036-1.525.055-2.288.01-.398.046-.795.062-1.192.012-.25.014-.502.01-.753-.02-.688-.084-1.383-.052-2.066.056-1.196.107-2.393-.034-3.585-.034-.29-.052-.588-.146-.857-.313-.914-.316-1.856-.313-2.803 0-1.31.015-2.62-.01-3.93-.025-1.162-.107-1.617-.143-2.78-.016-.546-.002-1.09.03-1.637.074-1.194.168-2.39.253-3.585.005-.072.033-.146.025-.218-.17-1.668-.007-3.338-.023-5.007-.004-.29.02-.58.035-.87.027-.58.058-1.16.085-1.74.01-.217-.03-.446.022-.65.348-1.343.13-2.673-.03-4.007-.13-1.09-.11-2.18.073-3.39.428-.125.8-.3 1.186-.33.47-.038.924-.13 1.385-.206.677-.106 1.37-.12 2.042-.285.07-.017.15-.018.22-.003 1.626.368 3.345.126 4.936.744 1.234.05 2.378.65 3.64.578.427-.02.852.105 1.266.285.423.185.894.295 1.355.35.413.05.763.157 1.11.39.39.264.823.464 1.25.667.753.36 1.52.694 2.273 1.056.23.108.466.233.64.41.364.366.778.647 1.22.903.212.12.398.31.55.51.356.458.673.946 1.028 1.407.22.287.465.557.726.807.658.627 1.334 1.232 1.995 1.857.377.355.643.77.746 1.298.096.498.277.98.423 1.467.03.104.037.23.102.31.672.802.698 1.908 1.292 2.744.406 1.462 1.03 2.86 1.042 4.43.006.793.202 1.588.354 2.37.11.576.102 1.132.05 1.722-.085.97-.028 1.25-.01 2.228.027 1.27.12 2.546.096 3.813-.016.75-.232 1.503-.294 2.26zm-.043-25.71c.634-.474 1.13-.767 1.928-.74-.596.503-1.1.778-1.928.74zm2.567 30.357c-.115.453-.49.694-1.064.65.082-.466.29-.798.78-.9.124-.03.313.135.284.25zm-.16-2.234c-.254.154-.64.324-.87.234-.446-.175-.255-.633-.185-.988.03-.146.14-.275.29-.55.296.085.515.11.696.212.568.314.606.767.07 1.092zm-.758-3.57c.205.175.324.23.367.324.14.29.114.324-.305.52l-.06-.844zm.275-11.604c-.096.062-.295-.043-.447-.07.07-.143.107-.355.22-.408.444-.216.853-.562 1.633-.537-.584.43-.98.747-1.407 1.015zm6.438-10.104c.493.59.42 1.224.528 1.804-.612-.446-.745-1.015-.528-1.804zm-2.614.302c-.42.545-.42.545-1.433.707.397-.487.834-.634 1.434-.707zm-.906 3.166c.292-.47.662-.638.935-.902.157-.153.336-.29.523-.4.204-.124.417-.143.576.087.177.257.157.56-.054.712-.558.394-1.19.47-1.98.504zm1.13 2.547c.976-1.16.976-1.16 2.152-1.51.057.14.188.305.158.43-.044.19-.162.44-.32.515-.584.274-1.155.647-1.99.565zm2.968 1.03c.027.353.107.567.04.636-.428.438-.97.647-1.708.768.413-.745 1.08-.867 1.668-1.406zm-1.58 9.375c.326-.403.652-.612 1.04-.726.062-.02.202.048.22.1.035.105.056.27 0 .34-.32.394-.737.366-1.26.286zm1.888-6.43c-.35.302-.72.608-1.357.58.342-.564.812-.757 1.358-1.11.003.268.065.47 0 .53zM70.22 86.36c-.2.743.032 1.472.034 2.198 0 .463.208.633.706.65.952.035 1.905.076 2.855.05.343-.01.65.034.966.13.245.074.49.148.74.213 1.1.288 1.895 1.032 2.382 1.978.37.72.32 1.625.63 2.402-.22.867-.05 1.758-.147 2.622-.212 1.877.085 3.737.048 5.604-.02 1.024.09 2.05.114 3.076.025.988-.03 1.98.167 2.957.078.392.07.802.077 1.204.03 1.797.043 3.592.07 5.39.027 1.65-.066 3.292-.226 4.935-.078.8-.13 1.608-.128 2.414.002 1.427.003 2.856.105 4.278.06.8-.24 1.334-.815 1.8-.6.483-1.183.987-1.79 1.463-.344.27-.707.526-1.085.75-.58.337-1.207.51-1.895.412-.25-.034-.514-.022-.76.02-.903.155-1.8.34-2.7.503-.366.064-.602.268-.71.606-.09.274-.19.56-.208.843-.09 1.502.23 1.865 1.734 1.798 1.058-.05 2.12-.105 3.172-.186 1.286-.098 2.562-.11 3.843-.03.438.024.88.02 1.32.013.623-.017 1.244-.07 1.867-.074 2.128-.01 4.256-.005 6.384-.01.293 0 .587-.008.88-.01 1.428-.012 2.86-.16 4.278.136.176.037.366.016.55.018 1.794.025 3.59.058 5.387.068.513.004 1.033-.004 1.534-.097.608-.11.896-.515.8-1.108-.08-.502-.22-1-.4-1.476-.182-.488-.557-.742-1.116-.695-.85.07-1.68-.066-2.508-.254-.643-.145-1.295-.25-1.94-.393-.283-.063-.578-.136-.828-.274-.844-.48-1.544-1.12-2.015-1.98-.122-.22-.213-.467-.252-.715-.23-1.48-.594-2.957-.26-4.475.04-.175-.007-.363-.004-.547l.056-3.734c0-.037.008-.072.013-.108.285-1.744.22-3.51.248-5.26.06-4 .105-8-.205-11.99-.015-.183-.03-.372.007-.548.1-.48.043-.944-.025-1.418-.102-.688-.174-1.373-.103-2.075.04-.396-.048-.804-.054-1.205-.01-.77-.014-1.537.003-2.306-.022.975.068.537.103-1.312.033-1.76.052-3.52.065-5.285.002-.29-.02-.587-.087-.87-.105-.44-.31-.585-.782-.616-.33-.022-.66-.03-.99-.042-1.647-.047-3.296-.092-4.945-.133-.11-.002-.218.026-.328.035-.51.045-1.018.115-1.528.13-.807.02-1.615.02-2.422 0-1.795-.034-3.596.11-5.39-.124-.288-.037-.586-.015-.88.002-.656.035-1.314.084-1.97.13-.584.04-1.163.107-1.635.522zm5.672-9.55c.106.432.12.992.37 1.408.71 1.19 1.37 2.47 2.898 2.84.14.038.266.126.39.2.48.294 1.007.437 1.563.493.984.105 1.966.23 2.952.32.285.026.585 0 .866-.06 1.337-.288 2.564-.89 3.764-1.5 1.785-.912 2.785-2.44 3.035-4.438.02-.18.006-.37-.028-.547-.214-1.087-.51-2.14-1.244-3.018-.233-.28-.404-.615-.646-.89-.314-.35-.637-.714-1.017-.99-1.108-.794-2.37-1.306-3.642-1.763-1.15-.412-2.305-.33-3.42.207-.394.19-.804.353-1.216.505-.848.31-1.55.816-2.136 1.5-.454.527-.915 1.05-1.39 1.56-.254.274-.475.57-.542.938-.19 1.052-.36 2.1-.556 3.236zm8.734 28.342c-.458.818-2.15 2.512-2.76 2.883-.264-.53-.27-.824-.01-1.173.088-.116.19-.225.305-.315.75-.58 1.61-.977 2.466-1.395zm.636 11.038c.03-.144.02-.24.062-.272.644-.488 1.388-.765 2.16-.963.22-.057.44.004.522.266.083.265-.013.546-.22.668-.032.02-.063.046-.096.052-.797.145-1.587.386-2.428.25zm-.724 5.768c.81-.27 1.57-.7 2.433-.795.09-.01.19.076.285.12-.055.117-.083.312-.167.34-.41.138-.83.27-1.254.322-.425.055-.864.013-1.296.013zm-.443-20.317c-.365.582-.8 1.105-1.345 1.533-.06.047-.226.037-.288-.014-.068-.06-.123-.22-.09-.288.108-.22.22-.474.402-.625.358-.293.765-.523 1.152-.78l.17.174zm-.32-3.458c-.46.4-.914.812-1.387 1.194-.084.067-.27.067-.382.027-.142-.05-.094-.3.084-.45.11-.096.217-.196.343-.264.405-.22.82-.423 1.228-.63.04.042.076.083.114.122zm4.498 11.808c.247.192.15.39-.04.525-.435.314-.92.52-1.486.624.202-.52.63-.83 1.526-1.15zm.215-14.096c-.052.227-.05.408-.134.535-.094.145-.256.25-.403.356-.336.244-.682.477-1.174.816.625-.98.97-1.32 1.712-1.708zm-2.274 32.81c.028.42-.277.44-.48.548-.804.44-.806.438-1.372.435.004-.035-.004-.085.017-.104.046-.05.1-.1.163-.125.547-.25 1.096-.496 1.67-.753zm.932-3.708c-.697.465-1.3.547-1.92.58.5-.427 1.082-.582 1.92-.58zm-5.126-4.142c.355-.226.72-.312 1.256-.157-.497.256-.84.476-1.256.157zm-.86-45.14c.212-.23.27-.334.356-.383 1.758-.978 3.52-1.954 5.28-2.928.122-.065.265-.09.452-.15-.397.575-1.956 1.894-2.98 2.318-.957.405-1.812 1.123-3.107 1.144zm7.07 2.015c.09.518-.127.94-.428 1.29-.28.323-.614.638-.99.84-.803.433-1.686.634-2.75.704.18-.19.25-.3.35-.36.15-.1.318-.184.488-.245 1.23-.43 2.262-1.136 3.09-2.146.037-.045.13-.048.24-.085z"/></svg>