<?xml version="1.0" encoding="utf-8"?>
<!-- Generator: Adobe Illustrator 16.0.0, SVG Export Plug-In . SVG Version: 6.00 Build 0)  -->
<svg version="1.2" baseProfile="tiny" id="Layer_1" xmlns="http://www.w3.org/2000/svg" xmlns:xlink="http://www.w3.org/1999/xlink"
	 x="0px" y="0px" width="300px" height="136.051px" viewBox="0 0 300 136.051" xml:space="preserve">
<g>
	<g>
		<g>
			<path fill="#63A70A" d="M90.286,22.014c-0.071,0.078-0.11,0.147-0.169,0.183c-1.19,0.708-2.484,1.237-3.587,2.095
				c-0.11,0.086-0.266,0.123-0.405,0.158c-1.143,0.287-2.15,0.897-3.207,1.384c-0.567,0.261-1.116,0.516-1.732,0.64
				c-0.385,0.077-0.746,0.278-1.11,0.438c-0.468,0.205-0.91,0.5-1.395,0.622c-0.79,0.196-1.506,0.546-2.235,0.876
				c-0.929,0.421-1.858,0.845-2.785,1.273c-0.164,0.076-0.327,0.167-0.469,0.279c-1.18,0.935-2.547,1.565-3.822,2.342
				c-1.121,0.685-2.197,1.432-3.288,2.158c-0.149,0.099-0.276,0.237-0.408,0.365c-0.441,0.434-0.882,0.87-1.319,1.309
				c-0.309,0.312-0.637,0.607-0.911,0.947c-0.712,0.883-1.408,1.781-2.089,2.688c-0.262,0.349-0.492,0.728-0.693,1.116
				c-0.439,0.844-0.782,1.745-1.286,2.547c-0.894,1.428-1.003,3.037-1.215,4.63c-0.023,0.178,0.016,0.366,0.035,0.548
				c0.151,1.49,0.315,2.616,0.753,4.069c0.367,1.217,0.927,2.316,1.644,3.327c0.479,0.676,1.023,1.319,1.726,1.818
				c0.89,0.632,1.752,1.311,2.574,2.032c0.775,0.681,1.595,1.294,2.53,1.703c1.125,0.493,2.261,1.011,3.534,1.009
				c0.144,0,0.292,0.02,0.432,0.057c0.421,0.114,0.832,0.3,1.259,0.347c0.42,0.046,0.856-0.042,1.286-0.071
				c0.035-0.002,0.072,0.015,0.107,0.015c1.733-0.012,3.397-0.45,5.021-0.976c1.171-0.379,2.367-0.718,3.466-1.326
				c0.415-0.23,0.863-0.406,1.191-0.748c0.594-0.619,1.317-1.053,2.053-1.445c1.04-0.553,1.998-1.199,2.84-2.022
				c0.373-0.363,0.796-0.658,1.292-0.8c0.471-0.134,0.858-0.392,1.236-0.682c0.198-0.153,0.416-0.281,0.659-0.443
				c0.106,0.152,0.229,0.255,0.258,0.38c0.15,0.641,0.287,1.285,0.409,1.934c0.259,1.38,0.751,2.678,1.371,3.928
				c0.159,0.32,0.409,0.598,0.633,0.88c0.801,1.004,2.011,1.425,3.026,2.125c0.245,0.169,0.624,0.154,0.944,0.192
				c0.251,0.029,0.522-0.044,0.758,0.021c1.314,0.366,2.593,0.214,3.835-0.274c1.046-0.413,2.076-0.875,3.102-1.34
				c0.259-0.117,0.506-0.298,0.706-0.501c1.303-1.332,2.641-2.625,4.02-3.875c0.292-0.263,0.542-0.592,0.747-0.928
				c0.284-0.466,0.533-0.958,0.747-1.46c0.094-0.221,0.125-0.509,0.074-0.742c-0.079-0.354-0.232-0.696-0.396-1.022
				c-0.216-0.432-0.584-0.516-1.006-0.274c-0.276,0.159-0.467,0.484-0.841,0.465c-0.363-0.019-0.621,0.172-0.844,0.432
				c-0.258,0.299-0.576,0.413-0.972,0.383c-0.76-0.056-1.523-0.122-2.284-0.111c-1.322,0.017-2.505-1.099-2.649-2.321
				c-0.078-0.653-0.13-1.311-0.184-1.967c-0.05-0.621-0.094-0.889-0.132-1.51c-0.062-1.056-0.312-2.101-0.101-3.173
				c0.068-0.349,0.015-0.736-0.042-1.095c-0.182-1.131-0.235-2.277-0.088-3.398c0.173-1.321,0.129-2.637,0.153-3.955
				c0.02-1.061,0.015-2.124-0.009-3.186c-0.011-0.547-0.168-1.104-0.11-1.639c0.113-1.027,0.089-2.047,0.057-3.072
				c-0.021-0.66-0.013-1.322,0.028-1.981c0.102-1.68,0.232-3.358,0.348-5.036c0.034-0.474,0.052-0.242,0.09-0.715
				c0.046-0.583,0.103-1.165,0.16-1.747c0.054-0.544,0.143-1.088,0.169-1.634c0.061-1.258-0.323-2.459-0.511-3.686
				c-0.021-0.142-0.1-0.274-0.148-0.413c-0.223-0.621-0.437-1.243-0.666-1.861c-0.142-0.375-0.3-0.745-0.463-1.112
				c-0.193-0.433-0.403-0.859-0.602-1.29c-0.353-0.763-0.616-1.571-1.182-2.221c-0.456-0.524-0.921-1.043-1.336-1.599
				c-0.889-1.192-2.067-1.928-3.464-2.359c-0.487-0.15-0.96-0.346-1.436-0.527C92.407,2.6,90.926,1.749,89.19,1.751
				c-0.071,0-0.144-0.031-0.211-0.058c-0.561-0.225-1.144-0.185-1.727-0.148c-0.833,0.051-1.675,0.207-2.498,0.133
				c-1.247-0.11-2.476,0.089-3.709,0.05c-1.375-0.043-3.639,0.231-4.398,0.453c-0.928,0.212-1.166,0.363-1.499,0.437
				c-1.425,0.32-2.813,0.761-4.123,1.418C70.44,4.33,69.893,4.699,69.311,5c-1.756,0.906-3.445,1.891-4.781,3.407
				c-0.367,0.417-0.747,0.818-0.955,1.325c-0.462,1.126-1.123,2.138-1.716,3.189c-0.143,0.252-0.285,0.523-0.343,0.803
				c-0.201,0.969-0.367,1.946-0.537,2.922c-0.079,0.445-0.024,0.878,0.178,1.286c0.582,1.171,1.391,2.144,2.516,2.815
				c0.369,0.221,0.785,0.383,1.202,0.499c0.595,0.166,1.216,0.243,1.814,0.401c0.447,0.117,0.862,0.081,1.285-0.072
				c1.356-0.491,2.507-1.333,3.621-2.214c0.813-0.642,1.171-1.566,1.27-2.589c0.062-0.656,0.111-1.315,0.15-1.973
				c0.013-0.217,0.008-0.442-0.036-0.654c-0.187-0.916-0.043-1.836,0.115-2.717c0.323-1.792,1.292-3.25,2.669-4.425
				c0.392-0.335,0.822-0.594,1.34-0.707c0.816-0.177,1.621-0.412,2.438-0.583c0.495-0.104,0.995-0.217,1.515-0.068
				c0.197,0.056,0.428-0.02,0.645-0.027c0.47-0.015,0.94-0.041,1.41-0.031c0.399,0.009,0.804,0.12,1.195,0.081
				c0.567-0.059,1.077,0.095,1.607,0.237C86.85,6.157,87.564,6.82,88.42,7.22c0.093,0.043,0.167,0.136,0.242,0.216
				c1.527,1.638,2.283,3.56,2.05,5.817c-0.183,1.757-0.133,3.51,0.013,5.265c0.024,0.291,0.049,0.591,0.003,0.875
				c-0.086,0.542-0.259,1.07-0.333,1.613C90.318,21.58,90.318,21.459,90.286,22.014z M90.402,27.674
				c0,0.467,0.027,0.758-0.005,1.041c-0.147,1.316-0.13,2.634-0.07,3.953c0.026,0.549,0.013,1.1,0.016,1.651
				c0.005,0.841-0.026,1.683,0.164,2.517c0.071,0.317,0.041,0.658,0.064,0.986c0.047,0.657,0.105,1.312,0.148,1.97
				c0.018,0.292,0.041,0.59,0.008,0.879c-0.158,1.418-0.078,2.858-0.438,4.255c-0.063,0.245-0.159,0.528-0.093,0.75
				c0.267,0.907,0.116,1.824,0.145,2.736c0.023,0.732-0.002,1.466,0.014,2.199c0.01,0.444-0.176,0.39-0.52,0.667
				c-0.989,0.795-2.13,1.249-3.328,1.588c-0.35,0.1-0.695,0.214-1.041,0.329c-1.14,0.38-2.271,0.787-3.42,1.139
				c-0.822,0.25-1.667,0.067-2.498,0.001c-1.71-0.136-3.221-0.852-4.68-1.697c-0.217-0.126-0.414-0.302-0.589-0.484
				c-1.199-1.246-2.202-2.283-2.981-3.832c-0.524-1.043-0.622-2.169-0.581-3.315c0.013-0.365,0.074-0.729,0.093-1.093
				c0.04-0.774,0.226-1.512,0.449-2.254c0.409-1.352,1.189-2.484,1.897-3.677c0.869-1.466,2.113-2.453,3.423-3.47
				c1.365-1.058,2.819-1.948,4.286-2.824c0.997-0.596,2.076-1.055,3.124-1.564c0.425-0.207,0.859-0.398,1.298-0.579
				c1.31-0.542,2.62-1.086,3.941-1.604C89.558,27.811,89.926,27.778,90.402,27.674z M77.047,57.169
				c0.616,0.155,1.246,0.295,1.86,0.485c0.13,0.04,0.253,0.254,0.286,0.409c0.018,0.087-0.132,0.263-0.245,0.315
				c-0.327,0.152-0.667,0.281-1.013,0.385c-0.796,0.241-1.597,0.476-2.401,0.685c-0.273,0.071-0.568,0.056-0.953,0.087
				c0.175-0.357,0.453-0.464,0.674-0.566c0.759-0.352,1.343-0.848,1.613-1.67C76.886,57.245,76.98,57.216,77.047,57.169z
				 M100.406,57.313c-0.084,0.551-0.17,0.976-0.209,1.406c-0.061,0.653,0.055,0.822,0.683,0.792c0.638-0.03,0.852,0.402,1.175,0.822
				c-0.46,0.382-0.935,0.421-1.358,0.166c-0.756-0.454-1.377-1.072-1.776-1.879c-0.102-0.206-0.118-0.471,0.067-0.612
				C99.382,57.711,99.741,57.318,100.406,57.313z M62.806,47.458c0.041-0.527,0.045-0.814,0.087-1.097
				c0.074-0.504,0.259-1.008,0.241-1.507c-0.029-0.872,0.429-1.437,1.006-1.961c0.211-0.193,0.447-0.359,0.787-0.63
				c-0.035,0.293-0.03,0.458-0.077,0.607c-0.314,1.007-0.625,2.016-0.97,3.013c-0.14,0.407-0.349,0.793-0.552,1.175
				C63.273,47.166,63.123,47.223,62.806,47.458z M101.291,40.662c-0.05-0.614-0.112-1.227-0.149-1.842
				c-0.034-0.546-0.043-1.096-0.06-1.643c-0.007-0.255-0.047-0.521,0.005-0.766c0.156-0.717,0.182-1.441,0.185-2.171
				c0-0.088,0.074-0.174,0.111-0.258c0.26,0.057,0.275,0.246,0.28,0.426c0.019,0.804,0.04,1.607,0.042,2.412
				c0.002,0.912-0.017,1.823-0.025,2.734C101.675,40.103,101.677,40.103,101.291,40.662z M100.708,50.284
				c-0.531-0.737-0.452-1.354-0.32-1.965c0.036-0.164,0.141-0.359,0.275-0.448c0.439-0.291,0.438-0.714,0.445-1.164
				c0.012-0.766,0.044-1.532,0.085-2.298c0.011-0.207,0.079-0.41,0.117-0.6c0.099,0,0.14-0.012,0.159,0.003
				c0.025,0.021,0.045,0.062,0.047,0.096c0.042,0.617,0.103,1.233,0.113,1.852c0.005,0.475-0.072,0.95-0.076,1.426
				c-0.003,0.448-0.013,0.851-0.426,1.173c-0.16,0.125-0.197,0.456-0.222,0.7C100.866,49.408,100.886,49.763,100.708,50.284z
				 M97.123,8.597c-0.362,0.092-0.53,0.192-0.605,0.145c-0.927-0.571-1.829-1.179-2.374-2.175c-0.183-0.335-0.041-0.59,0.326-0.582
				C94.615,5.989,94.762,6,94.903,6.026c0.231,0.044,0.433,0.179,0.426,0.423c-0.021,0.69,0.363,1.044,0.925,1.332
				C96.526,7.919,96.721,8.209,97.123,8.597z M70.656,53.983c-0.896,0.105-1.478-0.135-1.824-0.752
				c-0.242-0.434-0.355-0.945-0.503-1.429c-0.02-0.064,0.083-0.184,0.154-0.25c0.04-0.037,0.132-0.021,0.2-0.02
				c0.035,0,0.073,0.016,0.101,0.037C69.589,52.155,70.124,52.949,70.656,53.983z M93.677,19.216
				c0.376,1.028,0.523,1.324,0.604,2.338c0.057,0.708-0.329,1.163-0.877,1.511c-0.072,0.045-0.26,0.035-0.292-0.016
				c-0.066-0.103-0.131-0.318-0.08-0.372c0.776-0.798,0.689-1.074,0.614-2.058c-0.024-0.326-0.047-0.654-0.051-0.981
				C93.594,19.498,93.648,19.357,93.677,19.216z M96.213,32.024c0.246,0.516,0.176,1.066,0.165,1.601
				c-0.01,0.474-0.056,0.948-0.124,1.416c-0.014,0.097-0.214,0.247-0.302,0.23c-0.105-0.02-0.254-0.189-0.259-0.299
				c-0.042-0.991-0.024-1.978,0.423-2.898C96.125,32.054,96.162,32.048,96.213,32.024z M102.044,19.916
				c-0.306-0.607-0.326-0.608-0.271-1.74c0.027-0.548-0.086-1.14,0.315-1.681C102.464,18.019,102.455,18.569,102.044,19.916z
				 M96.116,14.212c0.249,0.085,0.312,0.34,0.306,0.522c-0.026,0.76-0.1,1.52-0.171,2.28c-0.011,0.118-0.105,0.229-0.193,0.413
				C95.787,16.572,95.832,14.986,96.116,14.212z M99.038,25.286c0.231,1.26,0.475,2.326-0.14,3.356
				c-0.076-0.035-0.181-0.056-0.185-0.087C98.62,27.51,98.675,26.479,99.038,25.286z M103.568,58.238
				c0.072-0.428,0.202-0.819,0.569-1.15c0.423,0.071,0.765,0.304,1.104,0.558C104.78,58.255,104.343,58.412,103.568,58.238z
				 M94.027,24.562c0.371,0.816,0.103,1.535,0.035,2.371c-0.523-0.363-0.578-0.832-0.693-1.274
				c-0.071-0.272-0.005-0.516,0.155-0.714C93.644,24.798,93.831,24.708,94.027,24.562z M101.633,24.758
				c-0.218-1.245-0.1-1.778,0.041-3.016c0.01-0.085,0.117-0.159,0.231-0.307C102.19,22.863,101.837,23.453,101.633,24.758z
				 M67.939,36.307c-0.371,0.778-1.04,1.302-1.577,1.915c-0.273-0.151-0.179-0.295-0.112-0.399c0.115-0.181,0.252-0.354,0.398-0.51
				c0.362-0.391,0.735-0.772,1.103-1.158C67.814,36.205,67.877,36.256,67.939,36.307z M62.943,51.088
				c0.25,0.667,0.495,1.129,0.392,1.714C62.558,52.24,62.556,52.232,62.943,51.088z M98.787,37.427
				c0.166,0.348,0.176,0.626,0.041,0.892c-0.037,0.074-0.167,0.146-0.249,0.14c-0.084-0.007-0.21-0.091-0.238-0.168
				C98.222,37.944,98.318,37.762,98.787,37.427z M65.763,46.796c-0.567-0.387-0.569-0.453-0.13-1.238
				C65.914,45.943,65.904,45.944,65.763,46.796z M100.245,11.392c0.442,0.484,0.617,0.883,0.641,1.447
				C100.411,12.335,100.411,12.335,100.245,11.392z M96.401,55.958c0.207,0.092,0.419,0.187,0.627,0.279
				c-0.033,0.387-0.245,0.484-0.509,0.384C96.223,56.511,96.217,56.267,96.401,55.958z M66.823,47.611
				c0.013,0.031,0.038,0.062,0.035,0.088c-0.004,0.025-0.039,0.046-0.059,0.069C66.808,47.716,66.815,47.665,66.823,47.611z"/>
		</g>
		<g>
			<path fill="#63A70A" d="M175.744,28.099c-0.249,0.427-0.51,0.642-0.895,0.708c-0.133-0.689-0.133-0.689,0.236-1.609
				C175.309,27.503,175.51,27.778,175.744,28.099z"/>
		</g>
		<g>
			<path fill="#63A70A" d="M197.119,63.966c0.859-0.098,1.721-0.176,2.576-0.297c0.964-0.136,1.898-0.452,2.893-0.39
				c0.168,0.011,0.348-0.088,0.516-0.148c1.217-0.432,2.562-0.463,3.688-1.18c0.087-0.056,0.204-0.063,0.312-0.089
				c1.717-0.424,3.18-1.351,4.612-2.33c0.537-0.366,1.048-0.767,1.567-1.157c0.287-0.217,0.624-0.4,0.845-0.674
				c0.478-0.597,1.044-1.093,1.618-1.589c1.814-1.567,3.305-3.442,4.9-5.216c0.209-0.234,0.353-0.544,0.478-0.841
				c0.3-0.708,0.699-1.376,1.229-1.898c0.985-0.967,0.918-2.374,1.779-3.434c0.295-0.361,0.581-0.543,0.979-0.885
				c0.334-0.548,0.957-0.598,0.449-1.178c-0.047-0.054-0.146-0.186-0.201-0.227c-0.695-0.783-0.898-1.159-1.008-1.735
				c-0.265-0.275-0.584-0.254-0.877,0.013c-0.425,0.391-1.388,1.145-1.787,1.561c-1.332,1.378-2.595,2.716-4,4.029
				c-0.737,0.689-1.439,1.43-2.067,2.22c-1.05,1.32-2.292,2.393-3.718,3.284c-0.653,0.409-1.328,0.741-2.082,0.888
				c-1.133,0.221-2.271,0.415-3.408,0.609c-0.178,0.03-0.361,0.023-0.542,0.002c-0.576-0.065-1.147-0.141-1.722-0.22
				c-1.074-0.146-2.146-0.383-3.226-0.423c-1.167-0.044-2.3-0.233-3.428-0.482c-0.81-0.179-1.613-0.399-2.187-1.101
				c-0.147-0.183-0.426-0.26-0.645-0.386c-0.471-0.268-0.943-0.529-1.406-0.805c-0.558-0.335-1.092-0.711-1.664-1.021
				c-0.641-0.347-1.238-0.745-1.763-1.253c-0.183-0.176-0.356-0.37-0.573-0.493c-0.472-0.266-0.77-0.655-0.939-1.149
				c-0.159-0.459-0.424-0.849-0.803-1.138c-0.479-0.365-0.761-0.852-1.031-1.373c-0.297-0.576-0.73-1.091-0.969-1.687
				c-0.24-0.598-0.272-1.273-0.466-1.893c-0.165-0.529-0.257-1.052-0.222-1.6c0.039-0.621-0.025-1.224-0.199-1.824
				c-0.129-0.451-0.21-0.918-0.281-1.382c-0.267-1.713-0.521-3.429-0.781-5.143c-0.145-0.94-0.117-1.873,0.103-2.801
				c0.084-0.357,0.271-0.563,0.647-0.623c0.651-0.101,1.308-0.159,1.937,0.05c0.781,0.259,1.571,0.23,2.362,0.138
				c0.544-0.065,1.072-0.088,1.615,0.019c0.281,0.057,0.576,0.05,0.865,0.051c1.989,0.011,3.979,0.015,5.967,0.025
				c0.18,0.001,0.358,0.03,0.539,0.043c0.682,0.046,1.369,0.172,2.047,0.118c1.478-0.116,2.957-0.14,4.438-0.184
				c0.432-0.013,0.9-0.062,1.287,0.083c0.822,0.31,1.641,0.251,2.463,0.125c1.366-0.21,2.745-0.103,4.115-0.197
				c0.212-0.014,0.445,0.016,0.642,0.092c0.597,0.229,1.206,0.197,1.821,0.18c0.578-0.016,1.159-0.002,1.736,0.016
				c0.541,0.017,1.082,0.077,1.625,0.087c1.151,0.019,2.293-0.231,3.459-0.023c0.617,0.11,0.994-0.306,1.065-0.959
				c0.081-0.716,0.157-1.428,0.032-2.158c-0.122-0.711-0.122-1.441-0.207-2.16c-0.109-0.932-0.195-1.872-0.389-2.788
				c-0.207-0.985-0.416-1.968-0.719-2.94c-0.289-0.933-0.607-1.851-0.937-2.768c-0.108-0.305-0.222-0.633-0.42-0.877
				c-0.729-0.897-1.119-2.038-2.007-2.819c-0.479-0.909-1.236-1.6-1.844-2.408c-0.627-0.834-1.722-1.067-2.332-1.911
				c-0.119-0.161-0.363-0.23-0.551-0.34c-0.031-0.019-0.062-0.036-0.096-0.049c-1.066-0.446-2.137-0.883-3.195-1.339
				c-0.799-0.342-1.629-0.637-2.363-1.085c-0.625-0.382-1.258-0.514-1.953-0.531c-0.254-0.007-0.518,0.033-0.756-0.025
				c-1.064-0.261-2.16-0.116-3.23-0.263c-1.052-0.145-2.087,0.138-3.135,0.148c-0.79,0.006-1.588,0.06-2.366,0.188
				c-0.707,0.115-1.412,0.306-2.078,0.565c-0.47,0.184-0.932,0.367-1.419,0.507c-0.936,0.271-1.887,0.536-2.76,0.953
				c-1.041,0.496-2.012,1.143-3,1.739c-0.96,0.577-1.938,1.13-2.852,1.774c-0.701,0.497-1.398,1.008-2.097,1.516
				c-0.312,0.227-0.537,0.579-0.787,0.884c-0.253,0.307-0.448,0.67-0.739,0.932c-0.521,0.473-0.849,1.073-1.231,1.64
				c-0.447,0.659-0.888,1.327-1.396,1.936c-0.574,0.688-0.836,1.51-1.152,2.312c-0.24,0.603-0.4,1.24-0.674,1.825
				c-1.203,2.564-2.166,5.199-2.534,8.026c-0.026,0.215-0.058,0.431-0.101,0.643c-0.359,1.734-0.742,3.466-0.664,5.255
				c0.067,1.588,0.117,3.178,0.186,4.766c0.044,1.083,0.152,2.164,0.146,3.245c-0.008,0.949-0.016,1.867,0.521,2.709
				c0.149,0.234,0.19,0.544,0.254,0.826c0.3,1.297,0.524,2.615,1.21,3.793c0.198,0.34,0.346,0.721,0.456,1.1
				c0.334,1.142,1.017,2.062,1.767,2.955c0.324,0.384,0.598,0.812,0.865,1.238c0.232,0.368,0.479,0.709,0.778,1.032
				c0.61,0.658,1.319,1.245,1.696,2.099c0.07,0.155,0.215,0.314,0.363,0.391c0.67,0.343,1.1,0.944,1.579,1.474
				c0.528,0.58,1.146,0.979,1.851,1.289c1.019,0.448,2.043,0.885,2.971,1.516c0.236,0.162,0.515,0.264,0.77,0.4
				c0.699,0.376,1.407,0.742,2.094,1.14c0.727,0.418,1.469,0.824,2.293,0.962C193.79,63.761,195.441,63.926,197.119,63.966z
				 M194.016,21.239c-1.947-0.113-3.895-0.242-5.843-0.332c-0.646-0.031-1.295,0.039-1.944,0.052
				c-0.394,0.008-0.791,0.027-1.182-0.019c-0.429-0.052-0.629-0.29-0.665-0.727c-0.016-0.213,0-0.434,0.044-0.644
				c0.248-1.202,0.463-2.416,0.781-3.6c0.271-1.008,0.663-1.976,1.289-2.844c0.552-0.763,1.077-1.539,1.788-2.166
				c1.077-0.953,2.085-2.02,3.44-2.587c0.725-0.304,1.51-0.474,2.274-0.667c1.396-0.354,2.797-0.225,4.196,0.006
				c1.102,0.183,2.199,0.375,3.334,0.296c0.482-0.034,1.005,0.124,1.465,0.307c1.219,0.484,2.23,1.298,3.127,2.236
				c0.523,0.548,0.865,1.23,1.102,1.965c0.172,0.546,0.408,1.073,0.61,1.61c0.31,0.819,0.498,1.657,0.437,2.544
				c-0.025,0.356-0.017,0.725,0.047,1.074c0.064,0.363,0.11,0.706-0.028,1.062c-0.123,0.315-0.088,0.636,0.03,0.954
				c0.062,0.167,0.117,0.343,0.137,0.519c0.07,0.625-0.107,0.897-0.725,0.973c-0.424,0.052-0.862,0.027-1.291,0.004
				c-0.432-0.024-0.871-0.051-1.291-0.141c-1.049-0.227-2.08-0.028-3.113,0.083c-0.793,0.084-1.582,0.075-2.379,0.038
				c-1.372-0.065-2.746-0.042-4.121-0.053c-0.506-0.004-1.012-0.001-1.518-0.001C194.018,21.202,194.018,21.221,194.016,21.239z
				 M191.49,57.671c0.121-0.637,0.478-0.852,0.748-1.112c0.387-0.372,0.812-0.709,1.22-1.061c0.028-0.024,0.054-0.05,0.085-0.067
				c1.014-0.547,2.025-1.093,3.038-1.639c0.032-0.018,0.067-0.026,0.103-0.037c0.223-0.068,0.428-0.071,0.582,0.14
				c0.117,0.164,0.045,0.376-0.189,0.541c-0.117,0.083-0.239,0.162-0.368,0.228c-1.505,0.783-2.946,1.671-4.369,2.593
				C192.133,57.388,191.896,57.475,191.49,57.671z M214.243,7.691c0.208,0.189,0.327,0.271,0.414,0.38
				c0.545,0.681,0.509,0.877-0.23,1.334c-0.979,0.605-1.997,1.132-3.112,1.454c-0.102,0.029-0.211,0.041-0.316,0.037
				c-0.062-0.001-0.125-0.052-0.249-0.109C211.672,9.497,213.27,9.013,214.243,7.691z M177.541,36.273
				c0.912-1.591,1.9-3.068,3.084-4.461c0.486,0.873,0.439,1.564-0.227,1.952c-0.916,0.535-1.678,1.208-2.328,2.031
				C177.925,35.979,177.721,36.115,177.541,36.273z M217.456,16.799c0.224,0.304,0.228,0.562,0.058,0.772
				c-0.18,0.221-0.391,0.45-0.636,0.572c-0.549,0.274-1.126,0.488-1.696,0.712c-0.082,0.033-0.197-0.015-0.404-0.037
				c0.213-0.276,0.336-0.578,0.555-0.693C216.061,17.746,216.539,16.972,217.456,16.799z M191.311,59.46
				c0.853-0.557,1.621-1.061,2.504-1.637c0,0.257,0.045,0.404-0.006,0.495c-0.273,0.466-0.57,0.918-0.863,1.373
				c-0.17,0.266-0.409,0.385-0.73,0.366C191.781,60.031,191.699,59.99,191.311,59.46z M188.477,52.755
				c0.141-0.182,0.227-0.387,0.381-0.484c0.824-0.518,1.662-1.011,2.5-1.503c0.119-0.07,0.274-0.124,0.41-0.118
				c0.129,0.006,0.308,0.072,0.357,0.167c0.047,0.09-0.02,0.267-0.081,0.381c-0.046,0.086-0.153,0.155-0.249,0.199
				c-1.013,0.475-2.027,0.945-3.045,1.408C188.7,52.829,188.62,52.784,188.477,52.755z M182.168,38.49
				c-0.812,0.789-1.721,1.371-2.67,1.896c-0.031-0.067-0.1-0.158-0.081-0.186c0.646-0.912,1.385-1.739,2.2-2.458
				C182.027,37.832,182.115,38.095,182.168,38.49z M216.458,20.79c0.089-0.149,0.136-0.282,0.226-0.372
				c0.45-0.453,0.914-0.894,1.371-1.34c0.211-0.206,0.506-0.136,0.586,0.14c0.15,0.525,0.078,0.865-0.371,1.104
				c-0.465,0.248-0.98,0.405-1.479,0.583C216.721,20.929,216.611,20.845,216.458,20.79z M199.29,6.495
				c0.918-0.638,1.551-1.362,2.541-1.638C201.473,6.257,200.734,6.763,199.29,6.495z M187.82,6.925
				c-0.613,1.024-1.412,1.609-2.727,1.487c0.812-0.603,1.521-1.198,2.383-1.565C187.552,6.816,187.666,6.888,187.82,6.925z
				 M178.288,32.16c-0.302,0.839-0.638,1.458-1.394,1.874c-0.228-0.385-0.18-0.732-0.115-1.071c0.018-0.095,0.09-0.205,0.171-0.257
				C177.307,32.475,177.66,32.231,178.288,32.16z M189.328,25.195c0.506-0.719,1.05-1.086,1.915-0.987
				c-0.093,0.521-0.353,0.901-0.728,1.134C190.177,25.552,189.773,25.465,189.328,25.195z M182.674,17.051
				c0.268-1.135,0.434-1.458,1.169-2.21c0.019,0.184,0.06,0.308,0.034,0.417c-0.113,0.49-0.225,0.983-0.379,1.462
				C183.367,17.124,183.193,17.174,182.674,17.051z M213.264,12.166c0.728-0.714,2.424-1.74,2.944-1.857
				c-0.024,0.109-0.019,0.226-0.073,0.283C215.346,11.407,214.27,11.711,213.264,12.166z M197.965,61.551
				c0.479-0.598,0.936-0.897,1.453-1.132c0.486,1.099,0.342,1.323-0.741,1.218C198.505,61.62,198.333,61.596,197.965,61.551z
				 M202.09,58.305c-0.227,0.583-0.543,1.092-0.984,1.514c-0.221,0.212-0.318,0.175-0.696-0.264
				C200.846,59.001,201.322,58.496,202.09,58.305z M185.789,48.926c0.572-0.694,1.38-0.875,2.223-1.249
				c-0.013,0.234,0.014,0.376-0.035,0.484c-0.037,0.085-0.164,0.132-0.252,0.192C187.139,48.746,186.453,48.802,185.789,48.926z
				 M179.294,29.312c0.593-0.892,0.937-1.215,1.597-1.509c0.01,0.154,0.061,0.303,0.019,0.419c-0.058,0.161-0.164,0.316-0.287,0.438
				C180.293,28.992,179.919,29.258,179.294,29.312z M182.826,11.418c-0.311,0.602-0.785,1.177-1.203,1.404
				c-0.105,0.057-0.26,0.028-0.436,0.042C181.799,11.858,182.053,11.639,182.826,11.418z M201.061,25.28
				c0.633-0.521,1.104-0.917,1.688-1.271c-0.106,0.481-0.364,0.87-0.728,1.153C201.831,25.312,201.779,25.321,201.061,25.28z
				 M214.038,23.375c0.431-0.165,0.862-0.329,1.263-0.482c0.277,0.167,0.19,0.358,0.059,0.461
				C214.977,23.654,214.538,23.724,214.038,23.375z M195.835,24.583c-0.11,0.44-0.137,0.803-0.578,0.867
				c-0.267,0.039-0.573,0.074-0.681-0.353C194.9,24.795,195.262,24.587,195.835,24.583z M201.266,3.191
				c-0.707,0.702-0.783,0.697-1.182-0.015C200.527,2.867,200.527,2.867,201.266,3.191z M183.154,54.6
				c0.377-0.221,0.668-0.393,1.062-0.625c-0.014,0.422-0.181,0.649-0.334,0.875C183.707,55.109,183.566,55.072,183.154,54.6z
				 M195.887,22.56c-0.279,0.46-0.656,0.552-1,0.722C194.673,22.544,194.91,22.371,195.887,22.56z M184.283,42.678
				c-0.493,0.532-0.999,0.703-1.549,0.786C183.148,43.108,183.527,42.683,184.283,42.678z M191.109,22.815
				c0.563-0.558,0.567-0.55,0.986-0.282c-0.291,0.119-0.539,0.228-0.789,0.319C191.252,22.872,191.176,22.829,191.109,22.815z
				 M198.389,25.338c-0.012,0.024-0.022,0.049-0.033,0.074c-0.017-0.035-0.033-0.068-0.051-0.102
				C198.333,25.319,198.361,25.329,198.389,25.338z"/>
		</g>
		<g>
			<path fill="#63A70A" d="M131.442,56.983c0.284-0.435,0.535-0.787,0.753-1.158c0.241-0.409,0.448-0.84,0.681-1.254
				c0.179-0.318,0.352-0.647,0.574-0.935c0.536-0.694,1.104-1.363,1.653-2.049c0.458-0.572,0.869-1.173,1.18-1.846
				c0.505-1.096,1.102-2.128,1.858-3.09c1.084-1.38,2.177-3.121,3.024-4.672c0.069-0.128,0.17-0.239,0.258-0.355
				c0.874-1.178,1.74-2.358,2.62-3.528c0.529-0.703,1.075-1.392,1.618-2.083c0.997-1.269,1.938-2.572,2.72-3.994
				c0.511-0.925,1.104-1.822,1.779-2.634c0.865-1.042,1.845-1.987,2.779-2.971c0.506-0.533,0.949-1.459,1.348-2.081
				c0.972-1.508,2.001-2.979,3.01-4.463c0.578-0.849,1.163-1.692,1.739-2.541c0.228-0.333,0.437-0.678,0.662-1.015
				c0.831-1.25,1.678-2.492,2.5-3.752c0.381-0.587,0.79-1.133,1.331-1.594c0.85-0.723,1.511-1.602,1.863-2.676
				c0.226-0.684,0.61-1.278,1.168-1.7c0.496-0.38,0.684-0.833,0.684-1.414c0-0.33-0.001-0.66-0.02-0.988
				c-0.047-0.888-0.576-1.397-1.371-1.652c-0.308-0.099-0.646-0.115-0.971-0.142c-0.4-0.033-0.802-0.034-1.199-0.054
				c-1.025-0.053-2.051-0.146-3.074-0.151c-0.877-0.005-1.754,0.091-2.633,0.145c-0.256,0.016-0.511,0.039-0.768,0.056
				c-0.654,0.044-1.311,0.11-1.966,0.123c-1.281,0.025-2.565,0.02-3.849,0.026c-1.171,0.006-2.351,0.092-3.515-0.001
				c-1.691-0.135-3.362,0.237-5.046,0.098c-1.548,0.344-3.065-0.063-4.583-0.232c-0.774-0.085-1.524-0.144-2.296-0.048
				c-1.125,0.141-2.255,0.25-3.384,0.359c-0.217,0.021-0.448,0.016-0.656-0.039c-0.656-0.173-1.307-0.133-1.964-0.019
				c-0.252,0.043-0.519,0.08-0.767,0.041c-0.63-0.103-1.235,0.025-1.852,0.108c-0.507,0.068-1.022,0.062-1.533,0.113
				c-0.471,0.046-0.949,0.084-1.406,0.197c-0.676,0.167-1.34,0.38-2,0.605c-0.377,0.129-0.735,0.314-1.101,0.479
				c-0.2,0.09-0.389,0.217-0.598,0.275c-0.846,0.236-1.498,0.743-2.068,1.389c-0.678,0.769-1.371,1.523-2.054,2.288
				c-0.097,0.108-0.181,0.231-0.261,0.354c-0.486,0.756-0.504,1.051,0.059,1.785c0.268,0.349,0.364,0.703,0.374,1.115
				c0.019,0.859,0.203,1.672,0.699,2.395c0.062,0.09,0.101,0.195,0.143,0.296c0.417,0.991,1.133,1.718,2.072,2.191
				c0.481,0.242,1.029,0.381,1.562,0.477c0.423,0.077,0.874,0.045,1.307,0.011c0.839-0.065,1.708-0.047,2.505-0.273
				c2.009-0.57,3.285-1.981,4.06-3.883c0.442-1.085,0.884-2.169,1.331-3.253c0.218-0.527,0.584-0.915,1.091-1.19
				c1.132-0.618,2.382-0.691,3.616-0.736c0.984-0.036,1.98,0.208,2.961,0.15c1.801-0.105,3.594,0.018,5.392,0.022
				c1.501,0.003,3.004-0.012,4.507-0.026c0.733-0.007,1.467-0.037,2.2-0.04c0.164,0,0.33,0.068,0.466,0.1
				c0.016,0.149,0.049,0.231,0.025,0.291c-0.632,1.571-1.401,3.055-2.66,4.232c-0.13,0.122-0.253,0.261-0.34,0.414
				c-0.366,0.643-0.817,1.214-1.381,1.693c-0.343,0.293-0.57,0.661-0.75,1.071c-0.264,0.603-0.536,1.204-0.836,1.789
				c-0.251,0.488-0.498,0.99-0.833,1.417c-0.794,1.011-1.3,2.215-2.181,3.162c-0.049,0.053-0.08,0.124-0.115,0.188
				c-0.627,1.16-1.277,2.659-2.132,3.675c-0.14,0.166-0.222,0.379-0.339,0.564c-0.533,0.832-0.99,1.731-1.624,2.479
				c-1.375,1.625-2.661,3.318-3.923,5.03c-0.956,1.295-1.967,2.561-2.606,4.063c-0.142,0.335-0.336,0.649-0.522,0.964
				c-0.982,1.677-1.99,3.339-2.945,5.03c-0.421,0.745-0.93,1.768-1.545,2.339c-0.819,0.757-1.438,1.665-2.062,2.567
				c-0.938,1.356-1.802,2.763-2.695,4.15c-0.437,0.677-0.822,1.392-1.311,2.028c-0.804,1.048-1.724,1.997-2.729,2.862
				c-0.499,0.43-0.986,0.873-1.47,1.321c-0.103,0.095-0.204,0.222-0.238,0.353c-0.254,0.96-0.459,1.928-0.237,2.928
				c0.065,0.292,0.231,0.463,0.527,0.461c0.29-0.001,0.581-0.058,0.873-0.079c0.327-0.024,0.684-0.125,0.98-0.036
				c0.728,0.217,1.459,0.155,2.186,0.122c1.036-0.048,2.048,0.033,3.053,0.293c0.313,0.083,0.65,0.1,0.975,0.092
				c1.678-0.042,3.355-0.111,5.033-0.151c1.465-0.034,2.931-0.048,4.396-0.059c1.32-0.01,2.641-0.091,3.958,0.069
				c0.288,0.035,0.585-0.002,0.878,0.003c1.573,0.03,3.144-0.064,4.722,0.008c2.526,0.118,5.056,0.105,7.583,0.311
				c1.856,0.15,3.729,0.111,5.594-0.036c0.839-0.065,1.692-0.032,2.521-0.169c1.259-0.209,2.506-0.507,3.748-0.805
				c1.437-0.345,2.649-1.042,3.443-2.344c0.096-0.157,0.207-0.303,0.313-0.452c0.842-1.177,1.532-2.413,1.521-3.92
				c0-0.073,0.014-0.148,0.032-0.218c0.166-0.542,0.106-1.089,0.026-1.636c-0.039-0.253-0.09-0.508-0.088-0.761
				c0.004-0.823-0.283-1.584-0.514-2.351c-0.091-0.304-0.303-0.588-0.514-0.833c-0.334-0.388-0.707-0.743-1.077-1.101
				c-0.479-0.465-1.026-0.823-1.683-0.999c-1.176-0.315-2.334-0.479-3.574-0.234c-0.84,0.167-1.516,0.468-2.105,1.06
				c-0.283,0.283-0.632,0.499-0.943,0.757c-0.653,0.543-1.269,1.139-1.604,1.929c-0.625,1.484-1.472,2.857-2.111,4.335
				c-0.424,0.978-1.254,1.609-2.215,2.047c-0.195,0.088-0.428,0.13-0.643,0.132c-1.173,0.006-2.345-0.004-3.518-0.015
				c-0.548-0.005-1.098-0.056-1.645-0.033c-0.836,0.035-1.665,0.141-2.51,0.146c-2.09,0.016-4.177,0.108-6.26-0.137
				c-0.219-0.026-0.442-0.072-0.656-0.051c-1.375,0.136-2.699-0.221-4.038-0.414C131.774,57.178,131.683,57.103,131.442,56.983z
				 M154.305,9.339c-0.14-0.543,0.043-0.999,0.293-1.434c0.106-0.189,0.269-0.348,0.4-0.521c0.354-0.459,0.707-0.918,1.209-1.572
				c0.47-0.24,1.195-0.431,2.064-0.368c-0.061,0.159-0.078,0.295-0.151,0.388c-0.574,0.719-1.214,1.359-2.071,1.751
				c-0.724,0.33-1.312,0.802-1.501,1.636C154.538,9.26,154.43,9.279,154.305,9.339z M122.894,5.922
				c-0.573,0.521-1.072,1.006-1.607,1.449c-0.363,0.302-0.763,0.565-1.17,0.809c-0.347,0.209-0.732,0.32-1.204,0.116
				c0.049-0.629,0.43-1.085,0.912-1.385c0.868-0.542,1.811-0.949,2.827-1.149C122.697,5.751,122.76,5.832,122.894,5.922z
				 M154.984,17.511c-0.871,1.753-2.928,4.465-3.896,5.205c-0.037-0.099-0.125-0.213-0.096-0.27c0.651-1.309,1.39-2.568,2.364-3.666
				C153.762,18.329,154.217,17.923,154.984,17.511z M141.276,6.03c0.271-0.157,0.461-0.329,0.682-0.385
				c0.886-0.231,1.776-0.434,2.67-0.628c0.313-0.069,0.644-0.176,0.975,0.083c-0.08,0.338-0.166,0.688-0.26,1.079
				c-1.252,0.21-2.491,0.06-3.724,0.059C141.533,6.237,141.448,6.138,141.276,6.03z M132.587,40.224
				c0.33-1.217,0.95-2.082,1.463-3.117c0.187,0.298,0.289,0.567,0.478,0.736c0.207,0.185,0.498,0.278,0.779,0.426
				C134.918,39.529,133.842,39.843,132.587,40.224z M162.146,50.637c0,0.348,0.061,0.554-0.01,0.693
				c-0.33,0.648-0.684,1.284-1.053,1.91c-0.111,0.188-0.314,0.312-0.561,0.257c-0.242-0.056-0.496-0.411-0.444-0.68
				c0.048-0.245,0.104-0.527,0.261-0.705C160.812,51.569,161.307,51.036,162.146,50.637z M131.056,50.937
				c0.113-0.629,0.291-0.987,0.481-1.328c0.43-0.765,0.891-1.513,1.338-2.269c0.299-0.504,0.585-1.017,0.894-1.514
				c0.118-0.191,0.282-0.354,0.55-0.112c-0.029,0.374-0.292,0.638-0.512,0.917c-0.525,0.67-0.93,1.381-1.163,2.219
				C132.426,49.633,131.885,50.253,131.056,50.937z M156.253,53.091c0.073-0.416,0.202-0.699,0.597-0.847
				c0.315,0.515,0.728,0.847,1.405,0.838c0.384-0.004,0.438,0.419,0.461,0.832c-0.14,0.006-0.28,0.054-0.394,0.012
				C157.646,53.666,156.975,53.385,156.253,53.091z M129.018,50.996c0.022,0.115,0.07,0.198,0.046,0.246
				c-0.414,0.843-0.833,1.685-1.263,2.52c-0.061,0.12-0.187,0.214-0.299,0.298c-0.046,0.035-0.156,0.043-0.201,0.011
				c-0.08-0.055-0.178-0.148-0.183-0.23c-0.008-0.135,0.013-0.299,0.085-0.409C127.757,52.596,128.3,51.75,129.018,50.996z
				 M155.578,55.479c0.145,0.101,0.252,0.142,0.309,0.22c0.131,0.17,0.232,0.358,0.36,0.561c-0.238,0.42-0.274,0.988-0.914,1.042
				c-0.058-0.115-0.122-0.183-0.11-0.235C155.33,56.553,155.45,56.043,155.578,55.479z M132.352,42.517
				c-0.038,0.549-0.408,1.195-1.169,2.061c0.032-0.493,0.234-1.124,0.536-1.558C131.875,42.796,132.01,42.523,132.352,42.517z
				 M157.643,3.899c-0.656,0.306-1.246,0.451-1.852,0.544c-0.057,0.009-0.156-0.12-0.201-0.204
				c-0.021-0.042,0.021-0.171,0.061-0.187c0.582-0.196,1.16-0.415,1.793-0.342C157.469,3.715,157.491,3.755,157.643,3.899z
				 M129.396,58.597c0.491,0.027,0.982,0.052,1.473,0.083c0.019,0.001,0.034,0.058,0.051,0.088
				C130.203,59.05,129.975,59.046,129.396,58.597z M130.012,55.922c0.016-0.211,0-0.432,0.056-0.631
				c0.033-0.116,0.168-0.23,0.284-0.281c0.063-0.028,0.243,0.056,0.269,0.127c0.044,0.122,0.056,0.301-0.005,0.405
				c-0.102,0.175-0.271,0.312-0.413,0.464C130.139,55.978,130.076,55.95,130.012,55.922z M159.572,58.402
				c-0.229,0.401-0.582,0.469-1.014,0.533C158.872,58.258,158.873,58.257,159.572,58.402z"/>
		</g>
		<g>
			<path fill="#63A70A" d="M52.25,15.914c1.208,0.305,1.931,0.171,2.746-0.459c0.313-0.242,0.485-0.553,0.506-0.936
				c0.015-0.291,0.002-0.587-0.033-0.878c-0.059-0.479-0.009-0.939,0.08-1.415c0.092-0.496,0.061-1.02,0.039-1.528
				c-0.021-0.512-0.112-1.021-0.144-1.532c-0.047-0.768-0.045-1.54-0.104-2.306c-0.072-0.913-0.176-1.822-0.285-2.731
				C55,3.655,54.916,3.184,54.823,2.717c-0.075-0.368-0.338-0.559-0.697-0.604c-0.179-0.022-0.365-0.013-0.548-0.002
				c-1.095,0.061-2.19,0.131-3.287,0.19c-0.842,0.045-1.685,0.115-2.528,0.108c-2.089-0.016-4.179-0.07-6.268-0.107
				c-0.147-0.003-0.294,0-0.441,0.003c-1.684,0.04-3.369,0.142-5.051,0.095c-0.981-0.027-1.97-0.077-2.956-0.196
				c-1.524-0.182-3.066-0.251-4.604-0.289c-1.537-0.038-3.077,0.026-4.616,0.036c-0.987,0.006-1.975-0.024-2.961-0.002
				c-0.99,0.021-1.979,0.066-2.966,0.138c-0.638,0.048-1.242-0.038-1.834-0.262c-0.561-0.211-1.125-0.264-1.726-0.189
				c-0.468,0.058-0.954,0.025-1.426-0.019c-0.697-0.066-1.383-0.064-2.082,0.013C9.814,1.743,8.788,1.827,7.765,1.82
				c-2.156-0.013-4.32,0.277-6.474-0.114c-0.484-0.088-0.71,0.116-0.914,0.602C0.13,2.905,0.129,3.531,0.165,4.152
				C0.217,5.1,0.138,6.054,0.329,6.999c0.055,0.275-0.028,0.579-0.038,0.87c-0.035,0.95-0.173,1.913-0.067,2.849
				c0.11,0.991,0.19,1.956,0.007,2.944c-0.08,0.427-0.059,0.878-0.041,1.316c0.014,0.348,0.196,0.532,0.557,0.568
				c0.546,0.054,1.098,0.095,1.647,0.091c0.604-0.005,0.941-0.3,1.038-0.917c0.111-0.724,0.16-1.456,0.258-2.181
				c0.107-0.797,0.138-1.624,0.386-2.376C4.37,9.264,4.852,8.426,5.269,7.569C5.421,7.254,5.69,7.061,6.047,7.027
				c0.911-0.086,1.822-0.213,2.735-0.231c0.728-0.015,1.459,0.162,2.186,0.151c0.729-0.011,1.456-0.182,2.187-0.222
				c1.208-0.064,2.417-0.1,3.626-0.109c0.951-0.009,1.903,0.032,2.854,0.067c0.467,0.017,0.933,0.07,1.419,0.108
				c0.11,0.454,0.238,0.839,0.293,1.234c0.152,1.087,0.267,2.18,0.412,3.268c0.043,0.326,0.095,0.664,0.219,0.963
				c0.224,0.537,0.218,1.071,0.112,1.62c-0.197,1.02-0.207,2.034,0.003,3.059c0.079,0.386,0.049,0.806,0.002,1.202
				c-0.051,0.434-0.178,0.859-0.275,1.287c-0.209,0.929-0.476,1.848-0.357,2.822c0.164,1.351,0.122,3.414,0.079,4.769
				c-0.046,1.427-0.133,2.852-0.159,4.278c-0.02,1.168,0.02,2.335-0.124,3.498c-0.057,0.471-0.181,0.941-0.182,1.41
				c-0.001,1.286-0.018,2.574,0.088,3.853c0.245,2.967,0.124,6.286,0.04,9.253c-0.006,0.254-0.012,0.509-0.004,0.762
				c0.014,0.473,0.083,0.95,0.05,1.418c-0.082,1.134-0.199,2.265-0.319,3.395c-0.193,1.824-0.949,3.276-2.66,4.151
				c-1.203,0.615-2.448,0.921-3.795,0.84c-0.623-0.037-1.25-0.088-1.869-0.045c-0.809,0.058-1.416,0.541-1.219,1.571
				c0.056,0.287,0.111,0.575,0.181,0.859c0.117,0.481,0.393,0.72,0.883,0.587c1.052-0.285,2.116-0.081,3.172-0.161
				c1.311-0.1,2.637,0,3.957,0.002c0.513,0,1.03-0.08,1.537-0.039c1.749,0.142,3.497,0.314,5.255,0.332
				c0.839,0.009,1.681-0.004,2.519-0.037c1.126-0.042,2.248-0.253,3.375,0.049c0.345,0.092,0.729,0.043,1.094,0.05
				c0.219,0.004,0.438-0.016,0.656-0.014c1.171,0.011,2.344,0.069,3.512,0.028c1.609-0.058,3.216-0.047,4.823-0.068
				c1.554-0.02,1.734-0.146,1.689-1.711c-0.02-0.708-0.304-0.998-0.994-1.068c-0.145-0.016-0.294-0.023-0.44-0.007
				c-1.141,0.125-2.273-0.021-3.403-0.123c-1.531-0.137-2.725-1.186-3.129-2.662c-0.125-0.457-0.299-0.9-0.455-1.349
				c-0.072-0.207-0.188-0.405-0.219-0.617c-0.187-1.266-0.36-2.535-0.524-3.805c-0.028-0.216,0.016-0.439,0.02-0.659
				c0.024-1.135,0.171-2.265,0.047-3.406c-0.108-1.02-0.13-2.401-0.19-3.426c-0.037-0.62-0.068-1.242-0.109-1.862
				c-0.096-1.425-0.234-2.842-0.183-4.279c0.053-1.5,0.257-2.992,0.221-4.498c-0.02-0.806,0.092-1.612,0.096-2.418
				c0.007-2.236-0.003-4.472-0.022-6.708c-0.01-1.246-0.047-3.197-0.08-4.442c-0.02-0.77-0.094-1.538-0.074-2.306
				c0.042-1.645,0.305-3.283,0.157-4.935c-0.019-0.215,0.039-0.437,0.057-0.655c0.04-0.474,0.101-0.946,0.113-1.419
				c0.023-1.028,0.015-2.055,0.035-3.083c0.011-0.531,0.211-0.737,0.735-0.743c0.659-0.008,1.32-0.014,1.978,0.033
				c1.425,0.101,2.848,0.242,4.271,0.352c0.656,0.049,1.314,0.051,1.971,0.095c1.134,0.076,2.271,0.139,3.401,0.259
				c1.011,0.107,1.92,0.468,2.578,1.306c0.113,0.142,0.256,0.262,0.396,0.381c0.651,0.555,0.978,1.263,1.041,2.109
				c0.031,0.4,0.052,0.807,0.136,1.199C51.713,13.647,51.98,14.751,52.25,15.914z M27.109,24.7c-0.327-0.349-0.391-1.46-0.475-1.825
				c-0.34-1.461-0.598-2.93-0.542-4.446c0.052-1.424,0.021-2.851,0.032-4.277c0.001-0.173,0.029-0.343,0.046-0.524
				c0.271,0.053,0.303,0.259,0.341,0.419C27.184,16.882,27.476,22.348,27.109,24.7z M49.528,4.924
				c0.055-0.039,0.087-0.081,0.121-0.082c0.678-0.006,1.357-0.026,2.034-0.007c0.463,0.012,0.516,0.104,0.637,0.583
				c0.112,0.442,0.124,0.874-0.04,1.357c-0.402-0.234-0.773-0.493-1.108-0.797c-0.076-0.069-0.095-0.205-0.129-0.312
				c-0.147-0.452-0.271-0.551-0.75-0.579c-0.209-0.013-0.421-0.011-0.631-0.032C49.615,5.049,49.576,4.974,49.528,4.924z
				 M32.43,49.391c-0.666,0.344-1.186-0.04-1.794-0.111c-0.038-0.357-0.07-0.674-0.096-0.931c0.095-0.121,0.129-0.212,0.184-0.228
				c0.643-0.174,0.932-0.55,0.996-1.249c0.069-0.754,0.333-1.847,0.516-2.591c0.025-0.098,0.087-0.188,0.187-0.398
				C32.656,45.09,32.642,47.863,32.43,49.391z M33.183,28.485c0.256,0.12,0.196,0.372,0.198,0.565
				c0.007,1.21-0.005,2.419-0.013,3.627c-0.006,1.173-0.028,2.344-0.166,3.509c-0.028,0.229-0.073,0.442-0.431,0.403
				c-0.033-0.16-0.096-0.333-0.098-0.508c-0.03-2.495,0.164-4.979,0.373-7.462C33.051,28.572,33.134,28.532,33.183,28.485z
				 M23.448,52.606c-0.162,0.417-0.323,0.856-0.508,1.286c-0.037,0.084-0.166,0.175-0.255,0.178
				c-0.163,0.005-0.26-0.127-0.249-0.287c0.037-0.505,0.114-1.009,0.134-1.514c0.047-1.271,0.072-2.542,0.107-3.817
				c0.257,0,0.275,0.199,0.3,0.361c0.089,0.575,0.168,1.152,0.237,1.729C23.299,51.226,23.37,51.912,23.448,52.606z M23.87,3.447
				c0.212-0.108,0.295-0.189,0.379-0.188c1.341,0.024,2.688-0.146,4.01,0.067c0.141,0.286,0.023,0.449-0.212,0.532
				c-0.135,0.045-0.292,0.068-0.431,0.046c-1.05-0.163-2.108-0.193-3.166-0.244C24.293,3.653,24.14,3.55,23.87,3.447z M25.174,9.241
				c-0.13,1.415-0.253,2.748-0.376,4.082c-0.041,0.003-0.08,0.006-0.121,0.009c-0.031-0.145-0.077-0.291-0.092-0.437
				c-0.072-0.726-0.146-1.451-0.202-2.178c-0.027-0.363-0.046-0.729-0.021-1.09C24.385,9.305,24.542,9.24,25.174,9.241z
				 M26.418,42.137c0.122,0.251-0.01,0.491-0.067,0.724c-0.161,0.658-0.352,1.663-0.578,2.5c-0.145-0.278-0.248-0.738-0.251-0.849
				c-0.013-0.469-0.003-0.939,0.012-1.408c0.017-0.48,0.279-0.81,0.688-1.027C26.264,42.055,26.349,42.114,26.418,42.137z
				 M11.179,3.13c0.987-0.412,1.77-0.197,2.709,0c-0.227,0.182-0.321,0.321-0.436,0.34C12.726,3.591,12.009,3.577,11.179,3.13z
				 M19.611,3.574c1.061-0.52,2.005-0.317,3.004-0.358c-0.07,0.146-0.102,0.288-0.144,0.291C21.583,3.571,20.697,3.742,19.611,3.574
				z M3.603,6.183C3.88,6.114,4.16,6.035,4.373,6.397c-0.202,0.419-0.494,0.791-0.739,1.34C3.338,6.889,3.338,6.889,3.603,6.183z
				 M24.156,22.74c0.47,0.738,0.507,1.747,0.306,2.674C24.055,24.744,24.155,23.376,24.156,22.74z M22.98,33.703
				c0.211,0.483,0.278,0.902,0.233,1.329c-0.01,0.096-0.173,0.203-0.289,0.246c-0.049,0.019-0.215-0.107-0.224-0.181
				C22.645,34.64,22.678,34.19,22.98,33.703z M53.333,13.941c0.132-0.106,0.244-0.259,0.386-0.297
				c0.225-0.06,0.296,0.134,0.316,0.319c0.012,0.103,0.013,0.222-0.028,0.312c-0.038,0.087-0.127,0.195-0.21,0.211
				c-0.083,0.017-0.221-0.042-0.276-0.113C53.438,14.269,53.406,14.122,53.333,13.941z M19.445,59.918
				c-0.465,0.805-0.465,0.805-1.04,0.796c0.008-0.06-0.006-0.155,0.029-0.177C18.766,60.324,19.107,60.123,19.445,59.918z
				 M5.689,3.362C5.057,3.764,4.583,3.475,3.94,3.476C4.734,3.185,4.734,3.185,5.689,3.362z M33.343,26.638
				c-0.023,0.01-0.047,0.018-0.072,0.027c-0.009-0.034-0.02-0.067-0.028-0.101C33.277,26.589,33.31,26.613,33.343,26.638z"/>
		</g>
		<g>
			<path fill="#63A70A" d="M227.092,38.336c0.157,0.153,0.098,0.085,0.161,0.181c0.904,1.391,1.714,1.835,1.837,1.926
				c0.146,0.112,0.219,0.265,0.598-0.07c1.09-0.964,1.894-1.56,1.924-1.586c0.16-0.137,0.906-0.687,1.164-0.849
				c0.047-0.028,0.074-0.083,0.111-0.126c0.025-0.031,0.053-0.091,0.074-0.09c0.174,0.011,0.264-0.144,0.4-0.199
				c0.16-0.063,0.384-0.159,0.484-0.308c0.028-0.043,0.084-0.075,0.133-0.102c0.198-0.11,0.402-0.093,0.606-0.194
				c0.167-0.084,0.347-0.143,0.46-0.306c0.018-0.025,0.051-0.042,0.079-0.057c0.217-0.126,0.435-0.251,0.651-0.374
				c0.051-0.027,0.103-0.062,0.156-0.067c0.225-0.021,0.394-0.167,0.549-0.292c0.27-0.215,0.584-0.301,0.885-0.431
				c0.162-0.07,0.324-0.147,0.482-0.229c0.084-0.045,0.152-0.121,0.24-0.158c0.217-0.092,0.436-0.177,0.659-0.251
				c0.267-0.088,0.509-0.329,0.828-0.158c0.019,0.01,0.048,0.006,0.071,0c0.237-0.058,0.51,0.004,0.707-0.205
				c0.012-0.014,0.043-0.015,0.066-0.014c0.441,0.025,0.844-0.137,1.254-0.265c0.076-0.024,0.157-0.057,0.235-0.055
				c0.259,0.007,0.518,0.026,0.776,0.045c0.301,0.023,0.601,0.048,0.898,0.076c0.104,0.009,0.208,0.028,0.312,0.048
				c0.158,0.032,0.317,0.068,0.478,0.103c0.108,0.025,0.219,0.054,0.328,0.08c0.261,0.062,0.526,0.186,0.784,0.171
				c0.49-0.029,0.949,0.111,1.426,0.16c0.169,0.017,0.338,0.047,0.5,0.096c0.365,0.11,0.729,0.231,1.089,0.352
				c0.077,0.025,0.149,0.063,0.226,0.094c0.228,0.093,0.45,0.186,0.68,0.275c0.211,0.084,0.437,0.143,0.631,0.253
				c0.389,0.22,0.814,0.316,1.234,0.437c0.295,0.083,0.599,0.029,0.896-0.028c0.027-0.005,0.059-0.004,0.086-0.008
				c1.667,0.091,3.334,0.029,4.999,0.064c1.114,0.022,2.231,0.072,3.337,0.294c1.553,0.314,3.123,0.421,4.698,0.135
				c0.272-0.049,0.558-0.102,0.813-0.211c1.45-0.619,2.918-1.211,4.119-2.282c0.551-0.49,1.172-0.86,1.842-1.189
				c0.713-0.349,1.319-0.915,1.969-1.393c0.336-0.25,0.672-0.5,0.988-0.776c0.502-0.435,0.982-0.891,1.479-1.335
				c0.861-0.776,1.627-1.637,2.24-2.626c0.074-0.119,0.178-0.228,0.22-0.357c0.419-1.24,1.229-2.278,1.759-3.458
				c0.473-1.057,1.115-2.033,1.575-3.084c0.646-1.474,1.517-2.852,1.913-4.434c0.376-0.562,0.467-1.242,0.734-1.843
				c0.379-0.841,0.566-1.732,0.739-2.62c0.146-0.761,0.411-1.484,0.573-2.234c0.133-0.611,0.205-1.238,0.27-1.861
				c0.056-0.556,0.021-1.122,0.096-1.673c0.101-0.766,0.152-1.523,0.115-2.298c-0.028-0.588,0.064-1.182,0.11-1.773
				c0.009-0.104,0.06-0.204,0.063-0.309c0.035-0.712-0.536-1.158-1.156-0.847c-0.479,0.242-0.951,0.41-1.486,0.461
				c-0.306,0.028-0.625,0.143-0.894,0.297c-1.075,0.614-2.306,0.815-3.425,1.311c-0.559,0.246-1.217,0.264-1.834,0.371
				c-0.375,0.066-0.758,0.115-1.139,0.161c-0.172,0.021-0.351,0.037-0.521,0.015c-0.624-0.08-1.235-0.186-1.876-0.049
				c-0.291,0.062-0.623-0.049-0.934-0.098c-1.445-0.222-2.89-0.431-4.359-0.483c-0.868-0.031-1.744-0.198-2.59-0.411
				c-0.775-0.196-1.531-0.145-2.289-0.049c-0.5,0.063-0.976,0.079-1.461-0.035c-0.619-0.144-1.244-0.151-1.875-0.065
				c-0.346,0.046-0.695,0.058-1.043,0.079c-0.104,0.007-0.215-0.03-0.313-0.008c-0.509,0.119-1.008,0.329-1.521,0.357
				c-0.521,0.028-1.035-0.01-1.556,0.147c-0.692,0.211-1.407,0.323-2.138,0.381c-0.444,0.036-0.896,0.173-1.311,0.345
				c-0.617,0.254-1.244,0.45-1.889,0.617c-0.992,0.256-1.898,0.672-2.675,1.382c-0.317,0.292-0.763,0.502-1.187,0.611
				c-0.65,0.17-1.054,0.662-1.539,1.038c-0.358,0.281-0.718,0.515-1.133,0.718c-0.511,0.251-1.086,0.527-1.324,1.134
				c-0.084,0.215-0.263,0.292-0.444,0.406c-0.323,0.198-0.63,0.439-0.892,0.712c-1.177,1.211-2.166,2.561-2.963,4.05
				c-0.146,0.275-0.397,0.5-0.517,0.784c-0.511,1.226-1.028,2.451-1.466,3.703c-0.24,0.688-0.317,1.433-0.491,2.146
				c-0.118,0.479-0.173,0.961-0.21,1.447c-0.028,0.046-0.053,0.093-0.083,0.137c-0.082,0.117-0.119,0.24-0.097,0.367
				c0.104,0.542,0,1.067-0.104,1.594c-0.081,0.415-0.22,0.818-0.199,1.25c0.004,0.078-0.015,0.167-0.052,0.236
				c-0.151,0.289-0.137,0.608-0.136,0.91c0.002,0.386-0.018,0.756-0.166,1.119c-0.201,0.489-0.378,0.987-0.571,1.48
				c-0.091,0.234-0.176,0.471-0.282,0.7c-0.134,0.286-0.279,0.569-0.435,0.846c-0.093,0.169-0.198,0.333-0.315,0.486
				c-0.193,0.25-0.414,0.479-0.601,0.731c-0.192,0.255-0.416,0.469-0.66,0.674c-0.146,0.12-0.28,0.288-0.336,0.463
				c-0.042,0.132-0.132,0.193-0.198,0.285c-0.045,0.057-0.111,0.094-0.158,0.15c-0.244,0.281-0.479,0.566-0.724,0.849
				c-0.116,0.132-0.224,0.277-0.36,0.384c-0.231,0.182-0.484,0.329-0.699,0.547c-0.354,0.363-1.982,1.894-2.021,1.931
				c-0.398,0.403-0.764,0.822-1.216,1.163c-0.108,0.082-0.127,0.146-0.062,0.27C227.027,38.211,227.052,38.296,227.092,38.336z
				 M244.957,21.367c0.148-0.082,0.268-0.223,0.398-0.335c1.773-1.496,3.648-2.827,5.761-3.819c0.788-0.372,1.542-0.823,2.315-1.236
				c0.213-0.114,0.426-0.254,0.655-0.314c1.16-0.299,2.235-0.811,3.329-1.282c1.908-0.822,3.839-1.544,5.965-1.525
				c0.344,0.004,0.693-0.109,1.031-0.196c1.256-0.327,2.497-0.277,3.719,0.16c0.11,0.04,0.199,0.14,0.342,0.243
				c-0.615,0.654-1.363,0.812-2.104,0.995c-1.015,0.253-2.033,0.495-3.039,0.786c-0.906,0.263-1.81,0.557-2.695,0.89
				c-1.007,0.378-2.052,0.676-2.97,1.282c-0.285,0.188-0.645,0.262-0.957,0.414c-0.344,0.167-0.732,0.304-0.995,0.562
				c-0.371,0.368-0.825,0.523-1.278,0.688c-0.593,0.215-1.185,0.396-1.642,0.871c-0.14,0.145-0.356,0.215-0.544,0.308
				c-0.312,0.154-0.643,0.281-0.943,0.454c-0.816,0.466-1.628,0.942-2.433,1.432c-0.358,0.219-0.769,0.416-1.024,0.728
				c-0.556,0.675-1.345,0.998-2.023,1.479c-0.34,0.24-0.711,0.446-1.092,0.609c-0.408,0.175-0.666,0.489-0.924,0.816
				c-0.648,0.144-1.063,0.67-1.567,1.029c-1.005,0.714-1.849,1.635-2.396,2.746c-0.306,0.621-0.763,0.827-1.475,1.004
				c0.509-1.84,1.426-3.289,2.443-4.673c0.492-0.671,1.145-1.228,1.658-1.887C243.174,22.699,243.952,21.914,244.957,21.367z
				 M263.624,3.371c-0.25,0.013-0.498,0.038-0.752,0.037c-0.613,0-1.241-0.051-1.854,0.063c-0.173,0.033-0.365,0.008-0.55,0.007
				c-0.226-0.001-0.413,0.066-0.467,0.264c-0.062,0.217-0.244,0.273-0.449,0.312c-0.159,0.032-0.329,0.038-0.495,0.052
				c-0.309,0.028-0.627,0.026-0.933,0.087c-1.142,0.229-2.34,0.256-3.461,0.621c-0.06,0.02-0.123,0.026-0.185,0.033
				c-0.263,0.029-0.523,0.055-0.918,0.098c0.209-0.135,0.301-0.214,0.407-0.256c0.464-0.183,0.925-0.368,1.367-0.594
				c0.146-0.074,0.312-0.114,0.468-0.168c0.098-0.034,0.207-0.049,0.297-0.094c0.646-0.335,1.354-0.466,2.073-0.544
				c0.308-0.033,0.603-0.111,0.904-0.146c0.261-0.03,0.467-0.095,0.563-0.32c0.063-0.148,0.228-0.174,0.4-0.147
				c0.121,0.019,0.242,0.042,0.359,0.069c0.34,0.082,0.666,0.116,1.013,0.065c0.387-0.057,0.793,0.074,1.188,0.149
				C262.961,3.027,263.307,3.128,263.624,3.371z M253.402,9.871c-2.487,1.937-5.428,3.095-8.348,4.077
				c-0.158-0.274-0.006-0.351,0.141-0.427c0.593-0.309,1.226-0.562,1.777-0.932c1.444-0.968,3.107-1.464,4.693-2.133
				c0.35-0.146,0.673-0.344,1.025-0.473C252.912,9.903,253.166,9.905,253.402,9.871z M255.195,23.161
				c-0.471,0.694-0.812,1.302-1.258,1.821c-0.254,0.293-0.653,0.522-1.037,0.645c-0.797,0.253-1.621,0.417-2.428,0.604
				c-0.065,0.015-0.152-0.046-0.318-0.103c0.174-0.188,0.303-0.381,0.484-0.511c0.859-0.617,1.721-1.265,2.647-1.834
				C253.799,23.468,254.329,23.069,255.195,23.161z M282.098,8.214c0.045,0.997-0.052,1.148-1.129,1.728
				c-0.15-0.214-0.281-0.451-0.463-0.637c-0.154-0.16-0.365-0.262-0.598-0.418c0.294-0.57,0.857-0.815,1.251-1.229
				C281.576,7.71,281.84,7.974,282.098,8.214z M265.396,18.451c0.377,0.161,0.604,0.258,0.912,0.391
				c-0.138,0.256-0.203,0.501-0.361,0.652c-0.813,0.778-1.641,1.568-2.84,1.875c0.22-0.738,0.266-0.785,0.976-1.493
				C264.525,19.433,264.934,18.959,265.396,18.451z M281.332,3.991c-0.264,0.369-0.4,0.619-0.59,0.824
				c-0.358,0.383-0.512,0.351-1.152-0.145C279.941,4.228,280.246,4.1,281.332,3.991z M257.757,25.097
				c-0.498,0.728-1.013,1.146-1.71,1.339c-0.113,0.031-0.35-0.082-0.404-0.185c-0.054-0.097,0-0.338,0.094-0.401
				C256.285,25.482,256.9,25.241,257.757,25.097z M249.615,28.271c0.02,0.521-0.202,0.818-0.555,0.993
				c-0.33,0.166-0.623-0.05-0.912-0.306C248.468,28.48,249.014,28.419,249.615,28.271z M252.305,4.967
				c-0.621,0.423-1.275,0.653-2.066,0.591c0.179-0.101,0.35-0.214,0.539-0.296c0.252-0.109,0.518-0.201,0.779-0.288
				C251.773,4.9,252.001,4.803,252.305,4.967z M265.743,15.016c-0.583,0.588-1.041,0.92-1.767,0.5
				C264.525,15.158,264.816,15.071,265.743,15.016z M271.753,7.458c-0.165,0.513-0.666,0.398-0.978,0.518
				c-0.242-0.122-0.287-0.239-0.145-0.364C270.927,7.351,271.279,7.298,271.753,7.458z M241.324,17.67
				c-0.167,0.209-0.312,0.441-0.51,0.614c-0.063,0.056-0.289-0.007-0.387-0.085c-0.14-0.107-0.129-0.305,0.027-0.395
				c0.223-0.13,0.479-0.208,0.719-0.308C241.225,17.554,241.273,17.612,241.324,17.67z"/>
		</g>
	</g>
	<g>
		<g>
			<g>
				<path fill="#007934" d="M260.373,132.16c-0.708,0-1.273,0-1.859,0c0.073-0.336,0.121-0.617,0.196-0.892
					c0.09-0.322,0.446-0.47,0.669-0.255C259.707,131.326,260.104,131.587,260.373,132.16z"/>
			</g>
			<g>
				<path fill="#007934" d="M261.84,133.578c-0.213,0.211-0.434,0.379-0.734,0.215c-0.02-0.01-0.035-0.068-0.024-0.088
					C261.294,133.362,261.591,133.655,261.84,133.578z"/>
			</g>
			<g>
				<path fill="#007934" d="M255.74,127.895c-0.051,0.015-0.077,0.028-0.104,0.026c-0.009,0-0.015-0.041-0.021-0.062
					C255.65,127.869,255.686,127.878,255.74,127.895z"/>
			</g>
			<g>
				<path fill="#007934" d="M232.336,99.643c0.082-0.123,0.139-0.263,0.24-0.36c0.822-0.779,1.71-1.498,2.463-2.337
					c0.611-0.683,1.332-1.237,1.975-1.88c0.594-0.594,1.199-1.18,1.786-1.783c0.611-0.63,1.127-1.354,1.875-1.851
					c0.177-0.118,0.312-0.31,0.441-0.485c0.438-0.588,0.952-1.091,1.51-1.572c1.81-1.556,3.565-3.17,5.347-4.76
					c1.203-1.072,2.411-2.144,3.469-3.371c0.235-0.273,0.537-0.494,0.834-0.705c0.357-0.254,0.764-0.445,1.111-0.711
					c0.357-0.274,0.768-0.4,1.168-0.58c1.107-0.492,2.297-0.392,3.446-0.572c1.228-0.191,2.462-0.34,3.69-0.538
					c0.234-0.039,0.471-0.195,0.668-0.351c0.133-0.104,0.274-0.295,0.281-0.451c0.028-0.729,0.045-1.465,0-2.192
					c-0.023-0.405-0.357-0.634-0.779-0.625c-0.545,0.012-1.104-0.021-1.633,0.085c-0.951,0.191-1.898,0.119-2.85,0.086
					c-1.393-0.051-2.783-0.17-4.176-0.177c-2.973-0.015-5.947,0.041-8.92,0.032c-0.949-0.002-1.9-0.116-2.85-0.176
					c-0.258-0.017-0.516-0.039-0.77-0.025c-0.695,0.033-1.391,0.068-2.083,0.139c-0.201,0.021-0.433,0.107-0.575,0.242
					c-0.431,0.406-0.418,0.936-0.222,1.432c0.18,0.453,0.47,0.785,1.062,0.79c0.95,0.011,1.893,0.076,2.825,0.361
					c0.545,0.166,0.953,0.42,1.185,0.882c0.674,1.361,0.759,1.165,0.025,2.516c-0.341,0.629-0.73,1.164-1.367,1.525
					c-0.518,0.295-0.918,0.715-1.158,1.285c-0.1,0.229-0.28,0.436-0.457,0.615c-0.438,0.443-0.893,0.871-1.346,1.295
					c-0.459,0.429-0.88,0.875-1.216,1.414c-0.329,0.525-0.683,1.055-1.12,1.488c-1.037,1.034-2.123,2.021-3.199,3.016
					c-1.533,1.418-3.031,2.875-4.429,4.431c-0.099,0.108-0.196,0.226-0.317,0.302c-0.951,0.596-1.633,1.461-2.355,2.289
					c-0.482,0.553-0.984,1.09-1.505,1.608c-0.22,0.219-0.438,0.513-0.804,0.426c-0.219-1.31-0.418-2.603-0.656-3.887
					c-0.121-0.661-0.141-1.304,0.044-1.959c0.329-1.163,0.367-2.368,0.401-3.563c0.029-1.025-0.119-2.055-0.066-3.076
					c0.07-1.418,0.014-2.861,0.509-4.235c0.06-0.16,0.032-0.358,0.033-0.536c0.002-0.219-0.037-0.439-0.006-0.65
					c0.104-0.728,0.202-1.457,0.36-2.171c0.146-0.651,0.373-1.278,1.143-1.473c0.104-0.024,0.202-0.093,0.287-0.159
					c1.105-0.852,2.421-1.045,3.742-1.076c0.891-0.021,1.74-0.234,2.617-0.305c0.408-0.033,0.629-0.254,0.649-0.626
					c0.031-0.623,0.046-1.249,0-1.87c-0.041-0.534-0.43-0.841-0.974-0.859c-0.143-0.004-0.289,0.021-0.434,0.051
					c-1.414,0.295-2.84,0.267-4.27,0.176c-0.618-0.04-1.244-0.04-1.862-0.01c-1.901,0.1-3.803,0.274-5.705,0.322
					c-2.349,0.059-4.698,0.024-7.047,0.014c-1.024-0.004-2.062,0.009-3.077-0.101c-0.734-0.081-1.457-0.073-2.188-0.042
					c-1.684,0.067-3.364,0.307-5.041-0.05c-0.07-0.015-0.146-0.013-0.221-0.009c-0.31,0.014-0.556,0.226-0.595,0.535
					c-0.049,0.4-0.104,0.802-0.118,1.201c-0.033,1.039,0.358,1.459,1.407,1.535c0.146,0.012,0.293-0.016,0.44-0.013
					c0.402,0.008,0.811-0.015,1.209,0.038c1.484,0.188,2.869,0.602,3.869,1.831c0.16,0.196,0.381,0.343,0.563,0.521
					c1.097,1.082,1.946,2.291,2.054,3.895c0.01,0.145,0.032,0.311,0.111,0.42c0.459,0.645,0.432,1.387,0.447,2.117
					c0.016,0.662-0.02,1.324,0.013,1.982c0.091,1.868,0.194,3.734-0.089,5.596c-0.021,0.146-0.021,0.295-0.014,0.441
					c0.08,1.609,0.076,3.219,0.104,4.826c0.018,0.996-0.021,1.979-0.161,2.961c-0.046,0.318-0.017,0.652-0.004,0.979
					c0.013,0.293,0.065,0.584,0.067,0.875c0.005,0.881-0.008,1.763-0.004,2.644c0.002,0.903-0.207,1.808-0.012,2.718
					c0.045,0.206-0.021,0.438-0.048,0.654c-0.09,0.762-0.184,1.521-0.282,2.332c0.428,0.604,0.457,1.324,0.418,2.072
					c-0.033,0.658,0.006,1.318,0.008,1.979c0.002,1.321,0.035,2.645-0.014,3.963c-0.031,0.881-0.015,1.747,0.074,2.629
					c0.1,0.977,0.135,1.967-0.07,2.955c-0.129,0.621-0.478,1.157-0.613,1.756c-0.217,0.938-0.805,1.532-1.555,2.041
					c-0.607,0.41-1.201,0.844-1.799,1.269c-1.335,0.958-2.844,1.312-4.458,1.192c-0.563-0.043-1.004,0.131-1.403,0.481
					c-0.27,0.233-0.375,0.538-0.325,0.89c0.02,0.146,0.067,0.285,0.106,0.426c0.2,0.728,0.241,0.77,0.954,0.813
					c1.503,0.099,3.003,0.056,4.505-0.095c1.346-0.135,2.696-0.285,4.049-0.329c1.76-0.058,3.521-0.015,5.28-0.015
					c2.163,0,4.328-0.004,6.493,0.004c0.363,0.002,0.729,0.05,1.092,0.086c0.695,0.07,1.381,0.105,2.084,0.018
					c0.572-0.074,1.206-0.117,1.744,0.045c0.971,0.293,1.975,0.108,2.941,0.354c0.357,0.092,0.738-0.236,0.798-0.602
					c0.04-0.25,0.039-0.514,0.026-0.77c-0.031-0.657-0.135-0.758-0.83-0.908c-0.178-0.039-0.354-0.096-0.526-0.15
					c-0.56-0.188-1.123-0.289-1.716-0.345c-1.026-0.093-2.023-0.345-2.831-1.065c-0.642-0.569-1.245-1.146-1.065-2.137
					c0.037-0.205-0.014-0.445-0.086-0.646c-0.376-1.043-0.492-2.129-0.551-3.227c-0.012-0.219-0.025-0.449-0.111-0.646
					c-0.297-0.673-0.248-1.377-0.154-2.056c0.086-0.596,0.07-1.182-0.027-1.75c-0.135-0.771-0.118-1.531-0.07-2.301
					c0.02-0.328,0.053-0.664,0.01-0.986c-0.189-1.489,0.047-3.01-0.343-4.482c-0.046-0.172-0.012-0.365-0.012-0.55
					c0.004-1.466,0.015-2.933,0.008-4.396c-0.002-0.555,0.093-1.074,0.362-1.617c0.178,0.074,0.328,0.1,0.428,0.187
					c0.438,0.39,0.861,0.795,1.285,1.2c0.659,0.636,1.314,1.275,1.97,1.919c0.419,0.411,0.862,0.802,1.233,1.254
					c0.65,0.789,1.255,1.62,1.882,2.429c0.158,0.203,0.321,0.402,0.504,0.583c0.831,0.824,1.636,1.673,2.247,2.683
					c0.309,0.511,0.713,0.914,1.188,1.277c1.808,1.372,3.225,3.074,4.324,5.064c0.603,1.085,1.268,2.148,2.35,2.859
					c0.179,0.119,0.33,0.291,0.475,0.455c1.051,1.182,1.895,2.521,2.71,3.863c0.651,1.066,0.354,2.217-0.989,2.589
					c-0.418,0.116-0.867,0.134-1.305,0.183s-0.878,0.07-1.314,0.127c-0.248,0.031-0.373,0.213-0.383,0.461
					c-0.035,0.893,0.627,1.623,1.506,1.65c0.588,0.018,1.184-0.039,1.762,0.043c0.594,0.086,1.164,0.057,1.744-0.054
					c0.572-0.108,1.145-0.173,1.734-0.044c0.35,0.072,0.742,0.07,1.094,0c1.363-0.273,2.701-0.049,4.047,0.133
					c1.82,0.242,3.646,0.413,5.486,0.295c0.731-0.047,1.461-0.175,2.19-0.174c1.981,0.002,3.963-0.175,5.94,0.051
					c0.393,0.045,0.633-0.145,0.799-0.451c0.084-0.156,0.131-0.342,0.146-0.52c0.055-0.707-0.055-1.384-0.429-2.049
					c-1.25-0.325-2.521-0.662-3.797-0.984c-0.517-0.13-0.935-0.385-1.312-0.76c-0.853-0.855-1.706-1.713-2.604-2.521
					c-0.953-0.861-1.919-1.703-2.688-2.748c-0.146-0.203-0.373-0.349-0.572-0.51c-0.604-0.492-1.112-1.076-1.472-1.762
					c-0.248-0.469-0.571-0.832-0.961-1.178c-0.715-0.633-1.396-1.303-2.071-1.975c-0.205-0.203-0.35-0.467-0.52-0.701
					c-0.236-0.322-0.473-0.646-0.707-0.971c-0.707-0.982-1.538-1.841-2.484-2.605c-0.447-0.361-0.771-0.877-1.152-1.325
					c-0.188-0.224-0.364-0.462-0.573-0.664c-0.931-0.897-1.756-1.901-2.376-3.017c-0.682-1.229-1.73-2.053-2.7-2.984
					c-0.526-0.506-1.021-1.048-1.522-1.58c-0.201-0.211-0.383-0.443-0.586-0.654c-0.834-0.867-1.561-1.842-2.506-2.604
					c-0.056-0.046-0.109-0.103-0.145-0.164c-0.432-0.75-1.11-1.249-1.768-1.771C232.914,100.505,232.501,100.193,232.336,99.643z
					 M250.846,122.289c0.313,0.078,0.475,0.39,0.607,0.775c-0.758,0.721-1.686,1.027-2.665,1.188
					c-0.574,0.095-1.163,0.115-1.745,0.142c-0.159,0.006-0.322-0.089-0.664-0.192c0.434-0.186,0.684-0.311,0.941-0.397
					c0.723-0.243,1.463-0.435,2.164-0.72C249.941,122.896,250.35,122.585,250.846,122.289z M221.508,86.335
					c0.223,0.724,0.073,1.172-0.281,1.565c-0.121,0.132-0.287,0.229-0.447,0.315c-0.758,0.406-1.344,1.005-1.883,1.656
					c-0.494,0.6-1.104,1.063-1.719,1.526c-0.041,0.031-0.125,0.004-0.267,0.004c0.282-0.368,0.501-0.743,0.804-1.03
					C219.009,89.141,220.036,87.655,221.508,86.335z M244.309,121.121c0.068-0.123,0.078-0.17,0.104-0.184
					c1.151-0.527,2.306-1.061,3.579-1.236c0.496-0.068,0.838,0.146,1.056,0.709c-0.286,0.01-0.521-0.002-0.75,0.025
					c-0.84,0.105-1.647,0.342-2.417,0.68c-0.42,0.186-0.836,0.268-1.279,0.199C244.508,121.3,244.427,121.201,244.309,121.121z
					 M253.596,131.052c0.129-0.188,0.156-0.277,0.211-0.303c0.99-0.461,1.977-0.926,2.979-1.353c0.213-0.089,0.49-0.052,0.734-0.034
					c0.078,0.01,0.187,0.141,0.205,0.23c0.018,0.082-0.047,0.203-0.11,0.271c-0.071,0.076-0.181,0.124-0.282,0.158
					c-1.037,0.348-2.072,0.693-3.114,1.021C254.057,131.096,253.863,131.052,253.596,131.052z M218.521,120.917
					c-0.035,0.463-0.041,0.752-0.086,1.033c-0.021,0.137-0.084,0.297-0.18,0.389c-0.479,0.461-1.001,0.854-1.709,0.867
					c-0.191,0.002-0.347-0.195-0.277-0.369c0.053-0.133,0.099-0.287,0.196-0.383C217.038,121.906,217.604,121.339,218.521,120.917z
					 M217.594,111.808c1.11-1.59,1.7-2.198,2.641-2.748c0.293,0.449,0.34,0.686,0.048,0.908c-0.83,0.644-1.548,1.439-2.515,1.908
					C217.748,111.884,217.708,111.854,217.594,111.808z M212.73,91.066c-0.189-0.473,0.062-0.788,0.093-1.121
					c0.03-0.322,0.069-0.645,0.104-0.984c0.438-0.274,0.858-0.539,1.271-0.799c0.063,0.07,0.097,0.092,0.108,0.123
					c0.01,0.031,0.008,0.075-0.006,0.104c-0.092,0.196-0.166,0.407-0.293,0.579C213.538,89.599,213.307,90.378,212.73,91.066z
					 M213.02,129.707c-0.513,0.479-0.99,0.926-1.473,1.367c-0.326,0.303-0.713,0.328-1.234,0.217c0.33-0.33,0.586-0.623,0.877-0.871
					c0.358-0.305,0.74-0.59,1.131-0.854C212.533,129.419,212.79,129.314,213.02,129.707z M218.699,92.876
					c0.531-0.688,1.035-1.373,1.938-1.824c-0.023,0.287,0.038,0.551-0.066,0.664c-0.437,0.479-0.907,0.924-1.396,1.351
					C219.02,93.203,218.846,93.083,218.699,92.876z M215.584,96.22c0.785-1.277,1.102-1.629,1.646-1.826
					C217.035,95.402,216.531,95.962,215.584,96.22z M218.73,114.085c0.442-0.732,1.018-1.33,1.826-1.799
					c0.019,0.196,0.072,0.33,0.027,0.389C220.109,113.311,219.579,113.884,218.73,114.085z M233.859,105.845
					c0.498-0.366,1.043-0.489,1.602-0.537c0.126-0.012,0.271,0.178,0.455,0.311C235.234,106.22,234.525,105.859,233.859,105.845z
					 M202.441,133.36c0.804-0.217,1.543-0.386,2.316,0.07c-0.685,0.479-1.398,0.327-2.102,0.223
					C202.588,133.645,202.54,133.501,202.441,133.36z M221.203,120.128c-0.18-0.683-0.014-1.135,0.255-1.561
					c0.045-0.07,0.217-0.15,0.254-0.123c0.099,0.075,0.21,0.201,0.218,0.312C221.962,119.321,221.523,119.612,221.203,120.128z
					 M212.749,118.262c-0.378-0.554-0.332-1.085-0.198-1.623c0.449,0.103,0.624,0.239,0.559,0.498
					C213.014,117.518,212.872,117.888,212.749,118.262z M238.823,116.238c0.6-0.652,1.395-0.586,2.321-0.869
					c-0.416,0.496-0.815,0.549-1.149,0.674C239.648,116.173,239.309,116.485,238.823,116.238z M214.098,80.656
					c0.271-0.664,0.832-0.976,1.527-1.291c-0.035,0.201-0.02,0.33-0.074,0.381C215.133,80.132,214.695,80.501,214.098,80.656z
					 M254.807,127.041c-0.412-0.258-0.826-0.516-1.242-0.772C254.154,125.855,254.413,125.981,254.807,127.041z M242.752,118.895
					c0.561-0.58,1.232-0.288,1.946-0.421C244.098,119.044,244.098,119.044,242.752,118.895z M213.482,113.501
					c-0.186,0.508-0.406,0.769-0.811,0.938c-0.251-0.276-0.188-0.577-0.083-0.938C212.852,113.501,213.121,113.501,213.482,113.501z
					 M213.564,93.853c0.043-0.32,0.049-0.562,0.112-0.785c0.06-0.201,0.202-0.285,0.716-0.54
					C214.309,93.146,214.262,93.228,213.564,93.853z M217.693,106.828c-0.528,0.758-1.135,0.99-1.86,1.452
					C216.473,107.466,216.834,107.182,217.693,106.828z M233.766,103.434c-0.369,0.377-0.766,0.325-1.181,0.33
					c0.274-0.53,0.476-0.71,0.821-0.652C233.535,103.134,233.641,103.315,233.766,103.434z M244.691,133.901
					c0.496-0.378,0.861-0.502,1.232-0.604c0.074-0.021,0.262,0.082,0.258,0.106c-0.021,0.127-0.05,0.304-0.14,0.354
					C245.691,133.971,245.297,133.953,244.691,133.901z M215.029,98.522c-0.232,0.386-0.397,0.655-0.562,0.931
					c-0.423-0.271-0.486-0.429-0.275-0.646C214.366,98.625,214.561,98.47,215.029,98.522z M246.016,79.205
					c-0.244,0.461-0.543,0.596-0.852,0.697c-0.066,0.021-0.215-0.062-0.249-0.134c-0.039-0.081-0.031-0.261,0.024-0.298
					C245.232,79.27,245.55,79.1,246.016,79.205z M211.052,79.632c0.323-0.137,0.605-0.254,0.95-0.398
					c0.113,0.499-0.23,0.698-0.354,1.025c-0.156-0.09-0.268-0.122-0.33-0.193C211.227,79.958,211.168,79.826,211.052,79.632z
					 M249.205,121.708c0.171-0.334,0.26-0.514,0.384-0.76c0.216,0.284,0.38,0.504,0.629,0.832
					C249.85,121.755,249.617,121.738,249.205,121.708z M219.904,115.441c-0.279,0.357-0.489,0.791-1.03,0.896
					C219.077,115.796,219.077,115.796,219.904,115.441z M252.604,124.488c-0.365,0.452-0.811,0.596-1.35,0.567
					c0.045-0.101,0.055-0.138,0.075-0.164c0.019-0.026,0.048-0.06,0.079-0.067C251.805,124.71,252.204,124.6,252.604,124.488z
					 M238.208,113.998c-0.092,0.004-0.181,0.008-0.272,0.01c0.094-0.006,0.185-0.014,0.275-0.021L238.208,113.998z"/>
			</g>
			<g>
				<path fill="#007934" d="M176.667,126.518c-0.808-0.035-1.614-0.043-2.417-0.112c-1.021-0.09-2.043-0.209-3.057-0.359
					c-0.951-0.142-1.844-0.471-2.641-1.027c-0.48-0.338-0.98-0.643-1.453-0.99c-0.439-0.324-0.927-0.629-1.264-1.048
					c-0.926-1.146-1.945-2.187-3.057-3.149c-0.844-0.729-1.489-1.584-1.812-2.691c-0.224-0.766-0.51-1.551-1.08-2.141
					c-0.895-0.924-1.332-2.094-1.803-3.24c-0.443-1.081-0.814-2.195-1.188-3.307c-0.152-0.445-0.283-0.914-0.323-1.381
					c-0.095-1.095-0.116-2.195-0.188-3.292c-0.029-0.437-0.1-0.87-0.169-1.303c-0.071-0.433-0.19-0.86-0.243-1.293
					c-0.07-0.554,0.199-0.841,0.742-0.826c0.588,0.015,1.176,0.021,1.76,0.076c1.467,0.14,2.924,0.073,4.373-0.179
					c0.397-0.069,0.791-0.078,1.195-0.088c0.877-0.017,1.76-0.076,2.624-0.223c0.438-0.072,0.869-0.084,1.306-0.109
					c1.6-0.096,3.221,0.166,4.805-0.24c0.104-0.027,0.22-0.01,0.33-0.014c1.242-0.062,2.488-0.117,3.729-0.182
					c1.172-0.057,2.343-0.141,3.515-0.171c0.621-0.017,1.244,0.071,1.867,0.077c1.725,0.011,3.449-0.018,5.174,0.011
					c1.719,0.028,3.436-0.11,5.15-0.06c0.729,0.025,1.461,0.025,2.189,0.041c0.77,0.016,1.537,0.062,2.306,0.05
					c0.729-0.011,1.039-0.373,0.834-1.056c-0.175-0.584-0.185-1.164-0.138-1.742c0.088-1.09-0.194-2.102-0.541-3.109
					c-0.176-0.516-0.404-1.031-0.471-1.564c-0.115-0.914-0.386-1.789-0.568-2.683c-0.284-1.382-1.008-2.589-1.514-3.882
					c-1.076-1.525-2.021-3.146-3.322-4.509c-0.198-0.206-0.355-0.462-0.494-0.716c-0.184-0.338-0.43-0.582-0.789-0.729
					c-0.542-0.218-1.071-0.475-1.62-0.68c-0.353-0.131-0.642-0.332-0.94-0.545c-0.809-0.564-1.611-1.176-2.5-1.586
					c-0.99-0.457-2.057-0.786-3.121-1.035c-1.854-0.434-3.699-0.903-5.604-1.105c-0.977-0.105-1.945-0.346-2.904-0.574
					c-0.761-0.184-1.523-0.192-2.293-0.17c-0.182,0.006-0.363,0.053-0.544,0.053c-1.034-0.002-2.042,0.117-3.015,0.5
					c-0.338,0.134-0.717,0.154-1.064,0.255c-0.24,0.069-0.512,0.139-0.688,0.293c-0.399,0.351-0.866,0.557-1.347,0.735
					c-1.069,0.403-2.056,0.957-3.01,1.58c-0.826,0.541-1.642,1.104-2.56,1.5c-0.296,0.127-0.56,0.344-0.818,0.543
					c-0.317,0.244-0.629,0.504-0.922,0.779c-0.96,0.9-2.028,1.692-2.858,2.727c-0.39,0.483-0.75,0.994-1.11,1.5
					c-0.761,1.076-1.638,2.062-2.327,3.193c-1.251,2.057-2.229,4.207-2.652,6.59c-0.077,0.435-0.167,0.865-0.286,1.289
					c-0.433,1.553-0.874,3.104-1.324,4.651c-0.106,0.36-0.143,0.698-0.037,1.073c0.099,0.348,0.154,0.725,0.13,1.082
					c-0.088,1.316-0.195,2.63-0.336,3.941c-0.131,1.221-0.103,2.418,0.367,3.568c0.239,0.589,0.299,1.206,0.371,1.822
					c0.034,0.291,0.028,0.589,0.086,0.877c0.361,1.793,0.729,3.589,1.11,5.382c0.06,0.28,0.16,0.569,0.309,0.817
					c0.409,0.692,0.699,1.441,1.075,2.148c0.376,0.71,0.757,1.424,1.21,2.086c0.619,0.904,1.156,1.871,1.981,2.629
					c0.283,0.262,0.487,0.646,0.62,1.016c0.243,0.672,0.609,1.246,1.105,1.75c0.816,0.832,1.641,1.662,2.471,2.486
					c0.128,0.125,0.3,0.204,0.455,0.301c0.589,0.356,1.188,0.703,1.77,1.074c0.771,0.49,1.451,1.119,2.301,1.491
					c0.133,0.058,0.295,0.129,0.36,0.241c0.317,0.555,0.883,0.602,1.412,0.729c0.319,0.078,0.635,0.176,0.942,0.285
					c0.963,0.344,1.895,0.801,2.951,0.791c0.145-0.002,0.289,0.049,0.432,0.085c1.684,0.448,3.373,0.587,5.087,0.161
					c0.282-0.068,0.571-0.13,0.86-0.143c0.988-0.047,1.976-0.107,2.963-0.092c1.393,0.022,2.678-0.43,3.939-0.904
					c0.926-0.352,1.854-0.672,2.811-0.926c0.279-0.074,0.562-0.172,0.816-0.306c0.449-0.237,0.865-0.545,1.325-0.763
					c1.065-0.503,2.037-1.145,2.963-1.868c0.372-0.291,0.79-0.526,1.169-0.812c0.579-0.437,1.184-0.853,1.71-1.35
					c0.956-0.898,1.778-1.934,2.699-2.869c0.076-0.08,0.155-0.158,0.214-0.25c0.788-1.229,1.616-2.435,2.346-3.695
					c0.897-1.549,1.58-3.213,2.279-4.859c0.357-0.837,0.551-1.747,0.801-2.628c0.084-0.308-0.062-0.613-0.337-0.735
					c-0.366-0.166-0.733-0.338-1.118-0.445c-0.426-0.117-0.933-0.227-1.256,0.125c-0.513,0.55-1.183,1.006-1.306,1.852
					c-0.065,0.447-0.335,0.809-0.654,1.123c-0.469,0.461-0.978,0.887-1.409,1.38c-0.969,1.104-1.926,2.213-2.832,3.366
					c-0.906,1.146-1.974,2.044-3.347,2.583c-0.505,0.196-0.974,0.498-1.446,0.772c-0.822,0.475-1.601,1.029-2.551,1.254
					c-0.316,0.074-0.611,0.248-0.93,0.334c-0.741,0.199-1.489,0.529-2.232,0.523C179.004,126.354,177.84,126.548,176.667,126.518z
					 M156.876,93.998c-0.31-0.306-0.269-0.64-0.243-0.969c0.028-0.365,0.083-0.727,0.1-1.091c0.092-1.892,0.754-3.588,1.843-5.103
					c0.834-1.155,1.778-2.233,2.68-3.34c0.115-0.143,0.261-0.259,0.399-0.379c1.025-0.881,2.121-1.678,3.275-2.365
					c1.754-1.047,3.678-1.426,5.711-1.108c0.404,0.062,0.789,0.058,1.194,0.013c1.03-0.109,2.042-0.066,3.019,0.37
					c0.6,0.271,1.238,0.454,1.871,0.647c0.578,0.177,1.039,0.531,1.479,0.922c0.354,0.312,0.705,0.634,1.056,0.951
					c0.188,0.172,0.391,0.332,0.563,0.519c0.71,0.767,1.62,1.386,1.88,2.493c0.964,0.992,1.213,2.314,1.637,3.557
					c0.061,0.172,0.1,0.358,0.102,0.538c0.015,1.062,0.029,2.124,0.016,3.185c-0.005,0.375-0.16,0.529-0.539,0.563
					c-0.438,0.039-0.879,0.062-1.314,0.037c-0.519-0.028-1.019-0.026-1.516,0.16c-0.629,0.237-1.281,0.262-1.951,0.215
					c-0.834-0.058-1.674-0.129-2.506-0.146c-1.056-0.021-2.113,0.168-3.171,0.271c-0.981,0.098-1.963,0.209-2.944,0.297
					c-0.215,0.02-0.436-0.059-0.652-0.064c-0.438-0.012-0.885-0.065-1.311,0.002c-1.244,0.195-2.484,0.225-3.721-0.018
					c-1.023-0.199-2.053-0.113-3.07-0.035c-0.916,0.066-1.816,0.133-2.729-0.041C157.641,94.007,157.232,94.021,156.876,93.998z
					 M183.648,80.766c-0.191,0.128-0.32,0.267-0.478,0.313c-0.586,0.186-1.181,0.346-1.776,0.504
					c-0.133,0.035-0.289,0.058-0.42,0.025c-0.434-0.107-0.976-0.641-1.271-1.208c0.054-0.04,0.115-0.12,0.158-0.112
					c0.722,0.129,1.437,0.072,2.156-0.026C182.604,80.178,183.165,80.248,183.648,80.766z M154.021,120.83
					c0.358-1.146,0.762-2.308,1.576-3.295c0.379,0.467,0.555,1.146,0.305,1.508c-0.455,0.656-0.976,1.271-1.485,1.893
					C154.318,121.052,154.152,121.031,154.021,120.83z M150.593,111.55c-0.007-0.111-0.053-0.232-0.013-0.311
					c0.613-1.156,1.232-2.31,1.871-3.451c0.078-0.146,0.268-0.229,0.398-0.334c0.438,0.199,0.428,0.531,0.289,0.842
					c-0.145,0.328-0.349,0.642-0.568,0.929c-0.572,0.751-1.168,1.487-1.76,2.228C150.771,111.5,150.689,111.509,150.593,111.55z
					 M191.473,87.28c-1.297,0.873-3.021,1.583-4.216,1.773C187.9,88.292,189.952,87.398,191.473,87.28z M189.816,90.173
					c0.166-0.137,0.312-0.307,0.5-0.402c0.736-0.391,1.486-0.758,2.232-1.128c0.062-0.031,0.148-0.062,0.21-0.043
					c0.101,0.028,0.224,0.075,0.271,0.155c0.048,0.078,0.029,0.207,0.005,0.307c-0.017,0.062-0.085,0.118-0.144,0.158
					C191.979,89.85,190.95,90.16,189.816,90.173z M153.762,117.651c-0.369,0.937-0.51,1.952-1.101,2.788
					c-0.681-0.479-0.741-0.736-0.351-1.312C152.7,118.555,153.202,118.089,153.762,117.651z M178.828,131.111
					c0.092,0.602-0.123,1.104-0.428,1.543c-0.239,0.344-0.67,0.374-1.096,0.387c-0.035-0.14-0.104-0.256-0.072-0.33
					C177.417,132.269,178.238,131.453,178.828,131.111z M192.504,93.772c0.373-0.528,0.876-0.815,1.479-0.964
					c0.287,0.342,0.252,0.648,0.1,0.957c-0.045,0.089-0.135,0.176-0.227,0.225C193.514,94.169,193.025,94.089,192.504,93.772z
					 M187.574,86.178c0.082-0.323,0.365-0.453,0.628-0.534c0.622-0.191,1.241-0.449,2.016-0.322c-0.11,0.146-0.163,0.278-0.26,0.332
					c-0.678,0.389-1.437,0.52-2.192,0.645C187.716,86.306,187.652,86.23,187.574,86.178z M166.184,129.147
					c0.344-0.979,0.95-1.444,1.489-1.96c0.054-0.051,0.226-0.037,0.296,0.014c0.064,0.043,0.12,0.223,0.083,0.268
					C167.562,128.063,167.139,128.734,166.184,129.147z M191.754,121.781c-0.04,0.789-0.322,1.323-0.77,1.791
					c-0.629-0.369-0.703-0.658-0.268-1.023C191.016,122.296,191.341,122.083,191.754,121.781z M186.45,84.365
					c0.058-0.134,0.067-0.238,0.116-0.26c0.863-0.396,1.814-0.299,2.761-0.421c-0.136,0.101-0.261,0.257-0.411,0.292
					C188.118,84.162,187.312,84.35,186.45,84.365z M192.004,91.477c0.089-0.101,0.161-0.239,0.273-0.297
					c0.384-0.2,0.785-0.374,1.18-0.554c0.186-0.084,0.359-0.059,0.48,0.111c0.107,0.155-0.027,0.42-0.271,0.506
					C193.16,91.421,192.639,91.553,192.004,91.477z M172.959,75.394c-0.4,0.738-0.896,0.955-1.482,1.064
					c-0.078-0.793,0.004-0.967,0.56-1.06C172.273,75.358,172.529,75.394,172.959,75.394z M153.867,111.111
					c0,0.271,0.076,0.52-0.014,0.662c-0.346,0.543-0.774,1.02-1.334,1.486c-0.162-0.449,0.119-0.688,0.274-0.911
					C153.089,111.93,153.218,111.354,153.867,111.111z M179.494,95.675c-0.61,0.623-1.326,0.951-2.221,0.871
					c0.004-0.143-0.01-0.256,0.014-0.266c0.697-0.271,1.309-0.812,2.132-0.688C179.443,95.619,179.469,95.646,179.494,95.675z
					 M176.6,95.078c-0.777,0.334-1.291,0.838-2.07,0.741C175.157,94.933,175.505,94.789,176.6,95.078z M179.271,127.669
					c0.037,0.396-0.127,0.619-0.363,0.801c-0.191,0.148-0.52,0.095-0.672-0.104c-0.139-0.177-0.055-0.523,0.168-0.654
					C178.664,127.56,178.939,127.537,179.271,127.669z M163.164,124.062c-0.268,0.007-0.469-0.146-0.454-0.35
					c0.019-0.274,0.226-0.521,0.447-0.537c0.306-0.021,0.63,0.257,0.589,0.505C163.711,123.891,163.46,124.055,163.164,124.062z
					 M154.659,113.951c-0.418,0.879-0.517,0.994-1.304,1.649C153.605,114.85,153.854,114.515,154.659,113.951z M173.904,133.203
					c0.039,0.561-0.084,0.912-0.389,1.186c-0.086,0.076-0.283,0.109-0.388,0.064c-0.164-0.072-0.121-0.25-0.022-0.365
					C173.331,133.818,173.576,133.563,173.904,133.203z M168.223,134.31c0.156-0.627,0.437-0.922,0.83-1.191
					C168.997,133.771,168.997,133.771,168.223,134.31z M170.59,129.492c-0.076-0.07-0.168-0.125-0.158-0.148
					c0.062-0.198,0.12-0.404,0.226-0.584c0.163-0.274,0.505-0.389,0.603-0.225c0.147,0.25-0.074,0.383-0.208,0.526
					C170.909,129.214,170.744,129.348,170.59,129.492z M165.126,132.276c-0.046,0.446-0.207,0.702-0.612,0.843
					C164.674,132.669,164.669,132.667,165.126,132.276z M179.419,95.593c0.067-0.067,0.13-0.148,0.209-0.196
					c0.041-0.022,0.115,0.007,0.177,0.013c-0.037,0.076-0.062,0.168-0.117,0.223c-0.041,0.039-0.127,0.029-0.192,0.043
					C179.469,95.646,179.443,95.619,179.419,95.593z"/>
			</g>
			<g>
				<path fill="#007934" d="M195.988,94.565c-0.039,0.037-0.08,0.074-0.12,0.112c-0.022-0.062-0.056-0.124-0.063-0.186
					c-0.003-0.023,0.047-0.053,0.072-0.078C195.915,94.464,195.951,94.513,195.988,94.565z"/>
			</g>
			<g>
				<path fill="#007934" d="M266.809,80.893c0.394,0.022,0.678,0.047,0.963,0.051c1.47,0.013,2.942-0.036,4.408,0.166
					c0.629,0.089,0.883,0.283,0.987,0.925c0.024,0.141,0.031,0.285,0.041,0.43c0.033,0.643,0.06,1.283,0.097,1.928
					c0.057,0.967,0.141,1.934,0.17,2.9c0.049,1.58,0.049,3.16,0.098,4.738c0.023,0.717,0.043,1.448,0.188,2.146
					c0.407,1.938,0.173,3.859-0.024,5.791c-0.121,1.175-0.236,2.363-0.198,3.539c0.069,2.123,0.141,4.236-0.099,6.353
					c-0.067,0.604-0.105,1.222-0.072,1.827c0.053,0.967,0.181,1.928,0.267,2.893c0.021,0.213,0.001,0.43-0.007,0.646
					c-0.059,1.506-0.137,3.012-0.175,4.521c-0.031,1.221-0.032,2.443-0.015,3.666c0.008,0.608,0.063,1.221,0.138,1.825
					c0.177,1.466,0.551,2.892,0.946,4.308c0.231,0.826,0.562,1.627,0.908,2.416c0.15,0.349,0.387,0.771,0.697,0.916
					c0.486,0.226,0.784,0.61,1.164,0.928c0.834,0.697,1.716,1.326,2.878,1.291c0.591-0.016,1.124,0.173,1.665,0.373
					c0.503,0.188,1.016,0.375,1.541,0.471c1.104,0.203,2.223,0.066,3.335,0.074c0.14,0.001,0.293-0.02,0.421-0.075
					c1.027-0.442,2.109-0.692,3.197-0.916c0.174-0.035,0.354-0.097,0.501-0.19c0.776-0.515,1.567-1.017,2.312-1.578
					c0.654-0.494,1.196-1.133,2.004-1.43c0.287-0.105,0.514-0.387,0.764-0.593c0.224-0.181,0.429-0.386,0.667-0.543
					c0.47-0.308,0.802-0.719,1.001-1.235c0.159-0.41,0.393-0.76,0.705-1.072c0.75-0.743,1.161-1.705,1.604-2.639
					c0.136-0.285,0.07-0.584-0.16-0.797c-0.4-0.371-0.867-0.652-1.424-0.695c-0.186-0.016-0.397,0.112-0.571,0.22
					c-0.11,0.071-0.177,0.222-0.253,0.343c-0.553,0.869-1.371,1.395-2.35,1.576c-0.871,0.16-1.614,0.543-2.375,0.953
					c-0.465,0.254-1.006,0.361-1.514,0.533c-0.95-0.178-1.934-0.211-2.826-0.644c-0.686-0.333-1.167-0.873-1.359-1.589
					c-0.127-0.473-0.32-0.861-0.645-1.213c-0.375-0.409-0.588-0.901-0.643-1.456c-0.113-1.144-0.255-2.287-0.318-3.433
					c-0.092-1.58-0.155-3.16-0.172-4.742c-0.014-1.437,0.012-2.875,0.1-4.309c0.072-1.185,0.145-2.363,0.113-3.553
					c-0.028-1.041-0.109-2.1,0.033-3.121c0.127-0.902,0.039-1.764,0.002-2.65c-0.068-1.649-0.086-3.306,0.109-4.955
					c0.037-0.315,0.016-0.646-0.003-0.969c-0.041-0.748-0.103-1.502-0.146-2.252c-0.088-1.582,0.166-3.154,0.107-4.74
					c-0.048-1.324,0.025-2.656,0.062-3.985c0.027-0.933,0.076-1.864,0.13-2.794c0.01-0.174,0.087-0.34,0.14-0.529
					c0.598-0.046,1.148-0.076,1.727,0.066c0.514,0.129,1.066-0.256,1.604-0.237c0.394,0.015,0.8-0.062,1.181,0.011
					c0.821,0.151,1.64,0.145,2.467,0.127c0.789-0.015,1.569,0.045,2.363-0.058c0.447-0.056,0.567-0.052,1.029-0.085
					c0.663-0.045,0.964-0.43,1.086-1.008c0.155-0.737,0.22-1.489,0.135-2.248c-0.068-0.618-0.349-0.854-1.005-0.86
					c-1.219-0.009-2.086-0.015-3.307-0.024c-0.216-0.002-0.433-0.002-0.646-0.025c-1.894-0.203-3.785-0.081-5.691-0.094
					c-0.071,0-0.146-0.002-0.217-0.01c-0.23-0.024-0.42-0.125-0.494-0.354c-0.166-0.511-0.381-0.998-0.379-1.562
					c0.006-1.474-0.039-2.949-0.033-4.424c0.002-0.758-0.066-1.502-0.157-2.254c-0.104-0.879-0.237-1.754,0.058-2.664
					c0.213-0.664,0.246-1.431,0.172-2.131c-0.088-0.83-0.047-1.65-0.072-2.474c-0.012-0.395-0.01-0.795-0.092-1.177
					c-0.037-0.175-0.229-0.362-0.402-0.449c-0.182-0.09-0.418-0.092-0.631-0.087c-0.574,0.017-1.146,0.083-1.723,0.082
					c-1.151-0.003-1.115,0.008-1.523,1.101c-0.114,0.3-0.163,0.624-0.232,0.938c-0.102,0.456-0.205,0.911-0.289,1.37
					c-0.113,0.6-0.231,1.2-0.305,1.804c-0.043,0.367-0.121,0.695-0.34,1.001c-0.669,0.934-1.227,1.948-2.077,2.748
					c-0.233,0.22-0.405,0.504-0.612,0.752c-0.393,0.467-0.775,0.945-1.189,1.393c-0.828,0.896-1.725,1.727-2.409,2.748
					c-0.176,0.264-0.442,0.467-0.674,0.691c-0.208,0.199-0.468,0.363-0.621,0.596c-0.29,0.434-0.688,0.738-1.099,1.021
					c-1.664,1.147-3.084,2.582-4.627,3.873c-0.308,0.258-0.396,0.604-0.352,0.969C266.58,80.283,266.702,80.548,266.809,80.893z
					 M277.706,101.367c0.328-0.49,0.841-0.755,1.321-1.047c0.512-0.309,1.059-0.566,1.603-0.824c0.106-0.052,0.304-0.05,0.386,0.018
					c0.084,0.068,0.107,0.25,0.102,0.378c-0.016,0.28-0.211,0.44-0.454,0.538c-0.759,0.305-1.519,0.609-2.284,0.896
					c-0.193,0.07-0.416,0.064-0.624,0.096L277.706,101.367z M284.621,74.164c-0.078-1.033-0.846-2.027-0.146-3.09
					C284.889,71.949,284.973,73.231,284.621,74.164z M283.699,100.863c0.066,0.954,0.128,1.695,0.162,2.436
					c0.006,0.105-0.121,0.217-0.244,0.418c-0.102-0.217-0.221-0.348-0.203-0.455c0.088-0.506,0.038-0.963-0.227-1.418
					c-0.088-0.151-0.016-0.42,0.041-0.619C283.26,101.126,283.421,101.069,283.699,100.863z M284.241,125.105
					c0.341,0.395,0.604,0.67,0.833,0.973c0.111,0.149,0.099,0.361-0.08,0.459c-0.139,0.075-0.385,0.15-0.473,0.086
					c-0.183-0.144-0.313-0.367-0.426-0.58C283.971,125.8,283.989,125.783,284.241,125.105z M279.789,126.96
					c0.557-0.742,1.389-0.832,2.178-1.203c0,0.195,0.051,0.365-0.008,0.42C281.409,126.697,280.712,126.949,279.789,126.96z
					 M279.982,111.726c0.145,0.207,0.121,0.441-0.071,0.561c-0.563,0.342-1.166,0.596-1.925,0.596
					C278.383,112.515,279.488,111.884,279.982,111.726z M279.73,96.197c-0.357,0.952-1.121,0.983-1.769,1.333
					C278.175,96.966,278.59,96.653,279.73,96.197z M278.37,130.74c0.218-0.57,0.712-0.748,1.176-0.945
					c0.132-0.059,0.308-0.01,0.478-0.01c-0.028,0.131-0.022,0.229-0.062,0.254C279.471,130.361,278.908,130.507,278.37,130.74z
					 M290.598,130.647c0.297-0.468,0.68-0.526,1.188-0.399C291.281,130.809,291.281,130.809,290.598,130.647z M283.859,90.744
					c-0.328,0.34-0.281-1.643,0.078-2.519C284.355,88.921,284.58,89.576,283.859,90.744z M275.354,108.642
					c0.107,0.046,0.242,0.064,0.319,0.143c0.24,0.242,0.312,0.524,0.062,0.805c-0.07,0.08-0.237,0.172-0.308,0.141
					c-0.35-0.154-0.311-0.473-0.245-0.771C275.206,108.845,275.294,108.748,275.354,108.642z M275.495,114.75
					c-0.056-0.416-0.175-0.888-0.154-1.277c0.025-0.559,0.153-1.057,0.238-1.581c0.368-0.491,0.338,0.804,0.353,1.262
					c0.014,0.462-0.166,1.005-0.271,1.483C275.641,114.733,275.568,114.703,275.495,114.75z M284.68,63.497
					c0.018,0.088,0.047,0.162,0.051,0.265c0.025,0.592,0.002,1.21-0.192,1.565c-0.067,0.122-0.226-0.009-0.251-0.206
					c-0.072-0.569,0.013-1.135,0.206-1.502C284.545,63.513,284.615,63.534,284.68,63.497z M275.042,83.855
					c0.015,0.316,0.093,0.328,0.062,1.48c-0.024,0.968,0.056,1.611-0.281,1.393c0.049-0.973-0.178-1.962,0-2.878
					C274.941,83.481,275.169,83.697,275.042,83.855z M282.861,61.38c0.068-0.312,0.017-0.506,0.186-0.654
					c0.09-0.077,0.568-0.07,0.871-0.102c0.004,0.126,0.111,0.277-0.012,0.373C283.758,61.114,283.416,61.185,282.861,61.38z
					 M277.754,101.421c-0.064,0.057-0.125,0.132-0.201,0.166c-0.037,0.015-0.107-0.049-0.162-0.075
					c0.043-0.041,0.077-0.099,0.127-0.12c0.058-0.023,0.127-0.02,0.188-0.025L277.754,101.421z"/>
			</g>
			<g>
				<path fill="#007934" d="M124.668,84.121c-0.367-0.361-0.417-0.736-0.361-1.093c0.097-0.627,0.051-1.235-0.057-1.856
					c-0.067-0.394-0.104-0.813-0.039-1.205c0.104-0.623,0.036-1.239,0.033-1.858c-0.003-0.983-0.208-1.974,0.082-2.952
					c0.081-0.273-0.08-0.525-0.331-0.632c-0.262-0.11-0.557-0.174-0.843-0.196c-0.583-0.05-1.172-0.054-1.757-0.086
					c-0.477-0.029-0.941-0.053-1.398,0.172c-0.214,0.105-0.5,0.11-0.75,0.098c-1.569-0.09-3.136-0.27-4.712-0.09
					c-0.287,0.031-0.585-0.021-0.878-0.021c-0.326,0.002-0.654,0.005-0.978,0.033c-0.655,0.062-1.308,0.177-1.963,0.195
					c-0.657,0.021-1.315-0.062-1.974-0.076c-1.065-0.02-2.133,0.033-3.191-0.043c-0.889-0.063-1.752-0.016-2.618,0.168
					c-0.491,0.105-0.668,0.22-0.699,0.695c-0.056,0.842-0.07,1.686-0.058,2.526c0.007,0.493,0.276,0.714,0.772,0.737
					c1.07,0.057,2.103-0.141,3.126-0.439c1.066-0.308,2.083-0.285,3.023,0.436c0.276,0.213,0.651,0.332,0.998,0.408
					c0.711,0.154,1.181,0.582,1.463,1.213c0.239,0.537,0.398,1.095,0.36,1.707c-0.037,0.619-0.077,1.258,0.019,1.865
					c0.179,1.143,0.109,2.266-0.047,3.396c-0.061,0.44-0.028,0.866,0.106,1.301c0.228,0.737,0.354,1.498,0.355,2.274
					c0.001,1.021,0.005,2.043,0.012,3.062c0.005,0.732-0.062,1.475,0.04,2.193c0.189,1.322,0.076,2.629-0.062,3.938
					c-0.034,0.328-0.07,0.659-0.071,0.988c-0.001,1.648,0.02,3.299,0.006,4.949c-0.004,0.445,0.042,0.867,0.167,1.297
					c0.338,1.168,0.526,2.354,0.339,3.574c-0.043,0.287-0.059,0.59-0.02,0.875c0.155,1.104-0.051,2.187-0.151,3.277
					c-0.125,1.35-0.209,2.702-0.261,4.057c-0.027,0.729,0.06,1.461,0.08,2.193c0.044,1.689-0.07,3.367-0.438,5.023
					c-0.048,0.214-0.136,0.434-0.121,0.646c0.073,1.08-0.338,1.989-0.911,2.871c-0.357,0.547-0.792,0.951-1.397,1.184
					c-0.824,0.316-1.656,0.599-2.544,0.67c-0.547,0.042-1.094,0.097-1.639,0.15c-0.467,0.047-0.667,0.209-0.73,0.67
					c-0.069,0.508-0.147,1.016-0.006,1.528c0.213,0.771,0.5,0.961,1.27,0.79c0.18-0.038,0.367-0.062,0.532-0.134
					c0.671-0.286,1.36-0.249,2.057-0.151c1.091,0.15,2.183,0.231,3.286,0.162c0.693-0.044,1.393,0.025,2.089,0.008
					c0.915-0.025,1.829-0.092,2.743-0.143c0.513-0.029,1.024-0.086,1.536-0.092c2.124-0.02,4.245,0.152,6.369,0.035
					c0.182-0.01,0.367,0.004,0.55,0.015c1.201,0.067,2.402,0.175,3.603,0.198c1.357,0.029,2.716-0.019,4.074-0.032
					c0.256-0.002,0.513-0.009,0.77-0.013c0.253-0.004,0.443-0.144,0.496-0.361c0.103-0.424,0.206-0.859,0.2-1.29
					c-0.006-0.435-0.147-0.862-0.225-1.294c-0.065-0.361-0.248-0.627-0.625-0.674c-0.508-0.061-1.022-0.137-1.528-0.115
					c-0.818,0.033-1.603,0.018-2.363-0.352c-0.358-0.172-0.781-0.205-1.161-0.336c-0.272-0.094-0.57-0.197-0.775-0.387
					c-0.491-0.451-1.025-0.826-1.617-1.129c-0.42-0.216-0.658-0.545-0.729-1.027c-0.092-0.615-0.211-1.229-0.363-1.834
					c-0.19-0.754-0.271-1.517-0.24-2.291c0.094-2.269,0.003-4.539,0.01-6.81c0.001-0.147-0.007-0.295-0.029-0.438
					c-0.247-1.666-0.503-3.33-0.746-4.996c-0.031-0.213-0.017-0.438,0.015-0.653c0.199-1.39,0.188-2.772,0.062-4.167
					c-0.064-0.727-0.086-1.465-0.042-2.191c0.063-1.061,0.228-2.113,0.305-3.174c0.072-0.984,0.116-1.977,0.114-2.963
					c-0.002-1.318-0.061-2.639-0.095-3.957c-0.018-0.678,0.112-1.312,0.541-1.863c0.226-0.287,0.408-0.611,0.65-0.886
					c0.805-0.899,1.659-1.757,2.433-2.683c1.055-1.26,2.403-2.141,3.748-3.031c0.724-0.479,1.477-0.618,2.266-0.121
					c0.248,0.158,0.543,0.238,0.779,0.407c1.086,0.772,2.272,1.327,3.552,1.688c0.174,0.051,0.35,0.11,0.513,0.191
					c0.871,0.427,1.758,0.643,2.75,0.473c0.899-0.156,1.828-0.164,2.588-0.77c0.56-0.098,1.003-0.438,1.471-0.721
					c1.155-0.701,1.951-1.645,2.033-3.064c0.011-0.182,0.079-0.355,0.121-0.535c0.175-0.762,0.195-1.523,0.001-2.287
					c-0.189-0.744-0.39-1.486-0.56-2.236c-0.229-1.02-0.784-1.795-1.654-2.361c-0.616-0.402-1.28-0.701-1.947-1.006
					c-0.651-0.299-1.313-0.448-2.016-0.481c-1.735-0.082-3.439,0.144-5.12,0.55c-0.32,0.078-0.651,0.166-0.934,0.325
					c-1.181,0.662-2.387,1.298-3.416,2.187c-1.72,1.48-3.395,3.011-5.111,4.498C126.185,83.019,125.55,83.694,124.668,84.121z
					 M121.536,77.647c-0.173,0.401-0.196,0.604-0.311,0.698c-0.31,0.248-0.639,0.486-0.993,0.667
					c-1.065,0.55-2.142,1.075-3.224,1.593c-0.133,0.062-0.323,0.01-0.605,0.01c0.164-0.242,0.229-0.439,0.361-0.521
					C118.219,79.225,119.626,78.253,121.536,77.647z M117.01,109.628c-0.175-0.237-0.006-0.383,0.096-0.512
					c0.557-0.721,2.77-2.625,3.455-2.99c0.35,0.781,0.295,1.058-0.34,1.459c-0.68,0.432-1.379,0.834-2.06,1.263
					C117.769,109.095,117.394,109.365,117.01,109.628z M117.889,105.082c0.625-1.062,1.635-1.435,2.439-2.074
					c0.298,0.541,0.324,0.769,0.019,0.978C119.635,104.468,118.886,104.892,117.889,105.082z M118.87,129.458
					c0.909-0.365,1.721-0.838,2.632-1.07c0.157-0.04,0.348,0.003,0.506,0.059c0.071,0.021,0.136,0.174,0.134,0.264
					c-0.003,0.09-0.079,0.199-0.155,0.252c-0.084,0.058-0.204,0.08-0.31,0.082c-0.425,0.006-0.751,0.207-1.077,0.465
					C120.102,129.898,119.623,129.875,118.87,129.458z M121.068,87.417c-0.008,0.049-0.005,0.074-0.016,0.082
					c-0.055,0.049-0.108,0.102-0.172,0.133c-0.614,0.311-1.229,0.613-1.861,0.896c0.207-0.194,0.409-0.411,0.667-0.512
					c0.348-0.138,0.646-0.345,0.956-0.537C120.767,87.399,120.889,87.312,121.068,87.417z M117.416,94.222
					c0.501-0.533,2.715-2.032,3.362-2.282c0.023,0.103,0.088,0.271,0.061,0.288c-1.09,0.654-2.022,1.559-3.217,2.049
					C117.596,94.285,117.556,94.259,117.416,94.222z M117.037,117.677c0.27,1.093,0.334,1.941,0.097,2.8
					c-0.024,0.085-0.131,0.196-0.211,0.208c-0.168,0.029-0.266-0.107-0.267-0.26C116.648,119.568,116.556,118.699,117.037,117.677z
					 M137.904,80.134c0.178-0.604,0.768-0.613,1.176-0.862c0.365-0.222,0.768-0.284,1.347-0.155
					c-0.766,0.541-1.46,0.879-2.205,1.119C138.143,80.262,138.027,80.175,137.904,80.134z M118.552,126.567
					c0.541-0.19,0.969,0.015,1.394,0.194c0.167,0.07,0.246,0.396,0.174,0.576c-0.073,0.18-0.335,0.314-0.543,0.242
					C119.087,127.412,118.735,127.101,118.552,126.567z M114.879,109.705c-0.21-0.353-0.222-0.636-0.058-0.896
					c0.34-0.545,0.886-0.791,1.517-1.014C115.928,108.615,115.45,109.242,114.879,109.705z M137.477,84.269
					c0.655-0.227,1.188-0.025,1.756,0.207c-0.055,0.393-0.348,0.554-0.659,0.576C138.044,85.089,137.737,84.746,137.477,84.269z
					 M140.684,86.833c0.496,0,0.991,0,1.614,0c-0.144,0.162-0.208,0.304-0.301,0.326C141.546,87.269,141.086,87.347,140.684,86.833z
					"/>
			</g>
			<g>
				<path fill="#007934" d="M64.328,95.449c-0.044-0.502-0.098-1.049-0.327-1.48c-0.535-1.01-0.661-2.145-1.075-3.19
					c-0.351-0.894-0.793-1.696-1.292-2.499c-0.576-0.931-1.557-1.539-1.994-2.576c-0.05-0.115-0.226-0.176-0.332-0.272
					c-0.507-0.466-1.05-0.901-1.507-1.414c-0.465-0.522-0.959-0.981-1.559-1.343c-0.276-0.168-0.572-0.358-0.754-0.613
					c-0.393-0.555-0.924-0.919-1.474-1.277c-0.211-0.138-0.398-0.311-0.603-0.459c-0.32-0.236-0.625-0.505-0.973-0.688
					c-1.032-0.533-2.086-1.025-3.124-1.547c-0.323-0.159-0.626-0.359-0.942-0.537c-0.284-0.157-0.562-0.332-0.861-0.454
					c-0.604-0.25-1.223-0.461-1.832-0.703c-0.609-0.242-1.232-0.396-1.892-0.479c-0.823-0.103-1.631-0.332-2.474-0.287
					c-0.105,0.004-0.216-0.033-0.32-0.061c-0.741-0.177-1.475-0.398-2.224-0.525c-1.499-0.256-2.959-0.773-4.511-0.703
					c-0.069,0.002-0.141-0.037-0.212-0.043c-0.505-0.051-1.009-0.104-1.514-0.146c-0.289-0.021-0.585,0.002-0.869-0.046
					c-1.798-0.304-3.604-0.418-5.429-0.345c-1.631,0.066-3.269,0.15-4.896,0.062c-1.127-0.062-2.25-0.067-3.377-0.065
					c-1.379,0.004-2.761-0.051-4.137,0.146c-0.351,0.053-0.721-0.007-1.083-0.029c-0.468-0.031-0.937-0.084-1.405-0.115
					c-0.469-0.032-0.939-0.047-1.41-0.082c-0.289-0.022-0.577-0.096-0.867-0.102c-1.379-0.021-2.76-0.029-4.14-0.041
					C4.737,73.53,4.536,73.565,4.38,73.5c-0.895-0.373-1.795-0.11-2.694-0.055c-0.404,0.023-0.671,0.312-0.676,0.71
					c-0.005,0.468-0.021,0.947,0.058,1.404c0.135,0.791,0.222,1.172,1.288,1.34c0.909,0.146,1.811,0.022,2.704-0.019
					c0.854-0.039,1.576,0.244,2.286,0.572c0.405,0.188,0.795,0.557,1.025,0.943c0.576,0.973,0.99,1.988,0.795,3.205
					c-0.188,1.18-0.202,2.395,0.194,3.561c0.124,0.365,0.114,0.692-0.021,1.057c-0.082,0.223-0.096,0.523-0.015,0.742
					c0.161,0.427,0.138,0.856,0.144,1.289c0.014,1.201-0.026,2.406,0.047,3.604c0.117,1.89,0.126,3.78,0.127,5.673
					c0,0.834,0.103,1.674,0.019,2.497c-0.092,0.91-0.086,1.812-0.103,2.722c-0.01,0.618-0.056,0.529-0.141,1.139
					c-0.167,1.193-0.204,2.393-0.176,3.589c0.02,0.876,0.079,1.745-0.074,2.612c-0.024,0.141-0.073,0.305-0.03,0.429
					c0.25,0.726,0.04,1.437-0.02,2.155c-0.023,0.281-0.023,0.584,0.049,0.856c0.242,0.89,0.221,1.798,0.22,2.703
					c-0.001,0.651-0.006,1.306,0.016,1.958c0.055,1.672,0.068,3.346-0.341,4.979c-0.257,1.027-0.305,2.08-0.489,3.117
					c-0.153,0.854-0.266,1.723-0.386,2.586c-0.045,0.312-0.178,0.563-0.463,0.692c-1.291,0.585-2.572,1.155-4.065,0.972
					c-0.711-0.088-1.462-0.072-2.165,0.059c-0.771,0.146-1.48,0.562-1.328,1.668c0.065,0.468,0.055,0.941,0.08,1.414
					c0.032,0.613,0.251,0.894,0.832,0.935c1.051,0.076,2.104,0.116,3.157,0.16c0.18,0.007,0.36-0.05,0.541-0.065
					c0.614-0.062,1.245-0.238,1.837-0.152c0.787,0.119,1.609-0.032,2.37,0.296c0.161,0.069,0.357,0.088,0.536,0.085
					c0.834-0.012,1.667-0.03,2.501-0.061c1.598-0.058,3.188-0.111,4.786,0.142c0.773,0.124,1.59-0.011,2.387-0.052
					c0.433-0.022,0.862-0.119,1.295-0.129c1.961-0.039,3.921-0.066,5.882,0.039c0.609,0.031,1.228-0.084,1.842-0.135
					c0.362-0.027,0.728-0.111,1.083-0.076c0.663,0.063,1.314,0.008,1.954-0.121c0.89-0.179,1.825,0,2.69-0.354
					c0.063-0.024,0.144-0.004,0.217-0.007c1.085-0.055,2.17-0.106,3.255-0.16c0.654-0.032,1.314-0.021,1.961-0.102
					c0.941-0.119,1.878-0.199,2.826-0.147c0.325,0.017,0.667,0.015,0.975-0.069c0.663-0.182,1.334-0.369,1.957-0.652
					c1.054-0.479,2.154-0.844,3.196-1.352c0.55-0.27,1.158-0.423,1.746-0.609c0.66-0.209,1.316-0.416,1.89-0.828
					c0.44-0.313,0.901-0.602,1.341-0.92c0.674-0.489,1.352-0.979,2.002-1.5c0.822-0.66,1.575-1.387,2.208-2.248
					c0.535-0.729,1.067-1.457,1.75-2.08c1.041-0.946,1.758-2.119,2.075-3.518c0.178-0.779,0.336-1.57,0.597-2.32
					c0.484-1.406,1.032-2.793,1.561-4.183c0.525-1.383,0.784-2.793,0.532-4.276c-0.061-0.351-0.046-0.723-0.024-1.08
					c0.094-1.562,0.236-3.121,0.298-4.682c0.077-1.957,0.093-3.213,0.135-5.172c0.015,0,0.029-0.001,0.043-0.001
					C64.434,97.332,64.413,96.387,64.328,95.449z M18.777,81.859c-0.062,0.323-0.351,0.452-0.616,0.564
					c-1.027,0.443-2.032,0.943-3.167,1.246c0.363-0.655,2.224-2.162,3.553-2.885C18.866,81.14,18.845,81.505,18.777,81.859z
					 M12.547,80.251c0.488-0.287,0.996-0.535,1.64-0.524c-0.043,0.144-0.042,0.269-0.103,0.313c-0.366,0.287-0.74,0.562-1.123,0.821
					c-0.077,0.054-0.227,0.069-0.303,0.029c-0.116-0.062-0.254-0.177-0.275-0.292C12.363,80.494,12.452,80.308,12.547,80.251z
					 M13.657,90.762c0.592-0.247,1.045-0.769,1.769-0.798c-0.597,0.625-1.195,1.25-1.781,1.863c-0.39-0.015-0.657-0.17-0.918-0.375
					C12.99,91.123,13.304,90.908,13.657,90.762z M10.576,81.664c0.512,0.975,0.47,1.803,0.498,2.61
					c0.003,0.097-0.157,0.196-0.336,0.406C10.115,83.644,10.41,82.771,10.576,81.664z M13.218,128.875
					c-0.114,0.203-0.257,0.353-0.522,0.352c-0.373-0.001-0.545-0.209-0.368-0.521c0.343-0.603,0.636-1.225,1.149-1.733
					c0.594-0.589,1.071-1.288,1.457-2.039c0.087-0.173,0.199-0.331,0.382-0.627c0.008,0.225,0.036,0.313,0.009,0.381
					c-0.383,0.961-0.818,1.897-1.333,2.797C13.726,127.941,13.477,128.41,13.218,128.875z M16.363,130.5
					c-0.252,0.152-0.64,0.324-0.869,0.233c-0.446-0.175-0.255-0.632-0.185-0.987c0.029-0.146,0.142-0.277,0.29-0.553
					c0.296,0.088,0.516,0.114,0.696,0.213C16.862,129.718,16.9,130.173,16.363,130.5z M17.515,87.728
					c-0.491-0.059-0.964-0.115-1.524-0.184c0.535-0.442,1.116-0.732,1.792-1.125C17.729,86.953,17.819,87.369,17.515,87.728z
					 M18.465,84.519c-0.094,0.136-0.258,0.261-0.416,0.309c-0.653,0.202-1.316,0.375-1.975,0.557
					c0.597-0.598,1.308-1.021,2.085-1.324c0.076-0.03,0.255,0.016,0.281,0.072C18.492,84.246,18.525,84.433,18.465,84.519z
					 M20.11,112.537c-0.029,0.144-0.166,0.27-0.273,0.387c-0.038,0.043-0.135,0.063-0.198,0.055
					c-0.191-0.033-0.38-0.084-0.581-0.132c0.001-0.356,0.07-0.668,0.348-0.882c0.208-0.159,0.423-0.344,0.743-0.231
					C20.2,112.009,20.161,112.279,20.11,112.537z M55.441,94.796c-0.18,0.58-0.664,0.709-1.073,0.947
					C54.007,95.078,54.253,94.867,55.441,94.796z M52.371,83.402c0.199-0.037,0.345,0.034,0.375,0.268
					c-0.133,0.207-0.38,0.24-0.577,0.27c-0.732,0.102-1.383,0.543-2.245,0.545c0.142-0.146,0.201-0.24,0.288-0.29
					C50.888,83.814,51.608,83.546,52.371,83.402z M50.685,81.56c-0.463,0.504-1.042,0.665-2.714,0.757
					C48.586,81.88,49.782,81.546,50.685,81.56z M32.778,75.396c0.541-0.02,1.083-0.037,1.623-0.023
					c0.122,0.004,0.24,0.121,0.418,0.219c-0.788,0.523-1.476,0.349-2.2,0.007C32.699,75.49,32.737,75.397,32.778,75.396z
					 M49.431,129.896c0.882-0.479,1.724-0.997,2.763-1.535C51.644,129.289,50.622,129.833,49.431,129.896z M50.018,121.712
					c0.024-0.125,0.115-0.234,0.236-0.471c0.24,0.075,0.419,0.1,0.566,0.184c0.462,0.267,0.493,0.65,0.055,0.928
					c-0.206,0.132-0.521,0.277-0.707,0.199C49.805,122.404,49.96,122.014,50.018,121.712z M52.648,111.553
					c-0.181,2.172-0.906,4.179-1.805,6.138c-0.212,0.461-0.369,0.947-0.529,1.43c-0.117,0.355-0.284,0.676-0.595,0.892
					c-0.734,0.508-1.116,1.254-1.297,2.081c-0.172,0.787-0.557,1.414-1.125,1.949c-0.661,0.623-1.331,1.235-1.999,1.852
					c-0.844,0.779-1.927,1.158-2.893,1.732c-0.28,0.168-0.585,0.291-0.875,0.447c-0.677,0.358-1.376,0.625-2.157,0.707
					c-0.608,0.062-1.196,0.299-1.802,0.406c-1.213,0.214-2.342,0.779-3.598,0.827c-0.685,0.024-1.381-0.076-2.055,0.151
					c-0.126,0.041-0.291,0.002-0.431-0.028c-0.545-0.12-1.081-0.099-1.619,0.056c-0.208,0.059-0.431,0.069-0.649,0.075
					c-1.017,0.021-2.037,0.078-3.054,0.039c-0.758-0.03-1.515-0.168-2.266-0.3c-0.355-0.062-0.69-0.195-1.068-0.115
					c-0.3,0.062-0.49-0.154-0.568-0.4c-0.073-0.236-0.085-0.502-0.079-0.753c0.026-1.019-0.134-2.026-0.169-3.04
					c-0.052-1.521-0.155-3.045,0.11-4.57c0.128-0.744,0.036-1.524,0.055-2.287c0.01-0.398,0.046-0.795,0.062-1.192
					c0.012-0.251,0.014-0.502,0.009-0.753c-0.018-0.688-0.083-1.383-0.051-2.066c0.056-1.197,0.107-2.394-0.034-3.586
					c-0.034-0.289-0.052-0.588-0.146-0.857c-0.313-0.914-0.316-1.856-0.313-2.803c0.001-1.31,0.015-2.619-0.011-3.929
					c-0.024-1.163-0.106-1.618-0.142-2.782c-0.016-0.545-0.002-1.09,0.031-1.636c0.073-1.194,0.167-2.39,0.252-3.585
					c0.005-0.072,0.033-0.146,0.025-0.218c-0.171-1.668-0.007-3.338-0.023-5.007c-0.003-0.291,0.021-0.58,0.036-0.87
					c0.027-0.581,0.058-1.159,0.085-1.739c0.01-0.218-0.03-0.447,0.022-0.652c0.348-1.342,0.129-2.672-0.03-4.006
					c-0.131-1.091-0.109-2.18,0.073-3.391c0.428-0.125,0.801-0.301,1.186-0.331c0.47-0.037,0.923-0.129,1.384-0.205
					c0.677-0.106,1.371-0.12,2.042-0.285c0.07-0.016,0.149-0.017,0.219-0.002c1.627,0.368,3.346,0.126,4.937,0.744
					c1.234,0.05,2.378,0.649,3.641,0.577c0.426-0.021,0.851,0.105,1.265,0.285c0.424,0.185,0.895,0.295,1.356,0.349
					c0.413,0.05,0.763,0.158,1.11,0.392c0.391,0.263,0.823,0.463,1.249,0.666c0.754,0.359,1.521,0.694,2.274,1.056
					c0.229,0.108,0.466,0.233,0.64,0.411c0.364,0.365,0.778,0.646,1.221,0.902c0.211,0.121,0.397,0.312,0.549,0.51
					c0.356,0.459,0.673,0.947,1.028,1.408c0.22,0.287,0.465,0.557,0.726,0.807c0.658,0.627,1.334,1.232,1.995,1.857
					c0.377,0.354,0.643,0.768,0.746,1.297c0.096,0.498,0.277,0.979,0.423,1.467c0.031,0.104,0.037,0.23,0.102,0.31
					c0.672,0.802,0.698,1.908,1.292,2.744c0.406,1.463,1.03,2.862,1.042,4.431c0.006,0.793,0.202,1.588,0.354,2.37
					c0.111,0.576,0.102,1.132,0.051,1.722c-0.086,0.971-0.029,1.25-0.01,2.228c0.026,1.271,0.119,2.546,0.095,3.813
					C52.926,110.044,52.71,110.796,52.648,111.553z M52.605,85.841c0.634-0.473,1.13-0.766,1.928-0.738
					C53.937,85.605,53.433,85.88,52.605,85.841z M55.172,116.199c-0.115,0.454-0.491,0.695-1.064,0.65
					c0.082-0.465,0.291-0.797,0.779-0.9C55.012,115.921,55.201,116.085,55.172,116.199z M55.012,113.966
					c-0.254,0.154-0.641,0.324-0.869,0.234c-0.447-0.175-0.256-0.633-0.186-0.988c0.029-0.146,0.141-0.275,0.29-0.551
					c0.296,0.086,0.515,0.112,0.696,0.213C55.511,113.188,55.549,113.641,55.012,113.966z M54.254,110.396
					c0.205,0.175,0.324,0.23,0.367,0.324c0.139,0.291,0.113,0.324-0.306,0.521C54.297,110.998,54.282,110.775,54.254,110.396z
					 M54.529,98.792c-0.095,0.062-0.294-0.043-0.446-0.07c0.071-0.143,0.107-0.355,0.22-0.408c0.444-0.216,0.853-0.562,1.633-0.537
					C55.352,98.207,54.956,98.524,54.529,98.792z M60.968,88.688c0.493,0.59,0.421,1.224,0.528,1.804
					C60.884,90.046,60.751,89.477,60.968,88.688z M58.354,88.99c-0.42,0.545-0.42,0.545-1.433,0.707
					C57.317,89.21,57.754,89.063,58.354,88.99z M57.448,92.156c0.292-0.469,0.662-0.638,0.935-0.902
					c0.157-0.153,0.336-0.289,0.523-0.401c0.204-0.123,0.417-0.142,0.576,0.088c0.177,0.256,0.157,0.56-0.054,0.711
					C58.87,92.046,58.238,92.121,57.448,92.156z M58.577,94.703c0.977-1.16,0.977-1.16,2.153-1.511
					c0.057,0.142,0.188,0.306,0.158,0.431c-0.044,0.19-0.162,0.439-0.319,0.515C59.984,94.412,59.413,94.785,58.577,94.703z
					 M61.546,95.732c0.027,0.354,0.107,0.568,0.039,0.637c-0.427,0.439-0.968,0.648-1.707,0.769
					C60.291,96.393,60.958,96.271,61.546,95.732z M59.967,105.108c0.325-0.403,0.651-0.612,1.039-0.726
					c0.062-0.02,0.202,0.048,0.22,0.101c0.035,0.104,0.056,0.269-0.001,0.339C60.906,105.216,60.489,105.188,59.967,105.108z
					 M61.854,98.677c-0.35,0.303-0.719,0.609-1.357,0.58c0.342-0.563,0.812-0.756,1.358-1.109
					C61.858,98.416,61.92,98.619,61.854,98.677z"/>
			</g>
			<g>
				<path fill="#007934" d="M70.22,86.36c-0.2,0.743,0.032,1.472,0.034,2.198c0.001,0.463,0.208,0.633,0.706,0.65
					c0.952,0.035,1.905,0.076,2.855,0.049c0.343-0.01,0.649,0.035,0.966,0.132c0.244,0.073,0.49,0.147,0.738,0.212
					c1.102,0.287,1.896,1.031,2.383,1.977c0.37,0.719,0.32,1.625,0.63,2.402c-0.22,0.867-0.049,1.758-0.147,2.622
					c-0.212,1.877,0.085,3.737,0.048,5.604c-0.021,1.024,0.089,2.051,0.114,3.076c0.025,0.988-0.029,1.979,0.167,2.957
					c0.078,0.393,0.07,0.803,0.077,1.205c0.028,1.797,0.042,3.592,0.07,5.389c0.026,1.65-0.067,3.293-0.227,4.936
					c-0.078,0.802-0.129,1.609-0.128,2.415c0.002,1.427,0.003,2.856,0.105,4.278c0.058,0.8-0.24,1.334-0.816,1.801
					c-0.6,0.482-1.183,0.986-1.789,1.462c-0.345,0.271-0.708,0.526-1.086,0.749c-0.581,0.338-1.207,0.51-1.895,0.413
					c-0.249-0.034-0.514-0.022-0.761,0.021c-0.902,0.154-1.799,0.34-2.7,0.502c-0.365,0.064-0.601,0.268-0.71,0.606
					c-0.088,0.274-0.189,0.56-0.207,0.843c-0.089,1.503,0.229,1.866,1.734,1.799c1.057-0.049,2.119-0.105,3.171-0.186
					c1.286-0.098,2.562-0.111,3.843-0.031c0.438,0.025,0.88,0.021,1.32,0.014c0.623-0.017,1.244-0.07,1.867-0.074
					c2.128-0.01,4.256-0.006,6.384-0.01c0.293,0,0.587-0.009,0.88-0.011c1.428-0.012,2.859-0.161,4.278,0.136
					c0.176,0.037,0.366,0.016,0.549,0.018c1.795,0.025,3.592,0.058,5.388,0.068c0.512,0.004,1.032-0.004,1.533-0.097
					c0.608-0.11,0.896-0.515,0.801-1.108c-0.08-0.502-0.221-1-0.401-1.476c-0.182-0.489-0.557-0.743-1.116-0.696
					c-0.85,0.07-1.681-0.066-2.508-0.254c-0.643-0.146-1.295-0.25-1.94-0.394c-0.283-0.063-0.578-0.136-0.828-0.274
					c-0.844-0.479-1.544-1.121-2.015-1.98c-0.122-0.219-0.213-0.467-0.252-0.715c-0.229-1.481-0.594-2.957-0.26-4.475
					c0.039-0.175-0.007-0.363-0.004-0.547c0.017-1.246,0.036-2.49,0.055-3.734c0-0.037,0.008-0.072,0.013-0.108
					c0.286-1.744,0.222-3.511,0.249-5.261c0.06-3.998,0.105-8-0.205-11.989c-0.015-0.183-0.031-0.372,0.007-0.548
					c0.1-0.479,0.043-0.944-0.025-1.418c-0.102-0.688-0.174-1.373-0.103-2.075c0.039-0.396-0.048-0.804-0.054-1.205
					c-0.01-0.769-0.014-1.537,0.003-2.306c-0.023,0.975,0.067,0.537,0.102-1.312c0.033-1.76,0.052-3.521,0.065-5.285
					c0.002-0.289-0.02-0.587-0.087-0.869c-0.106-0.441-0.312-0.586-0.783-0.617c-0.33-0.021-0.659-0.03-0.989-0.041
					c-1.648-0.047-3.297-0.092-4.946-0.133c-0.109-0.002-0.218,0.026-0.328,0.035c-0.509,0.045-1.018,0.115-1.528,0.129
					c-0.807,0.021-1.615,0.02-2.422,0.002c-1.795-0.035-3.596,0.11-5.389-0.125c-0.289-0.037-0.587-0.015-0.88,0.002
					c-0.657,0.035-1.315,0.084-1.971,0.129C71.271,85.878,70.692,85.945,70.22,86.36z M75.892,76.809
					c0.106,0.433,0.121,0.993,0.37,1.409c0.709,1.189,1.371,2.469,2.898,2.841c0.139,0.037,0.266,0.125,0.391,0.2
					c0.48,0.293,1.006,0.436,1.562,0.492c0.984,0.104,1.966,0.229,2.952,0.319c0.285,0.026,0.585,0.001,0.866-0.06
					c1.336-0.288,2.563-0.889,3.763-1.5c1.785-0.912,2.785-2.439,3.035-4.438c0.022-0.18,0.007-0.371-0.027-0.547
					c-0.214-1.087-0.511-2.14-1.244-3.018c-0.233-0.279-0.404-0.615-0.646-0.889c-0.314-0.352-0.637-0.715-1.017-0.99
					c-1.108-0.795-2.369-1.307-3.642-1.764c-1.151-0.412-2.305-0.33-3.419,0.207c-0.395,0.188-0.805,0.352-1.217,0.504
					c-0.848,0.31-1.549,0.816-2.136,1.5c-0.455,0.527-0.916,1.051-1.39,1.56c-0.255,0.274-0.476,0.569-0.543,0.938
					C76.259,74.625,76.087,75.673,75.892,76.809z M84.626,105.152c-0.458,0.818-2.149,2.512-2.761,2.883
					c-0.263-0.529-0.27-0.824-0.008-1.173c0.087-0.116,0.19-0.225,0.304-0.315C82.91,105.966,83.769,105.57,84.626,105.152z
					 M85.262,116.19c0.031-0.144,0.021-0.239,0.062-0.272c0.644-0.488,1.388-0.765,2.161-0.963c0.22-0.057,0.439,0.004,0.521,0.266
					c0.083,0.264-0.013,0.545-0.221,0.667c-0.031,0.019-0.062,0.046-0.095,0.052C86.893,116.085,86.103,116.326,85.262,116.19z
					 M84.538,121.958c0.811-0.271,1.571-0.699,2.433-0.795c0.089-0.011,0.189,0.076,0.284,0.119
					c-0.055,0.118-0.083,0.313-0.167,0.342c-0.41,0.137-0.829,0.269-1.254,0.321C85.409,122,84.97,121.958,84.538,121.958z
					 M84.095,101.641c-0.365,0.581-0.799,1.104-1.345,1.532c-0.061,0.047-0.226,0.037-0.288-0.014
					c-0.068-0.06-0.123-0.218-0.09-0.287c0.108-0.221,0.219-0.474,0.402-0.625c0.358-0.293,0.765-0.523,1.152-0.781
					C83.983,101.524,84.039,101.582,84.095,101.641z M83.774,98.182c-0.46,0.399-0.913,0.812-1.386,1.194
					c-0.084,0.067-0.269,0.067-0.382,0.027c-0.142-0.05-0.094-0.299,0.084-0.451c0.109-0.095,0.217-0.195,0.343-0.263
					c0.405-0.219,0.819-0.422,1.228-0.63C83.7,98.102,83.736,98.143,83.774,98.182z M88.273,109.99
					c0.247,0.192,0.15,0.389-0.04,0.525c-0.435,0.314-0.92,0.521-1.486,0.624C86.949,110.621,87.376,110.309,88.273,109.99z
					 M88.488,95.894c-0.052,0.227-0.051,0.408-0.134,0.535c-0.094,0.146-0.256,0.252-0.403,0.357
					c-0.337,0.244-0.683,0.477-1.175,0.816C87.401,96.621,87.746,96.281,88.488,95.894z M86.214,128.705
					c0.028,0.42-0.277,0.438-0.479,0.547c-0.805,0.441-0.807,0.438-1.373,0.435c0.004-0.035-0.004-0.085,0.017-0.104
					c0.047-0.051,0.102-0.1,0.164-0.125C85.09,129.207,85.639,128.962,86.214,128.705z M87.146,124.996
					c-0.697,0.465-1.301,0.547-1.919,0.58C85.727,125.149,86.308,124.994,87.146,124.996z M82.02,120.854
					c0.355-0.226,0.719-0.312,1.256-0.157C82.779,120.953,82.435,121.173,82.02,120.854z M81.161,75.714
					c0.211-0.229,0.268-0.334,0.355-0.383c1.758-0.979,3.519-1.955,5.281-2.929c0.121-0.065,0.264-0.09,0.451-0.151
					c-0.397,0.576-1.956,1.895-2.979,2.319C83.311,74.975,82.456,75.693,81.161,75.714z M88.229,77.729
					c0.092,0.519-0.126,0.94-0.427,1.29c-0.281,0.324-0.614,0.639-0.989,0.841c-0.804,0.433-1.687,0.634-2.751,0.704
					c0.179-0.189,0.25-0.299,0.35-0.361c0.151-0.099,0.318-0.183,0.488-0.244c1.229-0.429,2.262-1.135,3.09-2.145
					C88.027,77.769,88.119,77.766,88.229,77.729z"/>
			</g>
		</g>
	</g>
</g>
</svg>
